AsbirSansItalic-ItalicDisplayRegular.ufo
<glyph name="exclam" format="2">
  <advance width="450"/>
  <unicode hex="0021"/>
  <outline>
    <contour>
      <point x="123" y="400" type="line"/>
      <point x="283" y="400" type="line"/>
      <point x="477" y="1490" type="line"/>
      <point x="291" y="1490" type="line"/>
    </contour>
    <contour>
      <point x="145" y="-17" type="curve" smooth="yes"/>
      <point x="210" y="-17"/>
      <point x="268" y="32"/>
      <point x="279" y="97" type="curve" smooth="yes"/>
      <point x="291" y="172"/>
      <point x="241" y="233"/>
      <point x="166" y="233" type="curve" smooth="yes"/>
      <point x="101" y="233"/>
      <point x="43" y="184"/>
      <point x="32" y="119" type="curve" smooth="yes"/>
      <point x="20" y="44"/>
      <point x="70" y="-17"/>
    </contour>
  </outline>
</glyph>
<glyph name="numbersign" format="2">
  <advance width="1228"/>
  <unicode hex="0023"/>
  <outline>
    <contour>
      <point x="592.59" y="0" type="line"/>
      <point x="738.59" y="0" type="line"/>
      <point x="1229.258" y="1490" type="line"/>
      <point x="1085.258" y="1490" type="line"/>
    </contour>
    <contour>
      <point x="-16.873" y="414" type="line"/>
      <point x="1095.127" y="414" type="line"/>
      <point x="1142.966" y="558" type="line"/>
      <point x="30.966" y="558" type="line"/>
    </contour>
    <contour>
      <point x="70.59" y="0" type="line"/>
      <point x="214.59" y="0" type="line"/>
      <point x="705.258" y="1490" type="line"/>
      <point x="561.258" y="1490" type="line"/>
    </contour>
    <contour>
      <point x="156.551" y="930" type="line"/>
      <point x="1268.551" y="930" type="line"/>
      <point x="1314.721" y="1076" type="line"/>
      <point x="204.721" y="1076" type="line"/>
    </contour>
  </outline>
</glyph>
<glyph name="dollar" format="2">
  <advance width="1259"/>
  <unicode hex="0024"/>
  <anchor x="546" y="0" name="bottom"/>
  <anchor x="546" y="0" name="cedilla"/>
  <anchor x="784" y="1490" name="top"/>
  <outline>
    <contour>
      <point x="422" y="-222" type="line"/>
      <point x="582" y="-222" type="line"/>
      <point x="902" y="1712" type="line"/>
      <point x="742" y="1712" type="line"/>
    </contour>
    <component base="S"/>
  </outline>
</glyph>
<glyph name="ampersand" format="2">
  <advance width="1332"/>
  <unicode hex="0026"/>
  <outline>
    <contour>
      <point x="465" y="-20" type="curve"/>
      <point x="618" y="-20"/>
      <point x="778" y="37"/>
      <point x="884" y="136" type="curve"/>
      <point x="925" y="180" type="line"/>
      <point x="1060" y="295"/>
      <point x="1146" y="456"/>
      <point x="1178" y="651" type="curve"/>
      <point x="1012" y="651" type="line"/>
      <point x="963" y="382"/>
      <point x="710" y="130"/>
      <point x="471" y="130" type="curve" smooth="yes"/>
      <point x="311" y="130"/>
      <point x="201" y="248"/>
      <point x="223" y="382" type="curve" smooth="yes"/>
      <point x="238" y="474"/>
      <point x="304" y="547"/>
      <point x="439" y="636" type="curve" smooth="yes"/>
      <point x="775" y="858" type="line" smooth="yes"/>
      <point x="924" y="956"/>
      <point x="1002" y="1063"/>
      <point x="1021" y="1180" type="curve" smooth="yes"/>
      <point x="1052" y="1370"/>
      <point x="921" y="1504"/>
      <point x="703" y="1504" type="curve" smooth="yes"/>
      <point x="491" y="1504"/>
      <point x="329" y="1377"/>
      <point x="296" y="1180" type="curve" smooth="yes"/>
      <point x="274" y="1048"/>
      <point x="321" y="961"/>
      <point x="502" y="685" type="curve" smooth="yes"/>
      <point x="952" y="0" type="line"/>
      <point x="1156" y="0" type="line"/>
      <point x="606" y="829" type="line" smooth="yes"/>
      <point x="482" y="1015"/>
      <point x="453" y="1075"/>
      <point x="465" y="1153" type="curve" smooth="yes"/>
      <point x="485" y="1273"/>
      <point x="588" y="1356"/>
      <point x="700" y="1356" type="curve" smooth="yes"/>
      <point x="800" y="1356"/>
      <point x="862" y="1286"/>
      <point x="848" y="1199" type="curve" smooth="yes"/>
      <point x="836" y="1127"/>
      <point x="781" y="1056"/>
      <point x="692" y="998" type="curve" smooth="yes"/>
      <point x="426" y="824" type="line" smooth="yes"/>
      <point x="153" y="646"/>
      <point x="75" y="552"/>
      <point x="51" y="408" type="curve" smooth="yes"/>
      <point x="9" y="154"/>
      <point x="178" y="-20"/>
    </contour>
  </outline>
</glyph>
<glyph name="quotesingle" format="2">
  <advance width="520"/>
  <unicode hex="0027"/>
  <outline>
    <contour>
      <point x="271.49" y="984" type="line"/>
      <point x="399.49" y="984" type="line"/>
      <point x="503.258" y="1490" type="line"/>
      <point x="335.258" y="1490" type="line"/>
    </contour>
  </outline>
</glyph>
<glyph name="parenleft" format="2">
  <advance width="612"/>
  <unicode hex="0028"/>
  <outline>
    <contour>
      <point x="158.595" y="592" type="curve" smooth="yes"/>
      <point x="107.275" y="282"/>
      <point x="140.451" y="-25"/>
      <point x="253.919" y="-294" type="curve"/>
      <point x="419.919" y="-294" type="line"/>
      <point x="312.55" y="36"/>
      <point x="284.573" y="314"/>
      <point x="330.595" y="592" type="curve" smooth="yes"/>
      <point x="381.584" y="900"/>
      <point x="533.334" y="1273"/>
      <point x="727.84" y="1566" type="curve"/>
      <point x="561.84" y="1566" type="line"/>
      <point x="381.101" y="1332"/>
      <point x="214.716" y="931"/>
    </contour>
  </outline>
</glyph>
<glyph name="parenright" format="2">
  <advance width="612"/>
  <unicode hex="0029"/>
  <outline>
    <contour>
      <point x="-80.081" y="-294" type="curve"/>
      <point x="85.919" y="-294" type="line"/>
      <point x="288.451" y="-25"/>
      <point x="423.275" y="282"/>
      <point x="474.595" y="592" type="curve" smooth="yes"/>
      <point x="530.716" y="931"/>
      <point x="497.101" y="1332"/>
      <point x="393.84" y="1566" type="curve"/>
      <point x="227.84" y="1566" type="line"/>
      <point x="325.334" y="1273"/>
      <point x="353.584" y="900"/>
      <point x="302.595" y="592" type="curve" smooth="yes"/>
      <point x="256.573" y="314"/>
      <point x="136.55" y="36"/>
    </contour>
  </outline>
</glyph>
<glyph name="asterisk" format="2">
  <advance width="960"/>
  <unicode hex="002A"/>
  <outline>
    <contour>
      <point x="430.528" y="652" type="line"/>
      <point x="570.528" y="652" type="line"/>
      <point x="611.504" y="972" type="line"/>
      <point x="853.029" y="800" type="line"/>
      <point x="943.226" y="922" type="line"/>
      <point x="683.728" y="1070" type="line"/>
      <point x="992.229" y="1218" type="line"/>
      <point x="942.757" y="1342" type="line"/>
      <point x="644.282" y="1170" type="line"/>
      <point x="709.258" y="1490" type="line"/>
      <point x="569.258" y="1490" type="line"/>
      <point x="528.282" y="1170" type="line"/>
      <point x="286.757" y="1342" type="line"/>
      <point x="196.229" y="1218" type="line"/>
      <point x="455.728" y="1070" type="line"/>
      <point x="147.226" y="922" type="line"/>
      <point x="197.029" y="800" type="line"/>
      <point x="495.504" y="972" type="line"/>
    </contour>
  </outline>
</glyph>
<glyph name="plus" format="2">
  <advance width="1287"/>
  <unicode hex="002B"/>
  <outline>
    <contour>
      <point x="492" y="102" type="line"/>
      <point x="654" y="102" type="line"/>
      <point x="813" y="1062" type="line"/>
      <point x="651" y="1062" type="line"/>
    </contour>
    <contour>
      <point x="159" y="500" type="line"/>
      <point x="1119" y="500" type="line"/>
      <point x="1146" y="664" type="line"/>
      <point x="186" y="664" type="line"/>
    </contour>
  </outline>
</glyph>
<glyph name="period" format="2">
  <advance width="450"/>
  <unicode hex="002E"/>
  <outline>
    <contour>
      <point x="145" y="-17" type="curve" smooth="yes"/>
      <point x="210" y="-17"/>
      <point x="268" y="32"/>
      <point x="279" y="97" type="curve" smooth="yes"/>
      <point x="291" y="172"/>
      <point x="241" y="233"/>
      <point x="166" y="233" type="curve" smooth="yes"/>
      <point x="101" y="233"/>
      <point x="43" y="184"/>
      <point x="32" y="119" type="curve" smooth="yes"/>
      <point x="20" y="44"/>
      <point x="70" y="-17"/>
    </contour>
  </outline>
</glyph>
<glyph name="slash" format="2">
  <advance width="666"/>
  <unicode hex="002F"/>
  <outline>
    <contour>
      <point x="822.846" y="1560" type="line"/>
      <point x="664.846" y="1560" type="line"/>
      <point x="-110.493" y="-224" type="line"/>
      <point x="47.507" y="-224" type="line"/>
    </contour>
  </outline>
</glyph>
<glyph name="zero" format="2">
  <advance width="1256"/>
  <unicode hex="0030"/>
  <anchor x="664" y="745" name="center"/>
  <anchor x="788" y="1490" name="top"/>
  <outline>
    <contour>
      <point x="537" y="-24" type="curve" smooth="yes"/>
      <point x="867" y="-24"/>
      <point x="1125" y="275"/>
      <point x="1202" y="744" type="curve" smooth="yes"/>
      <point x="1280" y="1215"/>
      <point x="1122" y="1514"/>
      <point x="792" y="1514" type="curve" smooth="yes"/>
      <point x="462" y="1514"/>
      <point x="204" y="1215"/>
      <point x="126" y="744" type="curve" smooth="yes"/>
      <point x="49" y="275"/>
      <point x="207" y="-24"/>
    </contour>
    <contour>
      <point x="564" y="136" type="curve" smooth="yes"/>
      <point x="336" y="136"/>
      <point x="234" y="366"/>
      <point x="296" y="744" type="curve" smooth="yes"/>
      <point x="359" y="1124"/>
      <point x="537" y="1354"/>
      <point x="765" y="1354" type="curve" smooth="yes"/>
      <point x="993" y="1354"/>
      <point x="1095" y="1124"/>
      <point x="1032" y="744" type="curve" smooth="yes"/>
      <point x="970" y="366"/>
      <point x="792" y="136"/>
    </contour>
  </outline>
</glyph>
<glyph name="two" format="2">
  <advance width="1146"/>
  <unicode hex="0032"/>
  <anchor x="669" y="607" name="cross"/>
  <anchor x="725" y="1490" name="top"/>
  <outline>
    <contour>
      <point x="-7" y="0" type="line"/>
      <point x="972" y="0" type="line"/>
      <point x="998" y="160" type="line"/>
      <point x="279" y="160" type="line"/>
      <point x="280" y="162" type="line"/>
      <point x="743" y="528" type="line" smooth="yes"/>
      <point x="992" y="725"/>
      <point x="1107" y="871"/>
      <point x="1138" y="1060" type="curve" smooth="yes"/>
      <point x="1183" y="1331"/>
      <point x="1011" y="1514"/>
      <point x="723" y="1514" type="curve" smooth="yes"/>
      <point x="439" y="1514"/>
      <point x="215" y="1305"/>
      <point x="166" y="1008" type="curve"/>
      <point x="334" y="1008" type="line"/>
      <point x="369" y="1220"/>
      <point x="528" y="1354"/>
      <point x="720" y="1354" type="curve" smooth="yes"/>
      <point x="918" y="1354"/>
      <point x="999" y="1244"/>
      <point x="967" y="1054" type="curve" smooth="yes"/>
      <point x="943" y="904"/>
      <point x="846" y="808"/>
      <point x="628" y="635" type="curve" smooth="yes"/>
      <point x="18" y="151" type="line"/>
    </contour>
  </outline>
</glyph>
<glyph name="three" format="2">
  <advance width="1227"/>
  <unicode hex="0033"/>
  <anchor x="776" y="1490" name="top"/>
  <outline>
    <contour>
      <point x="529" y="-24" type="curve" smooth="yes"/>
      <point x="825" y="-24"/>
      <point x="1075" y="159"/>
      <point x="1116" y="404" type="curve" smooth="yes"/>
      <point x="1146" y="588"/>
      <point x="1047" y="735"/>
      <point x="862" y="767" type="curve"/>
      <point x="862" y="770" type="line"/>
      <point x="1037" y="821"/>
      <point x="1161" y="953"/>
      <point x="1187" y="1112" type="curve" smooth="yes"/>
      <point x="1225" y="1339"/>
      <point x="1047" y="1514"/>
      <point x="773" y="1514" type="curve" smooth="yes"/>
      <point x="491" y="1514"/>
      <point x="261" y="1326"/>
      <point x="216" y="1056" type="curve"/>
      <point x="390" y="1056" type="line"/>
      <point x="421" y="1244"/>
      <point x="563" y="1356"/>
      <point x="753" y="1356" type="curve" smooth="yes"/>
      <point x="938" y="1356"/>
      <point x="1035" y="1254"/>
      <point x="1009" y="1102" type="curve" smooth="yes"/>
      <point x="984" y="948"/>
      <point x="837" y="844"/>
      <point x="645" y="844" type="curve" smooth="yes"/>
      <point x="525" y="844" type="line"/>
      <point x="498" y="684" type="line"/>
      <point x="618" y="684" type="line" smooth="yes"/>
      <point x="837" y="684"/>
      <point x="968" y="571"/>
      <point x="940" y="404" type="curve" smooth="yes"/>
      <point x="914" y="245"/>
      <point x="747" y="134"/>
      <point x="543" y="134" type="curve" smooth="yes"/>
      <point x="330" y="134"/>
      <point x="234" y="257"/>
      <point x="268" y="468" type="curve"/>
      <point x="86" y="468" type="line"/>
      <point x="38" y="177"/>
      <point x="221" y="-24"/>
    </contour>
  </outline>
</glyph>
<glyph name="four" format="2">
  <advance width="1265"/>
  <unicode hex="0034"/>
  <outline>
    <contour>
      <point x="116.8" y="360" type="line"/>
      <point x="1277.8" y="360" type="line"/>
      <point x="1306.6" y="520" type="line"/>
      <point x="349.6" y="520" type="line"/>
      <point x="349.96" y="522" type="line"/>
      <point x="1225.2" y="1490" type="line"/>
      <point x="1033.2" y="1490" type="line"/>
      <point x="143.44" y="508" type="line"/>
    </contour>
    <contour>
      <point x="813.0" y="0" type="line"/>
      <point x="985.0" y="0" type="line"/>
      <point x="1152.4" y="930" type="line"/>
      <point x="980.4" y="930" type="line"/>
      <point x="898.3199999999999" y="474" type="line"/>
      <point x="885.72" y="404" type="line"/>
    </contour>
  </outline>
</glyph>
<glyph name="five" format="2">
  <advance width="1180"/>
  <unicode hex="0035"/>
  <outline>
    <contour>
      <point x="518" y="-20" type="curve" smooth="yes"/>
      <point x="816" y="-20"/>
      <point x="1034" y="190"/>
      <point x="1084" y="490" type="curve" smooth="yes"/>
      <point x="1133" y="785"/>
      <point x="963" y="996"/>
      <point x="689" y="996" type="curve" smooth="yes"/>
      <point x="549" y="996"/>
      <point x="441" y="948"/>
      <point x="330" y="847" type="curve"/>
      <point x="328" y="847" type="line"/>
      <point x="444" y="1330" type="line"/>
      <point x="1141" y="1330" type="line"/>
      <point x="1168" y="1490" type="line"/>
      <point x="308" y="1490" type="line"/>
      <point x="117" y="640" type="line"/>
      <point x="290" y="640" type="line"/>
      <point x="357" y="767"/>
      <point x="500" y="834"/>
      <point x="664" y="834" type="curve" smooth="yes"/>
      <point x="849" y="834"/>
      <point x="943" y="689"/>
      <point x="910" y="488" type="curve" smooth="yes"/>
      <point x="876" y="286"/>
      <point x="713" y="140"/>
      <point x="520" y="140" type="curve" smooth="yes"/>
      <point x="338" y="140"/>
      <point x="232" y="263"/>
      <point x="244" y="432" type="curve"/>
      <point x="64" y="432" type="line"/>
      <point x="32" y="174"/>
      <point x="231" y="-20"/>
    </contour>
  </outline>
</glyph>
<glyph name="six" format="2">
  <advance width="1196"/>
  <unicode hex="0036"/>
  <outline>
    <contour>
      <point x="532" y="-24" type="curve" smooth="yes"/>
      <point x="825" y="-24"/>
      <point x="1048" y="182"/>
      <point x="1097" y="476" type="curve" smooth="yes"/>
      <point x="1144" y="759"/>
      <point x="964" y="970"/>
      <point x="695" y="970" type="curve" smooth="yes"/>
      <point x="535" y="970"/>
      <point x="392" y="895"/>
      <point x="305" y="780" type="curve"/>
      <point x="303" y="780" type="line"/>
      <point x="358" y="1113"/>
      <point x="529" y="1354"/>
      <point x="787" y="1354" type="curve" smooth="yes"/>
      <point x="938" y="1354"/>
      <point x="1011" y="1262"/>
      <point x="1015" y="1118" type="curve"/>
      <point x="1191" y="1118" type="line"/>
      <point x="1202" y="1355"/>
      <point x="1038" y="1514"/>
      <point x="779" y="1514" type="curve" smooth="yes"/>
      <point x="405" y="1514"/>
      <point x="198" y="1183"/>
      <point x="115" y="682" type="curve" smooth="yes"/>
      <point x="40" y="232"/>
      <point x="202" y="-24"/>
    </contour>
    <contour>
      <point x="535" y="136" type="curve" smooth="yes"/>
      <point x="365" y="136"/>
      <point x="246" y="287"/>
      <point x="276" y="474" type="curve" smooth="yes"/>
      <point x="309" y="671"/>
      <point x="471" y="810"/>
      <point x="668" y="810" type="curve" smooth="yes"/>
      <point x="839" y="810"/>
      <point x="954" y="664"/>
      <point x="923" y="476" type="curve" smooth="yes"/>
      <point x="892" y="287"/>
      <point x="723" y="136"/>
    </contour>
  </outline>
</glyph>
<glyph name="seven" format="2">
  <advance width="1057"/>
  <unicode hex="0037"/>
  <outline>
    <contour>
      <point x="58" y="0" type="line"/>
      <point x="255" y="0" type="line"/>
      <point x="1138" y="1320" type="line"/>
      <point x="1166" y="1490" type="line"/>
      <point x="210" y="1490" type="line"/>
      <point x="183" y="1330" type="line"/>
      <point x="950" y="1330" type="line"/>
      <point x="950" y="1329" type="line"/>
    </contour>
  </outline>
</glyph>
<glyph name="eight" format="2">
  <advance width="1192"/>
  <unicode hex="0038"/>
  <outline>
    <contour>
      <point x="512" y="-24" type="curve" smooth="yes"/>
      <point x="807" y="-24"/>
      <point x="1038.998" y="151"/>
      <point x="1080" y="396" type="curve" smooth="yes"/>
      <point x="1110" y="582"/>
      <point x="1007" y="736"/>
      <point x="849" y="773" type="curve"/>
      <point x="849" y="775" type="line"/>
      <point x="991" y="811"/>
      <point x="1116" y="953"/>
      <point x="1142" y="1114" type="curve" smooth="yes"/>
      <point x="1180" y="1344"/>
      <point x="1009" y="1514"/>
      <point x="751" y="1514" type="curve" smooth="yes"/>
      <point x="491" y="1514"/>
      <point x="278" y="1344"/>
      <point x="240" y="1114" type="curve" smooth="yes"/>
      <point x="214" y="952"/>
      <point x="286" y="815"/>
      <point x="419" y="779" type="curve"/>
      <point x="419" y="777" type="line"/>
      <point x="249" y="747"/>
      <point x="99" y="584"/>
      <point x="68" y="396" type="curve" smooth="yes"/>
      <point x="26.998" y="151"/>
      <point x="216" y="-24"/>
    </contour>
    <contour>
      <point x="523" y="136" type="curve" smooth="yes"/>
      <point x="323" y="136"/>
      <point x="218" y="242"/>
      <point x="245" y="404" type="curve" smooth="yes"/>
      <point x="273" y="573"/>
      <point x="433" y="692"/>
      <point x="631" y="692" type="curve" smooth="yes"/>
      <point x="822" y="692"/>
      <point x="931" y="571"/>
      <point x="903" y="404" type="curve" smooth="yes"/>
      <point x="876" y="241"/>
      <point x="722" y="136"/>
    </contour>
    <contour>
      <point x="640" y="846" type="curve" smooth="yes"/>
      <point x="475" y="846"/>
      <point x="387" y="950"/>
      <point x="412" y="1102" type="curve" smooth="yes"/>
      <point x="438" y="1251"/>
      <point x="573" y="1356"/>
      <point x="740" y="1356" type="curve" smooth="yes"/>
      <point x="905" y="1356"/>
      <point x="992" y="1254"/>
      <point x="966" y="1102" type="curve" smooth="yes"/>
      <point x="941" y="949"/>
      <point x="804" y="846"/>
    </contour>
  </outline>
</glyph>
<glyph name="nine" format="2">
  <advance width="1196"/>
  <unicode hex="0039"/>
  <outline>
    <contour>
      <point x="484" y="-24" type="curve" smooth="yes"/>
      <point x="858" y="-24"/>
      <point x="1069" y="307"/>
      <point x="1152" y="808" type="curve" smooth="yes"/>
      <point x="1226" y="1258"/>
      <point x="1065" y="1514"/>
      <point x="735" y="1514" type="curve" smooth="yes"/>
      <point x="442" y="1514"/>
      <point x="219" y="1312"/>
      <point x="171" y="1018" type="curve" smooth="yes"/>
      <point x="124" y="735"/>
      <point x="304" y="528"/>
      <point x="573" y="528" type="curve" smooth="yes"/>
      <point x="733" y="528"/>
      <point x="871" y="595"/>
      <point x="958" y="710" type="curve"/>
      <point x="960" y="710" type="line"/>
      <point x="904" y="377"/>
      <point x="741" y="136"/>
      <point x="483" y="136" type="curve" smooth="yes"/>
      <point x="332" y="136"/>
      <point x="248" y="228"/>
      <point x="244" y="372" type="curve"/>
      <point x="68" y="372" type="line"/>
      <point x="56" y="135"/>
      <point x="225" y="-24"/>
    </contour>
    <contour>
      <point x="608" y="688" type="curve" smooth="yes"/>
      <point x="429" y="688"/>
      <point x="313" y="830"/>
      <point x="345" y="1018" type="curve" smooth="yes"/>
      <point x="376" y="1207"/>
      <point x="544" y="1354"/>
      <point x="724" y="1354" type="curve" smooth="yes"/>
      <point x="902" y="1354"/>
      <point x="1022" y="1207"/>
      <point x="991" y="1020" type="curve" smooth="yes"/>
      <point x="960" y="834"/>
      <point x="789" y="688"/>
    </contour>
  </outline>
</glyph>
<glyph name="less" format="2">
  <advance width="1287"/>
  <unicode hex="003C"/>
  <outline>
    <contour>
      <point x="149.338" y="524" type="line"/>
      <point x="1008.205" y="46" type="line"/>
      <point x="1038.998" y="232" type="line"/>
      <point x="376.277" y="578" type="line"/>
      <point x="380.622" y="568" type="line"/>
      <point x="385.257" y="596" type="line"/>
      <point x="377.271" y="584" type="line"/>
      <point x="1154.551" y="930" type="line"/>
      <point x="1185.674" y="1118" type="line"/>
      <point x="168.541" y="640" type="line"/>
    </contour>
  </outline>
</glyph>
<glyph name="equal" format="2">
  <advance width="1287"/>
  <unicode hex="003D"/>
  <outline>
    <contour>
      <point x="225.454" y="718" type="line"/>
      <point x="1121.454" y="718" type="line"/>
      <point x="1147.611" y="876" type="line"/>
      <point x="251.611" y="876" type="line"/>
    </contour>
    <contour>
      <point x="154.268" y="288" type="line"/>
      <point x="1050.268" y="288" type="line"/>
      <point x="1076.425" y="446" type="line"/>
      <point x="180.425" y="446" type="line"/>
    </contour>
  </outline>
</glyph>
<glyph name="greater" format="2">
  <advance width="1287"/>
  <unicode hex="003E"/>
  <outline>
    <contour>
      <point x="1136" y="524" type="line"/>
      <point x="1156" y="640" type="line"/>
      <point x="297" y="1118" type="line"/>
      <point x="266" y="930" type="line"/>
      <point x="928" y="584" type="line"/>
      <point x="924" y="596" type="line"/>
      <point x="920" y="568" type="line"/>
      <point x="927" y="578" type="line"/>
      <point x="150" y="232" type="line"/>
      <point x="119" y="46" type="line"/>
    </contour>
  </outline>
</glyph>
<glyph name="question" format="2">
  <advance width="1072"/>
  <unicode hex="003F"/>
  <outline>
    <contour>
      <point x="405" y="432" type="line"/>
      <point x="579" y="432" type="line"/>
      <point x="589" y="496" type="line" smooth="yes"/>
      <point x="610" y="629"/>
      <point x="657" y="667"/>
      <point x="807" y="760" type="curve" smooth="yes"/>
      <point x="962" y="856"/>
      <point x="1058" y="982"/>
      <point x="1081" y="1126" type="curve" smooth="yes"/>
      <point x="1119" y="1354"/>
      <point x="946" y="1514"/>
      <point x="683" y="1514" type="curve" smooth="yes"/>
      <point x="400" y="1514"/>
      <point x="196" y="1329"/>
      <point x="150" y="1050" type="curve"/>
      <point x="329" y="1050" type="line"/>
      <point x="361" y="1243"/>
      <point x="487" y="1356"/>
      <point x="672" y="1356" type="curve" smooth="yes"/>
      <point x="841" y="1356"/>
      <point x="931" y="1268"/>
      <point x="907" y="1126" type="curve" smooth="yes"/>
      <point x="893" y="1038"/>
      <point x="839" y="951"/>
      <point x="713" y="869" type="curve" smooth="yes"/>
      <point x="560" y="770"/>
      <point x="454" y="733"/>
      <point x="418" y="512" type="curve" smooth="yes"/>
    </contour>
    <contour>
      <point x="417" y="-17" type="curve" smooth="yes"/>
      <point x="487" y="-17"/>
      <point x="551" y="38"/>
      <point x="563" y="108" type="curve" smooth="yes"/>
      <point x="574" y="178"/>
      <point x="529" y="233"/>
      <point x="459" y="233" type="curve" smooth="yes"/>
      <point x="389" y="233"/>
      <point x="324" y="178"/>
      <point x="313" y="108" type="curve" smooth="yes"/>
      <point x="301" y="38"/>
      <point x="347" y="-17"/>
    </contour>
  </outline>
</glyph>
<glyph name="at" format="2">
  <advance width="1994"/>
  <unicode hex="0040"/>
  <outline>
    <contour>
      <point x="861" y="-402" type="curve" smooth="yes"/>
      <point x="1077" y="-402"/>
      <point x="1260" y="-345"/>
      <point x="1347" y="-313" type="curve"/>
      <point x="1319" y="-168" type="line"/>
      <point x="1224" y="-200"/>
      <point x="1058" y="-248"/>
      <point x="871" y="-248" type="curve" smooth="yes"/>
      <point x="407" y="-248"/>
      <point x="181" y="51"/>
      <point x="260" y="527" type="curve" smooth="yes"/>
      <point x="339" y="1004"/>
      <point x="696" y="1304"/>
      <point x="1160" y="1304" type="curve" smooth="yes"/>
      <point x="1602" y="1304"/>
      <point x="1824" y="1019"/>
      <point x="1745" y="544" type="curve" smooth="yes"/>
      <point x="1707" y="312"/>
      <point x="1596" y="188"/>
      <point x="1456" y="188" type="curve" smooth="yes"/>
      <point x="1370" y="188"/>
      <point x="1353" y="241"/>
      <point x="1370" y="342" type="curve" smooth="yes"/>
      <point x="1477" y="992" type="line"/>
      <point x="1317" y="992" type="line"/>
      <point x="1300" y="889" type="line"/>
      <point x="1299" y="889" type="line"/>
      <point x="1270" y="950"/>
      <point x="1193" y="1016"/>
      <point x="1058" y="1016" type="curve" smooth="yes"/>
      <point x="819" y="1016"/>
      <point x="595" y="812"/>
      <point x="548" y="528" type="curve" smooth="yes"/>
      <point x="506" y="271"/>
      <point x="624" y="41"/>
      <point x="887" y="41" type="curve" smooth="yes"/>
      <point x="1044" y="41"/>
      <point x="1153" y="124"/>
      <point x="1204" y="220" type="curve"/>
      <point x="1205" y="220" type="line"/>
      <point x="1207" y="158"/>
      <point x="1237" y="36"/>
      <point x="1436" y="36" type="curve" smooth="yes"/>
      <point x="1687" y="36"/>
      <point x="1855" y="227"/>
      <point x="1908" y="552" type="curve" smooth="yes"/>
      <point x="1999" y="1098"/>
      <point x="1691" y="1458"/>
      <point x="1169" y="1458" type="curve" smooth="yes"/>
      <point x="626" y="1458"/>
      <point x="181" y="1074"/>
      <point x="90" y="527" type="curve" smooth="yes"/>
      <point x="0" y="-18"/>
      <point x="318" y="-402"/>
    </contour>
    <contour>
      <point x="916" y="192" type="curve" smooth="yes"/>
      <point x="747" y="192"/>
      <point x="682" y="311"/>
      <point x="718" y="528" type="curve" smooth="yes"/>
      <point x="754" y="745"/>
      <point x="890" y="864"/>
      <point x="1059" y="864" type="curve" smooth="yes"/>
      <point x="1230" y="864"/>
      <point x="1284" y="743"/>
      <point x="1248" y="528" type="curve" smooth="yes"/>
      <point x="1213" y="313"/>
      <point x="1087" y="192"/>
    </contour>
  </outline>
</glyph>
<glyph name="A" format="2">
  <advance width="1338"/>
  <unicode hex="0041"/>
  <anchor x="585" y="0" name="bottom"/>
  <anchor x="1231" y="0" name="ogonek"/>
  <anchor x="643" y="1490" name="tonos"/>
  <anchor x="832" y="1490" name="top"/>
  <outline>
    <contour>
      <point x="-67" y="0" type="line"/>
      <point x="129" y="0" type="line"/>
      <point x="600" y="898" type="line" smooth="yes"/>
      <point x="662" y="1017"/>
      <point x="731" y="1154"/>
      <point x="851" y="1402" type="curve"/>
      <point x="799" y="1402" type="line"/>
      <point x="837" y="1154"/>
      <point x="861" y="1017"/>
      <point x="883" y="898" type="curve" smooth="yes"/>
      <point x="1047" y="0" type="line"/>
      <point x="1231" y="0" type="line"/>
      <point x="934" y="1490" type="line"/>
      <point x="730" y="1490" type="line"/>
    </contour>
    <contour>
      <point x="286" y="418" type="line"/>
      <point x="1016" y="418" type="line"/>
      <point x="1043" y="578" type="line"/>
      <point x="313" y="578" type="line"/>
    </contour>
  </outline>
</glyph>
<glyph name="B" format="2">
  <advance width="1307"/>
  <unicode hex="0042"/>
  <anchor x="549" y="0" name="bottom"/>
  <anchor x="254" y="419" name="cross"/>
  <anchor x="787" y="1490" name="top"/>
  <anchor x="307" y="1490" name="topl"/>
  <outline>
    <contour>
      <point x="61" y="0" type="line"/>
      <point x="612" y="0" type="line" smooth="yes"/>
      <point x="970" y="0"/>
      <point x="1166" y="157"/>
      <point x="1207" y="407" type="curve" smooth="yes"/>
      <point x="1243" y="625"/>
      <point x="1129" y="741"/>
      <point x="965" y="769" type="curve"/>
      <point x="965" y="770" type="line"/>
      <point x="1125" y="821"/>
      <point x="1230" y="917"/>
      <point x="1258" y="1083" type="curve" smooth="yes"/>
      <point x="1299" y="1331"/>
      <point x="1139" y="1490"/>
      <point x="840" y="1490" type="curve" smooth="yes"/>
      <point x="307" y="1490" type="line"/>
    </contour>
    <contour>
      <point x="267" y="160" type="line"/>
      <point x="353" y="678" type="line"/>
      <point x="734" y="678" type="line" smooth="yes"/>
      <point x="952" y="678"/>
      <point x="1053" y="582"/>
      <point x="1026" y="422" type="curve" smooth="yes"/>
      <point x="998" y="252"/>
      <point x="853" y="160"/>
      <point x="628" y="160" type="curve" smooth="yes"/>
    </contour>
    <contour>
      <point x="379" y="836" type="line"/>
      <point x="461" y="1330" type="line"/>
      <point x="831" y="1330" type="line" smooth="yes"/>
      <point x="1016" y="1330"/>
      <point x="1106" y="1241"/>
      <point x="1082" y="1094" type="curve" smooth="yes"/>
      <point x="1056" y="937"/>
      <point x="924" y="836"/>
      <point x="739" y="836" type="curve" smooth="yes"/>
    </contour>
  </outline>
</glyph>
<glyph name="C" format="2">
  <advance width="1479"/>
  <unicode hex="0043"/>
  <anchor x="671" y="0" name="cedilla"/>
  <anchor x="805" y="745" name="center"/>
  <anchor x="917" y="1490" name="top"/>
  <anchor x="1472" y="1008" name="topr"/>
  <outline>
    <contour>
      <point x="698" y="-24" type="curve" smooth="yes"/>
      <point x="1005" y="-24"/>
      <point x="1280" y="170"/>
      <point x="1385" y="480" type="curve"/>
      <point x="1202" y="480" type="line"/>
      <point x="1115" y="264"/>
      <point x="925" y="144"/>
      <point x="705" y="144" type="curve" smooth="yes"/>
      <point x="440" y="144"/>
      <point x="292" y="321"/>
      <point x="292" y="591" type="curve" smooth="yes"/>
      <point x="292" y="970"/>
      <point x="535" y="1346"/>
      <point x="925" y="1346" type="curve" smooth="yes"/>
      <point x="1137" y="1346"/>
      <point x="1278" y="1225"/>
      <point x="1291" y="1008" type="curve"/>
      <point x="1472" y="1008" type="line"/>
      <point x="1468" y="1319"/>
      <point x="1249" y="1514"/>
      <point x="932" y="1514" type="curve" smooth="yes"/>
      <point x="443" y="1514"/>
      <point x="114" y="1067"/>
      <point x="114" y="589" type="curve" smooth="yes"/>
      <point x="114" y="225"/>
      <point x="334" y="-24"/>
    </contour>
  </outline>
</glyph>
<glyph name="D" format="2">
  <advance width="1413"/>
  <unicode hex="0044"/>
  <anchor x="503" y="0" name="bottom"/>
  <anchor x="387" y="745" name="cross"/>
  <anchor x="744" y="1490" name="top"/>
  <anchor x="308" y="1490" name="topl"/>
  <outline>
    <contour>
      <point x="545" y="0" type="line" smooth="yes"/>
      <point x="999" y="0"/>
      <point x="1282" y="282"/>
      <point x="1359" y="748" type="curve" smooth="yes"/>
      <point x="1435" y="1210"/>
      <point x="1214" y="1490"/>
      <point x="780" y="1490" type="curve" smooth="yes"/>
      <point x="402" y="1490" type="line"/>
      <point x="375" y="1330" type="line"/>
      <point x="789" y="1330" type="line" smooth="yes"/>
      <point x="1139" y="1330"/>
      <point x="1238" y="1108"/>
      <point x="1179" y="748" type="curve" smooth="yes"/>
      <point x="1119" y="384"/>
      <point x="905" y="160"/>
      <point x="535" y="160" type="curve" smooth="yes"/>
      <point x="189" y="160" type="line"/>
      <point x="163" y="0" type="line"/>
    </contour>
    <contour>
      <point x="488" y="1490" type="line"/>
      <point x="308" y="1490" type="line"/>
      <point x="61" y="0" type="line"/>
      <point x="241" y="0" type="line"/>
    </contour>
  </outline>
</glyph>
<glyph name="E" format="2">
  <advance width="1183"/>
  <unicode hex="0045"/>
  <anchor x="545" y="0" name="bottom"/>
  <anchor x="556" y="0" name="cedilla"/>
  <anchor x="1030" y="0" name="ogonek"/>
  <anchor x="308" y="1490" name="tonos"/>
  <anchor x="792" y="1490" name="top"/>
  <outline>
    <contour>
      <point x="61" y="0" type="line"/>
      <point x="1030" y="0" type="line"/>
      <point x="1056" y="160" type="line"/>
      <point x="267" y="160" type="line"/>
      <point x="354" y="683" type="line"/>
      <point x="1085" y="683" type="line"/>
      <point x="1112" y="843" type="line"/>
      <point x="381" y="843" type="line"/>
      <point x="461" y="1330" type="line"/>
      <point x="1250" y="1330" type="line"/>
      <point x="1277" y="1490" type="line"/>
      <point x="308" y="1490" type="line"/>
    </contour>
  </outline>
</glyph>
<glyph name="F" format="2">
  <advance width="1136"/>
  <unicode hex="0046"/>
  <anchor x="151" y="0" name="bottom"/>
  <anchor x="209" y="350" name="cross"/>
  <anchor x="61" y="0" name="lfthook"/>
  <anchor x="777" y="1490" name="top"/>
  <outline>
    <contour>
      <point x="61" y="0" type="line"/>
      <point x="241" y="0" type="line"/>
      <point x="354" y="683" type="line"/>
      <point x="1051" y="683" type="line"/>
      <point x="1078" y="843" type="line"/>
      <point x="381" y="843" type="line"/>
      <point x="461" y="1330" type="line"/>
      <point x="1218" y="1330" type="line"/>
      <point x="1245" y="1490" type="line"/>
      <point x="308" y="1490" type="line"/>
    </contour>
  </outline>
</glyph>
<glyph name="G" format="2">
  <advance width="1521"/>
  <unicode hex="0047"/>
  <anchor x="760.0" y="0" name="bottom"/>
  <anchor x="1222.56" y="392" name="cross"/>
  <anchor x="1028.2" y="1490" name="top"/>
  <anchor x="1572.44" y="1008" name="topr"/>
  <outline>
    <contour>
      <point x="766.68" y="-24" type="curve" smooth="yes"/>
      <point x="1121.68" y="-24"/>
      <point x="1370.3" y="235"/>
      <point x="1417.28" y="496" type="curve" smooth="yes"/>
      <point x="1437.44" y="608" type="line"/>
      <point x="1336.44" y="608" type="line"/>
      <point x="1284.6" y="320"/>
      <point x="1045.92" y="144"/>
      <point x="796.92" y="144" type="curve" smooth="yes"/>
      <point x="498.92" y="144"/>
      <point x="340.2" y="390"/>
      <point x="403.91999999999996" y="744" type="curve" smooth="yes"/>
      <point x="468.0" y="1100"/>
      <point x="715.28" y="1346"/>
      <point x="1013.28" y="1346" type="curve" smooth="yes"/>
      <point x="1232.28" y="1346"/>
      <point x="1380.44" y="1208"/>
      <point x="1390.44" y="1008" type="curve"/>
      <point x="1572.44" y="1008" type="line"/>
      <point x="1574.08" y="1306"/>
      <point x="1359.52" y="1514"/>
      <point x="1043.52" y="1514" type="curve" smooth="yes"/>
      <point x="646.52" y="1514"/>
      <point x="305.1" y="1195"/>
      <point x="223.92" y="744" type="curve" smooth="yes"/>
      <point x="143.28" y="296"/>
      <point x="370.68" y="-24"/>
    </contour>
    <contour>
      <point x="1257.0" y="0" type="line"/>
      <point x="1401.0" y="0" type="line"/>
      <point x="1535.1" y="745" type="line"/>
      <point x="966.1" y="745" type="line"/>
      <point x="937.3" y="585" type="line"/>
      <point x="1332.3" y="585" type="line"/>
      <point x="1277.22" y="279" type="line"/>
    </contour>
  </outline>
</glyph>
<glyph name="H" format="2">
  <advance width="1451"/>
  <unicode hex="0048"/>
  <anchor x="638" y="0" name="bottom"/>
  <anchor x="154" y="0" name="cedilla"/>
  <anchor x="1215" y="0" name="cyrtic"/>
  <anchor x="1035" y="0" name="lfthook"/>
  <anchor x="1217" y="0" name="right"/>
  <anchor x="308" y="1490" name="tonos"/>
  <anchor x="885" y="1490" name="top"/>
  <outline>
    <contour>
      <point x="61" y="0" type="line"/>
      <point x="241" y="0" type="line"/>
      <point x="354" y="683" type="line"/>
      <point x="1148" y="683" type="line"/>
      <point x="1035" y="0" type="line"/>
      <point x="1215" y="0" type="line"/>
      <point x="1462" y="1490" type="line"/>
      <point x="1282" y="1490" type="line"/>
      <point x="1175" y="843" type="line"/>
      <point x="381" y="843" type="line"/>
      <point x="488" y="1490" type="line"/>
      <point x="308" y="1490" type="line"/>
    </contour>
  </outline>
</glyph>
<glyph name="I" format="2">
  <advance width="477"/>
  <unicode hex="0049"/>
  <anchor x="151" y="0" name="bottom"/>
  <anchor x="278" y="768" name="cross"/>
  <anchor x="241" y="0" name="ogonek"/>
  <anchor x="257" y="0" name="right"/>
  <anchor x="308" y="1490" name="tonos"/>
  <anchor x="398" y="1490" name="top"/>
  <outline>
    <contour>
      <point x="548" y="1490" type="line"/>
      <point x="248" y="1490" type="line"/>
      <point x="235" y="1410" type="line"/>
      <point x="295" y="1410" type="line"/>
      <point x="74" y="80" type="line"/>
      <point x="14" y="80" type="line"/>
      <point x="1" y="0" type="line"/>
      <point x="301" y="0" type="line"/>
      <point x="314" y="80" type="line"/>
      <point x="254" y="80" type="line"/>
      <point x="475" y="1410" type="line"/>
      <point x="535" y="1410" type="line"/>
    </contour>
  </outline>
</glyph>
<glyph name="J" format="2">
  <advance width="1096"/>
  <unicode hex="004A"/>
  <anchor x="924" y="884" name="cross"/>
  <anchor x="1025" y="1490" name="top"/>
  <outline>
    <contour>
      <point x="441" y="-20" type="curve" smooth="yes"/>
      <point x="700" y="-20"/>
      <point x="891" y="139"/>
      <point x="938" y="424" type="curve" smooth="yes"/>
      <point x="1115" y="1490" type="line"/>
      <point x="935" y="1490" type="line"/>
      <point x="758" y="424" type="line" smooth="yes"/>
      <point x="727" y="239"/>
      <point x="602" y="140"/>
      <point x="446" y="140" type="curve" smooth="yes"/>
      <point x="311" y="140"/>
      <point x="232" y="214"/>
      <point x="232" y="353" type="curve" smooth="yes"/>
      <point x="232" y="375"/>
      <point x="234" y="399"/>
      <point x="251" y="504" type="curve"/>
      <point x="71" y="504" type="line"/>
      <point x="53" y="393"/>
      <point x="50" y="363"/>
      <point x="50" y="335" type="curve" smooth="yes"/>
      <point x="50" y="106"/>
      <point x="211" y="-20"/>
    </contour>
  </outline>
</glyph>
<glyph name="L" format="2">
  <advance width="1096"/>
  <unicode hex="004C"/>
  <anchor x="497" y="0" name="bottom"/>
  <anchor x="386" y="745" name="cross"/>
  <anchor x="619" y="794" name="dot"/>
  <anchor x="742" y="1490" name="raccent"/>
  <anchor x="398" y="1490" name="top"/>
  <outline>
    <contour>
      <point x="61" y="0" type="line"/>
      <point x="959" y="0" type="line"/>
      <point x="985" y="160" type="line"/>
      <point x="267" y="160" type="line"/>
      <point x="488" y="1490" type="line"/>
      <point x="308" y="1490" type="line"/>
    </contour>
  </outline>
</glyph>
<glyph name="M" format="2">
  <advance width="1756"/>
  <unicode hex="004D"/>
  <anchor x="791" y="0" name="bottom"/>
  <anchor x="1517" y="0" name="cyrtic"/>
  <anchor x="1037" y="1490" name="top"/>
  <outline>
    <contour>
      <point x="61" y="0" type="line"/>
      <point x="239" y="0" type="line"/>
      <point x="381" y="858" type="line" smooth="yes"/>
      <point x="402" y="986"/>
      <point x="426" y="1157"/>
      <point x="447" y="1306" type="curve"/>
      <point x="416" y="1318" type="line"/>
      <point x="456" y="1130"/>
      <point x="493" y="961"/>
      <point x="514" y="869" type="curve" smooth="yes"/>
      <point x="718" y="0" type="line"/>
      <point x="866" y="0" type="line"/>
      <point x="1356" y="858" type="line" smooth="yes"/>
      <point x="1407" y="950"/>
      <point x="1496" y="1118"/>
      <point x="1595" y="1306" type="curve"/>
      <point x="1569" y="1318" type="line"/>
      <point x="1541" y="1169"/>
      <point x="1509" y="998"/>
      <point x="1488" y="870" type="curve" smooth="yes"/>
      <point x="1344" y="0" type="line"/>
      <point x="1521" y="0" type="line"/>
      <point x="1767" y="1490" type="line"/>
      <point x="1520" y="1490" type="line"/>
      <point x="987" y="534" type="line" smooth="yes"/>
      <point x="942" y="448"/>
      <point x="842" y="264"/>
      <point x="803" y="186" type="curve"/>
      <point x="842" y="174" type="line"/>
      <point x="827" y="252"/>
      <point x="788" y="437"/>
      <point x="768" y="523" type="curve" smooth="yes"/>
      <point x="551" y="1490" type="line"/>
      <point x="307" y="1490" type="line"/>
    </contour>
  </outline>
</glyph>
<glyph name="N" format="2">
  <advance width="1455"/>
  <unicode hex="004E"/>
  <anchor x="640" y="0" name="bottom"/>
  <anchor x="61" y="0" name="lfthook"/>
  <anchor x="1219" y="0" name="lfthook2"/>
  <anchor x="887" y="1490" name="top"/>
  <outline>
    <contour>
      <point x="61" y="0" type="line"/>
      <point x="241" y="0" type="line"/>
      <point x="384" y="864" type="line" smooth="yes"/>
      <point x="397" y="940"/>
      <point x="420" y="1099"/>
      <point x="450" y="1332" type="curve"/>
      <point x="429" y="1284" type="line"/>
      <point x="514" y="1085"/>
      <point x="584" y="931"/>
      <point x="617" y="862" type="curve" smooth="yes"/>
      <point x="1026" y="0" type="line"/>
      <point x="1219" y="0" type="line"/>
      <point x="1466" y="1490" type="line"/>
      <point x="1286" y="1490" type="line"/>
      <point x="1126" y="528" type="line" smooth="yes"/>
      <point x="1116" y="466"/>
      <point x="1089" y="279"/>
      <point x="1077" y="174" type="curve"/>
      <point x="1096" y="210" type="line"/>
      <point x="1050" y="325"/>
      <point x="991" y="458"/>
      <point x="962" y="520" type="curve" smooth="yes"/>
      <point x="503" y="1490" type="line"/>
      <point x="308" y="1490" type="line"/>
    </contour>
  </outline>
</glyph>
<glyph name="O" format="2">
  <advance width="1535"/>
  <unicode hex="004F"/>
  <anchor x="680" y="0" name="bottom"/>
  <anchor x="803" y="745" name="center"/>
  <anchor x="1492" y="897" name="ogonek"/>
  <anchor x="384" y="1490" name="tonos"/>
  <anchor x="926" y="1490" name="top"/>
  <anchor x="930" y="1514" name="tophorn"/>
  <outline>
    <contour>
      <point x="686" y="-24" type="curve" smooth="yes"/>
      <point x="1158" y="-24"/>
      <point x="1492" y="426"/>
      <point x="1492" y="897" type="curve" smooth="yes"/>
      <point x="1492" y="1264"/>
      <point x="1270" y="1514"/>
      <point x="920" y="1514" type="curve" smooth="yes"/>
      <point x="445" y="1514"/>
      <point x="114" y="1060"/>
      <point x="114" y="591" type="curve" smooth="yes"/>
      <point x="114" y="226"/>
      <point x="336" y="-24"/>
    </contour>
    <contour>
      <point x="693" y="144" type="curve" smooth="yes"/>
      <point x="462" y="144"/>
      <point x="292" y="301"/>
      <point x="292" y="591" type="curve" smooth="yes"/>
      <point x="292" y="967"/>
      <point x="537" y="1346"/>
      <point x="913" y="1346" type="curve" smooth="yes"/>
      <point x="1143" y="1346"/>
      <point x="1314" y="1189"/>
      <point x="1314" y="897" type="curve" smooth="yes"/>
      <point x="1314" y="519"/>
      <point x="1067" y="144"/>
    </contour>
  </outline>
</glyph>
<glyph name="P" format="2">
  <advance width="1254"/>
  <unicode hex="0050"/>
  <anchor x="274" y="1490" name="tonos"/>
  <anchor x="776" y="1490" name="top"/>
  <anchor x="308" y="1490" name="topl"/>
  <outline>
    <contour>
      <point x="61" y="0" type="line"/>
      <point x="241" y="0" type="line"/>
      <point x="461" y="1330" type="line"/>
      <point x="809" y="1330" type="line" smooth="yes"/>
      <point x="1016" y="1330"/>
      <point x="1125" y="1219"/>
      <point x="1095" y="1038" type="curve" smooth="yes"/>
      <point x="1065" y="857"/>
      <point x="919" y="745"/>
      <point x="712" y="745" type="curve" smooth="yes"/>
      <point x="274" y="745" type="line"/>
      <point x="248" y="585" type="line"/>
      <point x="684" y="585" type="line" smooth="yes"/>
      <point x="995" y="585"/>
      <point x="1227" y="752"/>
      <point x="1273" y="1030" type="curve" smooth="yes"/>
      <point x="1319" y="1308"/>
      <point x="1145" y="1490"/>
      <point x="834" y="1490" type="curve" smooth="yes"/>
      <point x="308" y="1490" type="line"/>
    </contour>
  </outline>
</glyph>
<glyph name="Q" format="2">
  <advance width="1535"/>
  <unicode hex="0051"/>
  <anchor x="680" y="0" name="bottom"/>
  <anchor x="803" y="745" name="center"/>
  <anchor x="1492" y="897" name="ogonek"/>
  <anchor x="384" y="1490" name="tonos"/>
  <anchor x="926" y="1490" name="top"/>
  <anchor x="930" y="1514" name="tophorn"/>
  <outline>
    <contour>
      <point x="727" y="466" type="line"/>
      <point x="924" y="134" type="line"/>
      <point x="957" y="78" type="line"/>
      <point x="1083" y="-140" type="line"/>
      <point x="1265" y="-140" type="line"/>
      <point x="1071" y="190" type="line"/>
      <point x="1039" y="248" type="line"/>
      <point x="909" y="466" type="line"/>
    </contour>
    <component base="O"/>
  </outline>
</glyph>
<glyph name="R" format="2">
  <advance width="1295"/>
  <unicode hex="0052"/>
  <anchor x="564" y="0" name="bottom"/>
  <anchor x="794" y="1490" name="top"/>
  <outline>
    <contour>
      <point x="61" y="0" type="line"/>
      <point x="241" y="0" type="line"/>
      <point x="461" y="1330" type="line"/>
      <point x="828" y="1330" type="line" smooth="yes"/>
      <point x="1035" y="1330"/>
      <point x="1144" y="1227"/>
      <point x="1114" y="1046" type="curve" smooth="yes"/>
      <point x="1084" y="865"/>
      <point x="939" y="745"/>
      <point x="733" y="745" type="curve" smooth="yes"/>
      <point x="284" y="745" type="line"/>
      <point x="258" y="585" type="line"/>
      <point x="697" y="585" type="line" smooth="yes"/>
      <point x="1007" y="585"/>
      <point x="1246" y="759"/>
      <point x="1292" y="1038" type="curve" smooth="yes"/>
      <point x="1338" y="1316"/>
      <point x="1164" y="1490"/>
      <point x="853" y="1490" type="curve" smooth="yes"/>
      <point x="308" y="1490" type="line"/>
    </contour>
    <contour>
      <point x="948" y="0" type="line"/>
      <point x="1138" y="0" type="line"/>
      <point x="883" y="670" type="line"/>
      <point x="699" y="670" type="line"/>
    </contour>
  </outline>
</glyph>
<glyph name="S" format="2">
  <advance width="1259"/>
  <unicode hex="0053"/>
  <anchor x="546" y="0" name="bottom"/>
  <anchor x="546" y="0" name="cedilla"/>
  <anchor x="784" y="1490" name="top"/>
  <outline>
    <contour>
      <point x="559" y="-24" type="curve" smooth="yes"/>
      <point x="878" y="-24"/>
      <point x="1117" y="145"/>
      <point x="1159" y="399" type="curve" smooth="yes"/>
      <point x="1194" y="612"/>
      <point x="1074" y="743"/>
      <point x="797" y="816" type="curve" smooth="yes"/>
      <point x="634" y="859" type="line" smooth="yes"/>
      <point x="428" y="913"/>
      <point x="360" y="975"/>
      <point x="378" y="1086" type="curve" smooth="yes"/>
      <point x="404" y="1239"/>
      <point x="564" y="1349"/>
      <point x="762" y="1349" type="curve" smooth="yes"/>
      <point x="959" y="1349"/>
      <point x="1067" y="1236"/>
      <point x="1048" y="1050" type="curve"/>
      <point x="1224" y="1050" type="line"/>
      <point x="1264" y="1336"/>
      <point x="1090" y="1514"/>
      <point x="775" y="1514" type="curve" smooth="yes"/>
      <point x="469" y="1514"/>
      <point x="244" y="1351"/>
      <point x="203" y="1099" type="curve" smooth="yes"/>
      <point x="168" y="891"/>
      <point x="278" y="773"/>
      <point x="570" y="697" type="curve" smooth="yes"/>
      <point x="731" y="655" type="line" smooth="yes"/>
      <point x="937" y="601"/>
      <point x="1001" y="532"/>
      <point x="981" y="413" type="curve" smooth="yes"/>
      <point x="954" y="248"/>
      <point x="788" y="140"/>
      <point x="565" y="140" type="curve" smooth="yes"/>
      <point x="332" y="140"/>
      <point x="218" y="267"/>
      <point x="253" y="480" type="curve"/>
      <point x="71" y="480" type="line"/>
      <point x="20" y="170"/>
      <point x="210" y="-24"/>
    </contour>
  </outline>
</glyph>
<glyph name="T" format="2">
  <advance width="1251"/>
  <unicode hex="0054"/>
  <anchor x="539" y="0" name="bottom"/>
  <anchor x="629" y="0" name="bottomr"/>
  <anchor x="539" y="0" name="cedilla"/>
  <anchor x="666" y="768" name="cross"/>
  <anchor x="629" y="0" name="cyrtic"/>
  <anchor x="579" y="0" name="right"/>
  <anchor x="786" y="1490" name="top"/>
  <outline>
    <contour>
      <point x="183" y="1330" type="line"/>
      <point x="669" y="1330" type="line"/>
      <point x="449" y="0" type="line"/>
      <point x="629" y="0" type="line"/>
      <point x="849" y="1330" type="line"/>
      <point x="1333" y="1330" type="line"/>
      <point x="1360" y="1490" type="line"/>
      <point x="210" y="1490" type="line"/>
    </contour>
  </outline>
</glyph>
<glyph name="U" format="2">
  <advance width="1440"/>
  <unicode hex="0055"/>
  <anchor x="633" y="0" name="bottom"/>
  <anchor x="1295" y="500" name="ogonek"/>
  <anchor x="717" y="0" name="right"/>
  <anchor x="1279" y="1490" name="rtophorn"/>
  <anchor x="879" y="1490" name="top"/>
  <outline>
    <contour>
      <point x="639" y="-24" type="curve" smooth="yes"/>
      <point x="985" y="-24"/>
      <point x="1244" y="194"/>
      <point x="1295" y="500" type="curve" smooth="yes"/>
      <point x="1459" y="1490" type="line"/>
      <point x="1279" y="1490" type="line"/>
      <point x="1120" y="526" type="line" smooth="yes"/>
      <point x="1084" y="308"/>
      <point x="900" y="144"/>
      <point x="646" y="144" type="curve" smooth="yes"/>
      <point x="402" y="144"/>
      <point x="282" y="296"/>
      <point x="318" y="514" type="curve" smooth="yes"/>
      <point x="479" y="1490" type="line"/>
      <point x="299" y="1490" type="line"/>
      <point x="137" y="512" type="line" smooth="yes"/>
      <point x="86" y="206"/>
      <point x="283" y="-24"/>
    </contour>
  </outline>
</glyph>
<glyph name="V" format="2">
  <advance width="1338"/>
  <unicode hex="0056"/>
  <anchor x="581" y="0" name="bottom"/>
  <anchor x="828" y="1490" name="top"/>
  <outline>
    <contour>
      <point x="482" y="0" type="line"/>
      <point x="686" y="0" type="line"/>
      <point x="1477" y="1490" type="line"/>
      <point x="1279" y="1490" type="line"/>
      <point x="816" y="592" type="line" smooth="yes"/>
      <point x="766" y="494"/>
      <point x="687" y="336"/>
      <point x="567" y="88" type="curve"/>
      <point x="617" y="88" type="line"/>
      <point x="577" y="336"/>
      <point x="551" y="494"/>
      <point x="532" y="592" type="curve" smooth="yes"/>
      <point x="359" y="1490" type="line"/>
      <point x="179" y="1490" type="line"/>
    </contour>
  </outline>
</glyph>
<glyph name="W" format="2">
  <advance width="1944"/>
  <unicode hex="0057"/>
  <anchor x="884" y="0" name="bottom"/>
  <anchor x="1131" y="1490" name="top"/>
  <outline>
    <contour>
      <point x="338" y="0" type="line"/>
      <point x="550" y="0" type="line"/>
      <point x="969" y="960" type="line" smooth="yes"/>
      <point x="1027" y="1093"/>
      <point x="1077" y="1227"/>
      <point x="1127" y="1360" type="curve"/>
      <point x="1089" y="1360" type="line"/>
      <point x="1095" y="1227"/>
      <point x="1102" y="1093"/>
      <point x="1116" y="960" type="curve" smooth="yes"/>
      <point x="1218" y="0" type="line"/>
      <point x="1428" y="0" type="line"/>
      <point x="2083" y="1490" type="line"/>
      <point x="1891" y="1490" type="line"/>
      <point x="1497" y="560" type="line"/>
      <point x="1436" y="416"/>
      <point x="1377" y="272"/>
      <point x="1324" y="128" type="curve"/>
      <point x="1348" y="128" type="line"/>
      <point x="1342" y="272"/>
      <point x="1331" y="416"/>
      <point x="1317" y="560" type="curve"/>
      <point x="1227" y="1490" type="line"/>
      <point x="1019" y="1490" type="line"/>
      <point x="619" y="560" type="line"/>
      <point x="557" y="416"/>
      <point x="499" y="272"/>
      <point x="446" y="128" type="curve"/>
      <point x="467" y="128" type="line"/>
      <point x="462" y="272"/>
      <point x="453" y="416"/>
      <point x="440" y="560" type="curve"/>
      <point x="353" y="1490" type="line"/>
      <point x="179" y="1490" type="line"/>
    </contour>
  </outline>
</glyph>
<glyph name="X" format="2">
  <advance width="1322"/>
  <unicode hex="0058"/>
  <anchor x="574" y="0" name="bottom"/>
  <anchor x="701" y="765" name="cross"/>
  <anchor x="1161" y="0" name="cyrtic"/>
  <anchor x="821" y="1490" name="top"/>
  <outline>
    <contour>
      <point x="-62" y="0" type="line"/>
      <point x="149" y="0" type="line"/>
      <point x="480" y="384" type="line" smooth="yes"/>
      <point x="558" y="475"/>
      <point x="635" y="565"/>
      <point x="711" y="656" type="curve"/>
      <point x="671" y="656" type="line"/>
      <point x="716" y="565"/>
      <point x="761" y="475"/>
      <point x="809" y="384" type="curve" smooth="yes"/>
      <point x="1010" y="0" type="line"/>
      <point x="1210" y="0" type="line"/>
      <point x="773" y="836" type="line"/>
      <point x="751" y="703" type="line"/>
      <point x="1430" y="1490" type="line"/>
      <point x="1227" y="1490" type="line"/>
      <point x="943" y="1168" type="line" smooth="yes"/>
      <point x="859" y="1073"/>
      <point x="780" y="976"/>
      <point x="700" y="880" type="curve"/>
      <point x="729" y="880" type="line"/>
      <point x="682" y="976"/>
      <point x="632" y="1071"/>
      <point x="584" y="1168" type="curve" smooth="yes"/>
      <point x="425" y="1490" type="line"/>
      <point x="217" y="1490" type="line"/>
      <point x="633" y="696" type="line"/>
      <point x="656" y="829" type="line"/>
    </contour>
  </outline>
</glyph>
<glyph name="Y" format="2">
  <advance width="1316"/>
  <unicode hex="0059"/>
  <anchor x="570" y="0" name="bottom"/>
  <anchor x="635" y="392" name="cross"/>
  <anchor x="660" y="0" name="ogonek"/>
  <anchor x="179" y="1490" name="tonos"/>
  <anchor x="817" y="1490" name="top"/>
  <outline>
    <contour>
      <point x="480" y="0" type="line"/>
      <point x="660" y="0" type="line"/>
      <point x="762" y="614" type="line"/>
      <point x="1455" y="1490" type="line"/>
      <point x="1235" y="1490" type="line"/>
      <point x="857" y="1008" type="line" smooth="yes"/>
      <point x="782" y="912"/>
      <point x="710" y="816"/>
      <point x="639" y="720" type="curve"/>
      <point x="716" y="720" type="line"/>
      <point x="676" y="816"/>
      <point x="637" y="912"/>
      <point x="593" y="1008" type="curve" smooth="yes"/>
      <point x="374" y="1490" type="line"/>
      <point x="179" y="1490" type="line"/>
      <point x="582" y="614" type="line"/>
    </contour>
  </outline>
</glyph>
<glyph name="Z" format="2">
  <advance width="1216"/>
  <unicode hex="005A"/>
  <anchor x="521" y="0" name="bottom"/>
  <anchor x="1039" y="0" name="bottomr"/>
  <anchor x="644" y="745" name="cross"/>
  <anchor x="768" y="1490" name="top"/>
  <outline>
    <contour>
      <point x="11" y="0" type="line"/>
      <point x="1039" y="0" type="line"/>
      <point x="1065" y="160" type="line"/>
      <point x="261" y="160" type="line"/>
      <point x="1256" y="1358" type="line"/>
      <point x="1278" y="1490" type="line"/>
      <point x="250" y="1490" type="line"/>
      <point x="223" y="1330" type="line"/>
      <point x="1027" y="1330" type="line"/>
      <point x="33" y="130" type="line"/>
    </contour>
  </outline>
</glyph>
<glyph name="bracketleft" format="2">
  <advance width="612"/>
  <unicode hex="005B"/>
  <anchor x="261.879" y="636" name="cross"/>
  <outline>
    <contour>
      <point x="22.919" y="-294" type="line"/>
      <point x="396.919" y="-294" type="line"/>
      <point x="421.089" y="-148" type="line"/>
      <point x="217.089" y="-148" type="line"/>
      <point x="476.67" y="1420" type="line"/>
      <point x="680.67" y="1420" type="line"/>
      <point x="704.84" y="1566" type="line"/>
      <point x="330.84" y="1566" type="line"/>
    </contour>
  </outline>
</glyph>
<glyph name="backslash" format="2">
  <advance width="666"/>
  <unicode hex="005C"/>
  <outline>
    <contour>
      <point x="369.507" y="-224" type="line"/>
      <point x="527.507" y="-224" type="line"/>
      <point x="342.846" y="1560" type="line"/>
      <point x="184.846" y="1560" type="line"/>
    </contour>
  </outline>
</glyph>
<glyph name="bracketright" format="2">
  <advance width="612"/>
  <unicode hex="005D"/>
  <anchor x="385.879" y="636" name="cross"/>
  <outline>
    <contour>
      <point x="-57.081" y="-294" type="line"/>
      <point x="316.919" y="-294" type="line"/>
      <point x="624.84" y="1566" type="line"/>
      <point x="250.84" y="1566" type="line"/>
      <point x="226.67" y="1420" type="line"/>
      <point x="430.67" y="1420" type="line"/>
      <point x="171.089" y="-148" type="line"/>
      <point x="-32.911" y="-148" type="line"/>
    </contour>
  </outline>
</glyph>
<glyph name="asciicircum" format="2">
  <advance width="896"/>
  <unicode hex="005E"/>
  <outline>
    <contour>
      <point x="560.068" y="1362" type="line"/>
      <point x="547.817" y="1288" type="line"/>
      <point x="599.817" y="1288" type="line"/>
      <point x="612.068" y="1362" type="line"/>
    </contour>
    <contour>
      <point x="97.347" y="814" type="line"/>
      <point x="271.347" y="814" type="line"/>
      <point x="586.784" y="1318" type="line"/>
      <point x="570.784" y="1318" type="line"/>
      <point x="721.347" y="814" type="line"/>
      <point x="893.347" y="814" type="line"/>
      <point x="697.312" y="1442" type="line"/>
      <point x="501.312" y="1442" type="line"/>
    </contour>
  </outline>
</glyph>
<glyph name="underscore" format="2">
  <advance width="931"/>
  <unicode hex="005F"/>
  <anchor x="418" y="242" name="_bottom"/>
  <outline>
    <contour>
      <point x="843" y="0" type="line"/>
      <point x="-87" y="0" type="line"/>
      <point x="-113" y="-160" type="line"/>
      <point x="817" y="-160" type="line"/>
    </contour>
  </outline>
</glyph>
<glyph name="b" format="2">
  <advance width="1157"/>
  <unicode hex="0062"/>
  <anchor x="529" y="0" name="bottom"/>
  <anchor x="418" y="1262" name="cross"/>
  <anchor x="737" y="1262" name="top"/>
  <anchor x="285" y="1490" name="topbar"/>
  <outline>
    <contour>
      <point x="548" y="-20" type="curve" smooth="yes"/>
      <point x="888" y="-20"/>
      <point x="1095" y="318"/>
      <point x="1095" y="647" type="curve" smooth="yes"/>
      <point x="1095" y="906"/>
      <point x="950" y="1076"/>
      <point x="708" y="1076" type="curve" smooth="yes"/>
      <point x="576" y="1076"/>
      <point x="444" y="1025"/>
      <point x="360" y="903" type="curve"/>
      <point x="359" y="903" type="line"/>
      <point x="455" y="1490" type="line"/>
      <point x="285" y="1490" type="line"/>
      <point x="39" y="0" type="line"/>
      <point x="205" y="0" type="line"/>
      <point x="233" y="171" type="line"/>
      <point x="234" y="171" type="line"/>
      <point x="295" y="39"/>
      <point x="406" y="-20"/>
    </contour>
    <contour>
      <point x="526" y="133" type="curve" smooth="yes"/>
      <point x="364" y="133"/>
      <point x="271" y="241"/>
      <point x="271" y="418" type="curve" smooth="yes"/>
      <point x="271" y="659"/>
      <point x="419" y="924"/>
      <point x="678" y="924" type="curve" smooth="yes"/>
      <point x="829" y="924"/>
      <point x="925" y="830"/>
      <point x="925" y="646" type="curve" smooth="yes"/>
      <point x="925" y="393"/>
      <point x="783" y="133"/>
    </contour>
  </outline>
</glyph>
<glyph name="c" format="2">
  <advance width="1070"/>
  <unicode hex="0063"/>
  <anchor x="475" y="0" name="bottom"/>
  <anchor x="473" y="0" name="cedilla"/>
  <anchor x="562" y="528" name="center"/>
  <anchor x="641" y="1056" name="top"/>
  <anchor x="1037" y="712" name="topr"/>
  <outline>
    <contour>
      <point x="481" y="-24" type="curve" smooth="yes"/>
      <point x="719" y="-24"/>
      <point x="913" y="136"/>
      <point x="977" y="344" type="curve"/>
      <point x="802" y="344" type="line"/>
      <point x="747" y="215"/>
      <point x="644" y="130"/>
      <point x="486" y="130" type="curve" smooth="yes"/>
      <point x="319" y="130"/>
      <point x="234" y="239"/>
      <point x="234" y="415" type="curve" smooth="yes"/>
      <point x="234" y="671"/>
      <point x="382" y="926"/>
      <point x="638" y="926" type="curve" smooth="yes"/>
      <point x="794" y="926"/>
      <point x="861" y="836"/>
      <point x="865" y="712" type="curve"/>
      <point x="1037" y="712" type="line"/>
      <point x="1044" y="925"/>
      <point x="883" y="1080"/>
      <point x="643" y="1080" type="curve" smooth="yes"/>
      <point x="289" y="1080"/>
      <point x="62" y="742"/>
      <point x="62" y="411" type="curve" smooth="yes"/>
      <point x="62" y="151"/>
      <point x="224" y="-24"/>
    </contour>
  </outline>
</glyph>
<glyph name="d" format="2">
  <advance width="1157"/>
  <unicode hex="0064"/>
  <anchor x="446" y="0" name="bottom"/>
  <anchor x="944" y="0" name="bottomr"/>
  <anchor x="983" y="1262" name="cross"/>
  <anchor x="1334" y="1490" name="raccent"/>
  <anchor x="635" y="1262" name="top"/>
  <anchor x="1190" y="1490" name="topbar"/>
  <outline>
    <contour>
      <point x="449" y="-20" type="curve" smooth="yes"/>
      <point x="581" y="-20"/>
      <point x="706" y="31"/>
      <point x="802" y="157" type="curve"/>
      <point x="803" y="157" type="line"/>
      <point x="778" y="0" type="line"/>
      <point x="944" y="0" type="line"/>
      <point x="1190" y="1490" type="line"/>
      <point x="1020" y="1490" type="line"/>
      <point x="922" y="895" type="line"/>
      <point x="921" y="895" type="line"/>
      <point x="873" y="1013"/>
      <point x="751" y="1076"/>
      <point x="609" y="1076" type="curve" smooth="yes"/>
      <point x="269" y="1076"/>
      <point x="62" y="739"/>
      <point x="62" y="409" type="curve" smooth="yes"/>
      <point x="62" y="151"/>
      <point x="207" y="-20"/>
    </contour>
    <contour>
      <point x="479" y="133" type="curve" smooth="yes"/>
      <point x="328" y="133"/>
      <point x="232" y="227"/>
      <point x="232" y="410" type="curve" smooth="yes"/>
      <point x="232" y="665"/>
      <point x="376" y="924"/>
      <point x="631" y="924" type="curve" smooth="yes"/>
      <point x="793" y="924"/>
      <point x="886" y="815"/>
      <point x="886" y="638" type="curve" smooth="yes"/>
      <point x="886" y="388"/>
      <point x="732" y="133"/>
    </contour>
  </outline>
</glyph>
<glyph name="e" format="2">
  <advance width="1080"/>
  <unicode hex="0065"/>
  <anchor x="480" y="0" name="bottom"/>
  <anchor x="489" y="0" name="cedilla"/>
  <anchor x="978" y="315" name="ogonek"/>
  <anchor x="644" y="1056" name="top"/>
  <outline>
    <contour>
      <point x="480" y="-24" type="curve" smooth="yes"/>
      <point x="726" y="-24"/>
      <point x="905" y="113"/>
      <point x="978" y="315" type="curve"/>
      <point x="808" y="315" type="line"/>
      <point x="758" y="205"/>
      <point x="644" y="129"/>
      <point x="490" y="129" type="curve" smooth="yes"/>
      <point x="287" y="129"/>
      <point x="234" y="268"/>
      <point x="234" y="417" type="curve" smooth="yes"/>
      <point x="234" y="677"/>
      <point x="353" y="926"/>
      <point x="635" y="926" type="curve" smooth="yes"/>
      <point x="770" y="926"/>
      <point x="840" y="872"/>
      <point x="840" y="783" type="curve" smooth="yes"/>
      <point x="840" y="646"/>
      <point x="702" y="583"/>
      <point x="215" y="583" type="curve"/>
      <point x="191" y="439" type="line"/>
      <point x="745" y="439"/>
      <point x="1011" y="529"/>
      <point x="1011" y="785" type="curve" smooth="yes"/>
      <point x="1011" y="973"/>
      <point x="867" y="1080"/>
      <point x="652" y="1080" type="curve" smooth="yes"/>
      <point x="318" y="1080"/>
      <point x="66" y="820"/>
      <point x="66" y="427" type="curve" smooth="yes"/>
      <point x="66" y="112"/>
      <point x="236" y="-24"/>
    </contour>
  </outline>
</glyph>
<glyph name="f" format="2">
  <advance width="627"/>
  <unicode hex="0066"/>
  <anchor x="327" y="768" name="cross"/>
  <anchor x="548" y="1490" name="top"/>
  <anchor x="203" y="0" name="bottom"/>
  <outline>
    <contour>
      <point x="674" y="1056" type="line"/>
      <point x="102" y="1056" type="line"/>
      <point x="78" y="910" type="line"/>
      <point x="650" y="910" type="line"/>
    </contour>
    <component base="_part.f_base" xOffset="2"/>
  </outline>
</glyph>
<glyph name="g" format="2">
  <advance width="1157"/>
  <unicode hex="0067"/>
  <anchor x="406" y="-432" name="bottom"/>
  <anchor x="957" y="564" name="cross"/>
  <anchor x="640" y="1056" name="top"/>
  <anchor x="1118" y="1056" name="topr"/>
  <outline>
    <contour>
      <point x="419" y="-432" type="curve" smooth="yes"/>
      <point x="659" y="-432"/>
      <point x="892" y="-318"/>
      <point x="943" y="-6" type="curve" smooth="yes"/>
      <point x="1118" y="1056" type="line"/>
      <point x="952" y="1056" type="line"/>
      <point x="925" y="891" type="line"/>
      <point x="924" y="891" type="line"/>
      <point x="872" y="1021"/>
      <point x="751" y="1076"/>
      <point x="609" y="1076" type="curve" smooth="yes"/>
      <point x="269" y="1076"/>
      <point x="62" y="739"/>
      <point x="62" y="409" type="curve" smooth="yes"/>
      <point x="62" y="151"/>
      <point x="207" y="-20"/>
      <point x="449" y="-20" type="curve" smooth="yes"/>
      <point x="583" y="-20"/>
      <point x="701" y="37"/>
      <point x="799" y="160" type="curve"/>
      <point x="800" y="160" type="line"/>
      <point x="777" y="6" type="line" smooth="yes"/>
      <point x="750" y="-174"/>
      <point x="612" y="-282"/>
      <point x="422" y="-282" type="curve" smooth="yes"/>
      <point x="285" y="-282"/>
      <point x="200" y="-226"/>
      <point x="189" y="-112" type="curve"/>
      <point x="19" y="-112" type="line"/>
      <point x="10" y="-320"/>
      <point x="180" y="-432"/>
    </contour>
    <contour>
      <point x="479" y="133" type="curve" smooth="yes"/>
      <point x="328" y="133"/>
      <point x="232" y="227"/>
      <point x="232" y="410" type="curve" smooth="yes"/>
      <point x="232" y="665"/>
      <point x="376" y="924"/>
      <point x="631" y="924" type="curve" smooth="yes"/>
      <point x="793" y="924"/>
      <point x="886" y="815"/>
      <point x="886" y="638" type="curve" smooth="yes"/>
      <point x="886" y="388"/>
      <point x="732" y="133"/>
    </contour>
  </outline>
</glyph>
<glyph name="h" format="2">
  <advance width="1121"/>
  <unicode hex="0068"/>
  <anchor x="473" y="0" name="bottom"/>
  <anchor x="126" y="0" name="cedilla"/>
  <anchor x="418" y="1262" name="cross"/>
  <anchor x="737" y="0" name="lfthook"/>
  <anchor x="371" y="1490" name="top"/>
  <outline>
    <contour>
      <point x="311" y="618" type="line" smooth="yes"/>
      <point x="346" y="831"/>
      <point x="485" y="920"/>
      <point x="639" y="920" type="curve" smooth="yes"/>
      <point x="797" y="920"/>
      <point x="874" y="827"/>
      <point x="844" y="644" type="curve" smooth="yes"/>
      <point x="737" y="0" type="line"/>
      <point x="907" y="0" type="line"/>
      <point x="1016" y="656" type="line" smooth="yes"/>
      <point x="1063" y="937"/>
      <point x="902" y="1076"/>
      <point x="689" y="1076" type="curve" smooth="yes"/>
      <point x="522" y="1076"/>
      <point x="390" y="990"/>
      <point x="289" y="800" type="curve"/>
      <point x="341" y="800" type="line"/>
      <point x="456" y="1490" type="line"/>
      <point x="286" y="1490" type="line"/>
      <point x="39" y="0" type="line"/>
      <point x="209" y="0" type="line"/>
    </contour>
  </outline>
</glyph>
<glyph name="k" format="2">
  <advance width="1039"/>
  <unicode hex="006B"/>
  <anchor x="457" y="0" name="bottom"/>
  <anchor x="371" y="1490" name="top"/>
  <outline>
    <contour>
      <point x="261" y="380" type="line"/>
      <point x="484" y="556" type="line"/>
      <point x="500" y="556" type="line"/>
      <point x="1097" y="1056" type="line"/>
      <point x="877" y="1056" type="line"/>
      <point x="307" y="581" type="line"/>
      <point x="294" y="581" type="line"/>
    </contour>
    <contour>
      <point x="39" y="0" type="line"/>
      <point x="209" y="0" type="line"/>
      <point x="456" y="1490" type="line"/>
      <point x="286" y="1490" type="line"/>
    </contour>
    <contour>
      <point x="740" y="0" type="line"/>
      <point x="956" y="0" type="line"/>
      <point x="535" y="636" type="line"/>
      <point x="396" y="518" type="line"/>
    </contour>
  </outline>
</glyph>
<glyph name="l" format="2">
  <advance width="423"/>
  <unicode hex="006C"/>
  <anchor x="123" y="0" name="bottom"/>
  <anchor x="209" y="0" name="bottomr"/>
  <anchor x="332" y="745" name="centerr"/>
  <anchor x="250" y="768" name="cross"/>
  <anchor x="600" y="1490" name="raccent"/>
  <anchor x="371" y="1490" name="top"/>
  <outline>
    <contour>
      <point x="456" y="1490" type="line"/>
      <point x="286" y="1490" type="line"/>
      <point x="39" y="0" type="line"/>
      <point x="209" y="0" type="line"/>
    </contour>
  </outline>
</glyph>
<glyph name="m" format="2">
  <advance width="1718"/>
  <unicode hex="006D"/>
  <anchor x="772" y="0" name="bottom"/>
  <anchor x="1335" y="0" name="lfthook"/>
  <anchor x="947" y="1056" name="top"/>
  <outline>
    <contour>
      <point x="39" y="0" type="line"/>
      <point x="209" y="0" type="line"/>
      <point x="314" y="638" type="line" smooth="yes"/>
      <point x="344" y="820"/>
      <point x="488" y="920"/>
      <point x="626" y="920" type="curve" smooth="yes"/>
      <point x="749" y="920"/>
      <point x="826" y="842"/>
      <point x="805" y="716" type="curve" smooth="yes"/>
      <point x="687" y="0" type="line"/>
      <point x="857" y="0" type="line"/>
      <point x="967" y="666" type="line" smooth="yes"/>
      <point x="991" y="809"/>
      <point x="1108" y="920"/>
      <point x="1268" y="920" type="curve" smooth="yes"/>
      <point x="1384" y="920"/>
      <point x="1477" y="862"/>
      <point x="1450" y="698" type="curve" smooth="yes"/>
      <point x="1335" y="0" type="line"/>
      <point x="1505" y="0" type="line"/>
      <point x="1618" y="686" type="line" smooth="yes"/>
      <point x="1661" y="946"/>
      <point x="1519" y="1076"/>
      <point x="1321" y="1076" type="curve" smooth="yes"/>
      <point x="1147" y="1076"/>
      <point x="1006" y="975"/>
      <point x="939" y="845" type="curve"/>
      <point x="973" y="834" type="line"/>
      <point x="966" y="961"/>
      <point x="855" y="1076"/>
      <point x="685" y="1076" type="curve" smooth="yes"/>
      <point x="546" y="1076"/>
      <point x="408" y="998"/>
      <point x="322" y="845" type="curve"/>
      <point x="344" y="840" type="line"/>
      <point x="379" y="1056" type="line"/>
      <point x="213" y="1056" type="line"/>
    </contour>
  </outline>
</glyph>
<glyph name="n" format="2">
  <advance width="1120"/>
  <unicode hex="006E"/>
  <anchor x="473" y="0" name="bottom"/>
  <anchor x="907" y="0" name="bottomr"/>
  <anchor x="39" y="0" name="lfthook"/>
  <anchor x="647" y="1056" name="top"/>
  <anchor x="383" y="1056" name="topr"/>
  <outline>
    <contour>
      <point x="310" y="612" type="line" smooth="yes"/>
      <point x="345" y="825"/>
      <point x="490" y="920"/>
      <point x="649" y="920" type="curve" smooth="yes"/>
      <point x="802" y="920"/>
      <point x="874" y="833"/>
      <point x="844" y="650" type="curve" smooth="yes"/>
      <point x="737" y="0" type="line"/>
      <point x="907" y="0" type="line"/>
      <point x="1014" y="650" type="line" smooth="yes"/>
      <point x="1061" y="931"/>
      <point x="904" y="1076"/>
      <point x="686" y="1076" type="curve" smooth="yes"/>
      <point x="524" y="1076"/>
      <point x="389" y="995"/>
      <point x="288" y="805" type="curve"/>
      <point x="337" y="800" type="line"/>
      <point x="379" y="1056" type="line"/>
      <point x="213" y="1056" type="line"/>
      <point x="39" y="0" type="line"/>
      <point x="209" y="0" type="line"/>
    </contour>
  </outline>
</glyph>
<glyph name="o" format="2">
  <advance width="1123"/>
  <unicode hex="006F"/>
  <anchor x="475" y="0" name="bottom"/>
  <anchor x="562" y="528" name="center"/>
  <anchor x="1052" y="526" name="ogonek"/>
  <anchor x="649" y="1056" name="top"/>
  <anchor x="653" y="1080" name="tophorn"/>
  <outline>
    <contour>
      <point x="481" y="-24" type="curve" smooth="yes"/>
      <point x="830" y="-24"/>
      <point x="1060" y="297"/>
      <point x="1060" y="636" type="curve" smooth="yes"/>
      <point x="1060" y="900"/>
      <point x="903" y="1080"/>
      <point x="643" y="1080" type="curve" smooth="yes"/>
      <point x="293" y="1080"/>
      <point x="63" y="753"/>
      <point x="63" y="416" type="curve" smooth="yes"/>
      <point x="63" y="154"/>
      <point x="221" y="-24"/>
    </contour>
    <contour>
      <point x="486" y="130" type="curve" smooth="yes"/>
      <point x="321" y="130"/>
      <point x="233" y="237"/>
      <point x="233" y="412" type="curve" smooth="yes"/>
      <point x="233" y="665"/>
      <point x="383" y="926"/>
      <point x="638" y="926" type="curve" smooth="yes"/>
      <point x="802" y="926"/>
      <point x="891" y="817"/>
      <point x="891" y="640" type="curve" smooth="yes"/>
      <point x="891" y="396"/>
      <point x="749" y="130"/>
    </contour>
  </outline>
</glyph>
<glyph name="p" format="2">
  <advance width="1157"/>
  <unicode hex="0070"/>
  <anchor x="53" y="-418" name="bottom"/>
  <anchor x="98" y="-162" name="cross"/>
  <anchor x="733" y="1056" name="top"/>
  <anchor x="383" y="1056" name="topr"/>
  <outline>
    <contour>
      <point x="-31" y="-418" type="line"/>
      <point x="139" y="-418" type="line"/>
      <point x="236" y="168" type="line"/>
      <point x="237" y="168" type="line"/>
      <point x="293" y="42"/>
      <point x="406" y="-20"/>
      <point x="548" y="-20" type="curve" smooth="yes"/>
      <point x="888" y="-20"/>
      <point x="1095" y="318"/>
      <point x="1095" y="647" type="curve" smooth="yes"/>
      <point x="1095" y="906"/>
      <point x="950" y="1076"/>
      <point x="708" y="1076" type="curve" smooth="yes"/>
      <point x="576" y="1076"/>
      <point x="440" y="1024"/>
      <point x="356" y="903" type="curve"/>
      <point x="355" y="903" type="line"/>
      <point x="379" y="1056" type="line"/>
      <point x="213" y="1056" type="line"/>
    </contour>
    <contour>
      <point x="526" y="133" type="curve" smooth="yes"/>
      <point x="364" y="133"/>
      <point x="271" y="241"/>
      <point x="271" y="418" type="curve" smooth="yes"/>
      <point x="271" y="659"/>
      <point x="419" y="924"/>
      <point x="678" y="924" type="curve" smooth="yes"/>
      <point x="829" y="924"/>
      <point x="925" y="830"/>
      <point x="925" y="646" type="curve" smooth="yes"/>
      <point x="925" y="393"/>
      <point x="783" y="133"/>
    </contour>
  </outline>
</glyph>
<glyph name="q" format="2">
  <advance width="1157"/>
  <unicode hex="0071"/>
  <anchor x="790" y="-418" name="bottom"/>
  <anchor x="831" y="-162" name="cross"/>
  <anchor x="666" y="1056" name="top"/>
  <anchor x="1118" y="1056" name="topr"/>
  <outline>
    <contour>
      <point x="874" y="-418" type="line"/>
      <point x="1118" y="1056" type="line"/>
      <point x="952" y="1056" type="line"/>
      <point x="926" y="895" type="line"/>
      <point x="925" y="895" type="line"/>
      <point x="868" y="1016"/>
      <point x="751" y="1076"/>
      <point x="609" y="1076" type="curve" smooth="yes"/>
      <point x="269" y="1076"/>
      <point x="62" y="739"/>
      <point x="62" y="409" type="curve" smooth="yes"/>
      <point x="62" y="151"/>
      <point x="207" y="-20"/>
      <point x="449" y="-20" type="curve" smooth="yes"/>
      <point x="581" y="-20"/>
      <point x="702" y="31"/>
      <point x="797" y="154" type="curve"/>
      <point x="798" y="154" type="line"/>
      <point x="704" y="-418" type="line"/>
    </contour>
    <contour>
      <point x="479" y="133" type="curve" smooth="yes"/>
      <point x="328" y="133"/>
      <point x="232" y="227"/>
      <point x="232" y="410" type="curve" smooth="yes"/>
      <point x="232" y="665"/>
      <point x="376" y="924"/>
      <point x="631" y="924" type="curve" smooth="yes"/>
      <point x="793" y="924"/>
      <point x="886" y="815"/>
      <point x="886" y="638" type="curve" smooth="yes"/>
      <point x="886" y="388"/>
      <point x="732" y="133"/>
    </contour>
  </outline>
</glyph>
<glyph name="r" format="2">
  <advance width="660"/>
  <unicode hex="0072"/>
  <anchor x="123" y="0" name="bottom"/>
  <anchor x="209" y="0" name="bottomr"/>
  <anchor x="214" y="536" name="cross"/>
  <anchor x="455" y="1056" name="top"/>
  <outline>
    <contour>
      <point x="39" y="0" type="line"/>
      <point x="209" y="0" type="line"/>
      <point x="317" y="650" type="line" smooth="yes"/>
      <point x="346" y="829"/>
      <point x="460" y="908"/>
      <point x="577" y="908" type="curve" smooth="yes"/>
      <point x="626" y="908"/>
      <point x="666" y="900"/>
      <point x="679" y="896" type="curve"/>
      <point x="707" y="1066" type="line"/>
      <point x="694" y="1068"/>
      <point x="667" y="1072"/>
      <point x="636" y="1072" type="curve" smooth="yes"/>
      <point x="504" y="1072"/>
      <point x="409" y="999"/>
      <point x="352" y="890" type="curve"/>
      <point x="348" y="890" type="line"/>
      <point x="376" y="1056" type="line"/>
      <point x="214" y="1056" type="line"/>
    </contour>
  </outline>
</glyph>
<glyph name="s" format="2">
  <advance width="973"/>
  <unicode hex="0073"/>
  <anchor x="400" y="0" name="bottom"/>
  <anchor x="407" y="0" name="cedilla"/>
  <anchor x="41" y="316" name="rthook"/>
  <anchor x="574" y="1056" name="top"/>
  <outline>
    <contour>
      <point x="413" y="-24" type="curve" smooth="yes"/>
      <point x="650" y="-24"/>
      <point x="861" y="105"/>
      <point x="861" y="332" type="curve" smooth="yes"/>
      <point x="861" y="457"/>
      <point x="778" y="538"/>
      <point x="607" y="580" type="curve" smooth="yes"/>
      <point x="444" y="620" type="line" smooth="yes"/>
      <point x="356" y="641"/>
      <point x="307" y="677"/>
      <point x="307" y="739" type="curve" smooth="yes"/>
      <point x="307" y="843"/>
      <point x="414" y="934"/>
      <point x="561" y="934" type="curve" smooth="yes"/>
      <point x="683" y="934"/>
      <point x="761" y="861"/>
      <point x="743" y="740" type="curve"/>
      <point x="909" y="740" type="line"/>
      <point x="911" y="758"/>
      <point x="913" y="774"/>
      <point x="913" y="791" type="curve" smooth="yes"/>
      <point x="913" y="971"/>
      <point x="770" y="1080"/>
      <point x="564" y="1080" type="curve" smooth="yes"/>
      <point x="337" y="1080"/>
      <point x="138" y="943"/>
      <point x="138" y="731" type="curve" smooth="yes"/>
      <point x="138" y="601"/>
      <point x="227" y="514"/>
      <point x="394" y="473" type="curve" smooth="yes"/>
      <point x="558" y="433" type="line" smooth="yes"/>
      <point x="639" y="413"/>
      <point x="690" y="378"/>
      <point x="690" y="317" type="curve" smooth="yes"/>
      <point x="690" y="198"/>
      <point x="557" y="122"/>
      <point x="412" y="122" type="curve" smooth="yes"/>
      <point x="270" y="122"/>
      <point x="201" y="190"/>
      <point x="209" y="316" type="curve"/>
      <point x="41" y="316" type="line"/>
      <point x="39" y="301"/>
      <point x="39" y="287"/>
      <point x="39" y="273" type="curve" smooth="yes"/>
      <point x="39" y="72"/>
      <point x="197" y="-24"/>
    </contour>
  </outline>
</glyph>
<glyph name="t" format="2">
  <advance width="560"/>
  <unicode hex="0074"/>
  <anchor x="310.0" y="0" name="bottom"/>
  <anchor x="324.0" y="0" name="cedilla"/>
  <anchor x="510.0" y="0" name="lfthook"/>
  <anchor x="452.92" y="1344" name="top"/>
  <anchor x="690.2" y="1490" name="raccent"/>
  <outline>
    <contour>
      <point x="700.0799999999999" y="1056" type="line"/>
      <point x="406.08" y="1056" type="line"/>
      <point x="379.79999999999995" y="910" type="line"/>
      <point x="673.8" y="910" type="line"/>
    </contour>
    <component base="_part.t_base" yxScale="0.18" xOffset="-74.0"/>
  </outline>
</glyph>
<glyph name="u" format="2">
  <advance width="1121"/>
  <unicode hex="0075"/>
  <anchor x="481" y="0" name="bottom"/>
  <anchor x="907" y="0" name="ogonek"/>
  <anchor x="912" y="1056" name="rtophorn"/>
  <anchor x="648" y="1056" name="top"/>
  <outline>
    <contour>
      <point x="424" y="-20" type="curve" smooth="yes"/>
      <point x="591" y="-20"/>
      <point x="731" y="66"/>
      <point x="831" y="256" type="curve"/>
      <point x="783" y="256" type="line"/>
      <point x="741" y="0" type="line"/>
      <point x="907" y="0" type="line"/>
      <point x="1082" y="1056" type="line"/>
      <point x="912" y="1056" type="line"/>
      <point x="810" y="438" type="line" smooth="yes"/>
      <point x="775" y="225"/>
      <point x="636" y="136"/>
      <point x="482" y="136" type="curve" smooth="yes"/>
      <point x="324" y="136"/>
      <point x="247" y="229"/>
      <point x="277" y="412" type="curve" smooth="yes"/>
      <point x="384" y="1056" type="line"/>
      <point x="214" y="1056" type="line"/>
      <point x="105" y="400" type="line" smooth="yes"/>
      <point x="58" y="119"/>
      <point x="211" y="-20"/>
    </contour>
  </outline>
</glyph>
<glyph name="v" format="2">
  <advance width="1048"/>
  <unicode hex="0076"/>
  <anchor x="436" y="0" name="bottom"/>
  <anchor x="611" y="1056" name="top"/>
  <outline>
    <contour>
      <point x="350" y="0" type="line"/>
      <point x="522" y="0" type="line"/>
      <point x="1105" y="1056" type="line"/>
      <point x="914" y="1056" type="line"/>
      <point x="588" y="448" type="line" smooth="yes"/>
      <point x="534" y="347"/>
      <point x="478" y="245"/>
      <point x="427" y="144" type="curve"/>
      <point x="474" y="144" type="line"/>
      <point x="457" y="245"/>
      <point x="439" y="347"/>
      <point x="418" y="448" type="curve" smooth="yes"/>
      <point x="291" y="1056" type="line"/>
      <point x="117" y="1056" type="line"/>
    </contour>
  </outline>
</glyph>
<glyph name="w" format="2">
  <advance width="1540"/>
  <unicode hex="0077"/>
  <anchor x="682" y="0" name="bottom"/>
  <anchor x="857" y="1056" name="top"/>
  <outline>
    <contour>
      <point x="270" y="0" type="line"/>
      <point x="444" y="0" type="line"/>
      <point x="665" y="480" type="line" smooth="yes"/>
      <point x="731" y="623"/>
      <point x="794" y="777"/>
      <point x="857" y="921" type="curve"/>
      <point x="812" y="921" type="line"/>
      <point x="828" y="777"/>
      <point x="839" y="623"/>
      <point x="857" y="480" type="curve" smooth="yes"/>
      <point x="916" y="0" type="line"/>
      <point x="1094" y="0" type="line"/>
      <point x="1597" y="1056" type="line"/>
      <point x="1411" y="1056" type="line"/>
      <point x="1198" y="592" type="line" smooth="yes"/>
      <point x="1132" y="449"/>
      <point x="1069" y="297"/>
      <point x="1005" y="153" type="curve"/>
      <point x="1032" y="153" type="line"/>
      <point x="1017" y="297"/>
      <point x="1005" y="449"/>
      <point x="988" y="592" type="curve" smooth="yes"/>
      <point x="933" y="1056" type="line"/>
      <point x="765" y="1056" type="line"/>
      <point x="554" y="592" type="line" smooth="yes"/>
      <point x="489" y="449"/>
      <point x="426" y="297"/>
      <point x="363" y="153" type="curve"/>
      <point x="387" y="153" type="line"/>
      <point x="372" y="297"/>
      <point x="360" y="449"/>
      <point x="343" y="592" type="curve" smooth="yes"/>
      <point x="287" y="1056" type="line"/>
      <point x="117" y="1056" type="line"/>
    </contour>
  </outline>
</glyph>
<glyph name="x" format="2">
  <advance width="1038"/>
  <unicode hex="0078"/>
  <anchor x="432" y="0" name="bottom"/>
  <anchor x="874" y="0" name="cyrtic"/>
  <anchor x="756" y="0" name="right"/>
  <anchor x="607" y="1056" name="top"/>
  <outline>
    <contour>
      <point x="-57" y="0" type="line"/>
      <point x="149" y="0" type="line"/>
      <point x="359" y="240" type="line" smooth="yes"/>
      <point x="429" y="320"/>
      <point x="495" y="398"/>
      <point x="563" y="479" type="curve"/>
      <point x="478" y="479" type="line"/>
      <point x="520" y="398"/>
      <point x="559" y="320"/>
      <point x="602" y="240" type="curve" smooth="yes"/>
      <point x="730" y="0" type="line"/>
      <point x="921" y="0" type="line"/>
      <point x="584" y="605" type="line"/>
      <point x="562" y="473" type="line"/>
      <point x="1078" y="1056" type="line"/>
      <point x="873" y="1056" type="line"/>
      <point x="693" y="848" type="line" smooth="yes"/>
      <point x="622" y="765"/>
      <point x="554" y="684"/>
      <point x="483" y="600" type="curve"/>
      <point x="567" y="600" type="line"/>
      <point x="525" y="684"/>
      <point x="484" y="765"/>
      <point x="441" y="848" type="curve" smooth="yes"/>
      <point x="333" y="1056" type="line"/>
      <point x="141" y="1056" type="line"/>
      <point x="462" y="473" type="line"/>
      <point x="485" y="604" type="line"/>
    </contour>
  </outline>
</glyph>
<glyph name="y" format="2">
  <advance width="1048"/>
  <unicode hex="0079"/>
  <anchor x="709" y="0" name="bottom"/>
  <anchor x="517" y="0" name="ogonek"/>
  <anchor x="603" y="1056" name="top"/>
  <outline>
    <contour>
      <point x="-23" y="-418" type="line"/>
      <point x="12" y="-418"/>
      <point x="46" y="-418"/>
      <point x="81" y="-418" type="curve" smooth="yes"/>
      <point x="209" y="-418"/>
      <point x="335" y="-333"/>
      <point x="411" y="-196" type="curve" smooth="yes"/>
      <point x="1105" y="1056" type="line"/>
      <point x="916" y="1056" type="line"/>
      <point x="591" y="448" type="line" smooth="yes"/>
      <point x="537" y="347"/>
      <point x="483" y="245"/>
      <point x="433" y="144" type="curve"/>
      <point x="478" y="144" type="line"/>
      <point x="461" y="245"/>
      <point x="441" y="347"/>
      <point x="420" y="448" type="curve" smooth="yes"/>
      <point x="293" y="1056" type="line"/>
      <point x="117" y="1056" type="line"/>
      <point x="352" y="9" type="line"/>
      <point x="270" y="-141" type="line" smooth="yes"/>
      <point x="222" y="-229"/>
      <point x="171" y="-268"/>
      <point x="106" y="-268" type="curve" smooth="yes"/>
      <point x="2" y="-268" type="line"/>
    </contour>
  </outline>
</glyph>
<glyph name="z" format="2">
  <advance width="980"/>
  <unicode hex="007A"/>
  <anchor x="402" y="0" name="bottom"/>
  <anchor x="799" y="0" name="bottomr"/>
  <anchor x="517" y="558" name="cross"/>
  <anchor x="576" y="1056" name="top"/>
  <outline>
    <contour>
      <point x="7" y="0" type="line"/>
      <point x="799" y="0" type="line"/>
      <point x="824" y="152" type="line"/>
      <point x="256" y="152" type="line"/>
      <point x="257" y="156" type="line"/>
      <point x="947" y="920" type="line"/>
      <point x="970" y="1056" type="line"/>
      <point x="182" y="1056" type="line"/>
      <point x="157" y="904" type="line"/>
      <point x="727" y="904" type="line"/>
      <point x="726" y="900" type="line"/>
      <point x="29" y="130" type="line"/>
    </contour>
  </outline>
</glyph>
<glyph name="braceleft" format="2">
  <advance width="788"/>
  <unicode hex="007B"/>
  <outline>
    <contour>
      <point x="126.244" y="608" type="line"/>
      <point x="440.244" y="608"/>
      <point x="528.938" y="733"/>
      <point x="553.935" y="884" type="curve" smooth="yes"/>
      <point x="602.276" y="1176" type="line" smooth="yes"/>
      <point x="630.419" y="1346"/>
      <point x="687.67" y="1420"/>
      <point x="856.67" y="1420" type="curve"/>
      <point x="880.84" y="1566" type="line"/>
      <point x="595.84" y="1566"/>
      <point x="482.477" y="1443"/>
      <point x="438.276" y="1176" type="curve" smooth="yes"/>
      <point x="399.537" y="942" type="line" smooth="yes"/>
      <point x="373.215" y="783"/>
      <point x="307.116" y="722"/>
      <point x="145.116" y="722" type="curve"/>
    </contour>
    <contour>
      <point x="572.919" y="-294" type="curve"/>
      <point x="597.089" y="-148" type="line"/>
      <point x="428.089" y="-148"/>
      <point x="395.174" y="-75"/>
      <point x="423.483" y="96" type="curve" smooth="yes"/>
      <point x="471.492" y="386" type="line" smooth="yes"/>
      <point x="496.324" y="536"/>
      <point x="449.515" y="664"/>
      <point x="135.515" y="664" type="curve"/>
      <point x="116.642" y="550" type="line"/>
      <point x="278.477" y="549"/>
      <point x="324.212" y="487"/>
      <point x="297.89" y="328" type="curve" smooth="yes"/>
      <point x="259.483" y="96" type="line" smooth="yes"/>
      <point x="215.116" y="-172"/>
      <point x="287.919" y="-294"/>
    </contour>
    <contour>
      <point x="116.477" y="549" type="line"/>
      <point x="290.477" y="549" type="line"/>
      <point x="319.282" y="723" type="line"/>
      <point x="145.282" y="723" type="line"/>
    </contour>
  </outline>
</glyph>
<glyph name="bar" format="2">
  <advance width="606"/>
  <unicode hex="007C"/>
  <outline>
    <contour>
      <point x="614.722" y="1970" type="line"/>
      <point x="468.722" y="1970" type="line"/>
      <point x="63.127" y="-480" type="line"/>
      <point x="209.127" y="-480" type="line"/>
    </contour>
  </outline>
</glyph>
<glyph name="braceright" format="2">
  <advance width="788"/>
  <unicode hex="007D"/>
  <outline>
    <contour>
      <point x="688.244" y="608" type="curve"/>
      <point x="707.116" y="722" type="line"/>
      <point x="545.116" y="722"/>
      <point x="499.215" y="783"/>
      <point x="525.537" y="942" type="curve" smooth="yes"/>
      <point x="564.276" y="1176" type="line" smooth="yes"/>
      <point x="608.477" y="1443"/>
      <point x="535.84" y="1566"/>
      <point x="250.84" y="1566" type="curve"/>
      <point x="226.67" y="1420" type="line"/>
      <point x="395.67" y="1420"/>
      <point x="428.419" y="1346"/>
      <point x="400.276" y="1176" type="curve" smooth="yes"/>
      <point x="351.935" y="884" type="line" smooth="yes"/>
      <point x="326.938" y="733"/>
      <point x="374.244" y="608"/>
    </contour>
    <contour>
      <point x="-57.081" y="-294" type="line"/>
      <point x="227.919" y="-294"/>
      <point x="341.116" y="-172"/>
      <point x="385.483" y="96" type="curve" smooth="yes"/>
      <point x="423.89" y="328" type="line" smooth="yes"/>
      <point x="450.212" y="487"/>
      <point x="516.477" y="549"/>
      <point x="678.642" y="550" type="curve"/>
      <point x="697.515" y="664" type="line"/>
      <point x="383.515" y="664"/>
      <point x="294.324" y="536"/>
      <point x="269.492" y="386" type="curve" smooth="yes"/>
      <point x="221.483" y="96" type="line" smooth="yes"/>
      <point x="193.174" y="-75"/>
      <point x="136.089" y="-148"/>
      <point x="-32.911" y="-148" type="curve"/>
    </contour>
    <contour>
      <point x="678.642" y="550" type="line"/>
      <point x="707.116" y="722" type="line"/>
      <point x="533.282" y="723" type="line"/>
      <point x="504.477" y="549" type="line"/>
    </contour>
  </outline>
</glyph>
<glyph name="asciitilde" format="2">
  <advance width="1287"/>
  <unicode hex="007E"/>
  <outline>
    <contour>
      <point x="121.763" y="442" type="curve"/>
      <point x="279.763" y="442" type="line"/>
      <point x="298.788" y="569"/>
      <point x="364.231" y="620"/>
      <point x="443.231" y="620" type="curve" smooth="yes"/>
      <point x="494.231" y="620"/>
      <point x="524.423" y="597"/>
      <point x="585.324" y="536" type="curve" smooth="yes"/>
      <point x="676.928" y="443"/>
      <point x="740.975" y="401"/>
      <point x="841.141" y="402" type="curve" smooth="yes"/>
      <point x="987.975" y="401"/>
      <point x="1147.537" y="495"/>
      <point x="1184.434" y="736" type="curve"/>
      <point x="1026.434" y="736" type="line"/>
      <point x="1009.231" y="620"/>
      <point x="946.132" y="559"/>
      <point x="862.966" y="558" type="curve" smooth="yes"/>
      <point x="812.132" y="559"/>
      <point x="780.774" y="581"/>
      <point x="720.873" y="642" type="curve" smooth="yes"/>
      <point x="629.269" y="735"/>
      <point x="565.222" y="777"/>
      <point x="465.056" y="776" type="curve" smooth="yes"/>
      <point x="317.222" y="777"/>
      <point x="157.826" y="684"/>
    </contour>
  </outline>
</glyph>
<glyph name="exclamdown" format="2">
  <advance width="462"/>
  <unicode hex="00A1"/>
  <outline>
    <contour>
      <point x="-24" y="-418" type="line"/>
      <point x="174" y="-418" type="line"/>
      <point x="337" y="654" type="line"/>
      <point x="167" y="654" type="line"/>
    </contour>
    <contour>
      <point x="278" y="818" type="curve" smooth="yes"/>
      <point x="350" y="818"/>
      <point x="420" y="877"/>
      <point x="432" y="948" type="curve" smooth="yes"/>
      <point x="444" y="1021"/>
      <point x="394" y="1080"/>
      <point x="322" y="1080" type="curve" smooth="yes"/>
      <point x="250" y="1080"/>
      <point x="182" y="1021"/>
      <point x="170" y="948" type="curve" smooth="yes"/>
      <point x="158" y="877"/>
      <point x="206" y="818"/>
    </contour>
  </outline>
</glyph>
<glyph name="cent" format="2">
  <advance width="1070"/>
  <unicode hex="00A2"/>
  <anchor x="510" y="216" name="bottom"/>
  <anchor x="508" y="216" name="cedilla"/>
  <anchor x="597" y="744" name="center"/>
  <anchor x="676" y="1272" name="top"/>
  <anchor x="1072" y="928" name="topr"/>
  <outline>
    <contour>
      <point x="397" y="0" type="line"/>
      <point x="543" y="0" type="line"/>
      <point x="790" y="1490" type="line"/>
      <point x="644" y="1490" type="line"/>
    </contour>
    <component base="c" xOffset="35" yOffset="216"/>
  </outline>
</glyph>
<glyph name="sterling" format="2">
  <advance width="1193"/>
  <unicode hex="00A3"/>
  <outline>
    <contour>
      <point x="12" y="112" type="line"/>
      <point x="201" y="112"/>
      <point x="367" y="138"/>
      <point x="395" y="366" type="curve" smooth="yes"/>
      <point x="480" y="1058" type="line" smooth="yes"/>
      <point x="502" y="1238"/>
      <point x="630" y="1350"/>
      <point x="808" y="1350" type="curve" smooth="yes"/>
      <point x="970" y="1350"/>
      <point x="1054" y="1237"/>
      <point x="1024" y="1056" type="curve"/>
      <point x="1194" y="1056" type="line"/>
      <point x="1238" y="1323"/>
      <point x="1074" y="1510"/>
      <point x="819" y="1510" type="curve" smooth="yes"/>
      <point x="547" y="1510"/>
      <point x="342" y="1322"/>
      <point x="309" y="1054" type="curve" smooth="yes"/>
      <point x="224" y="362" type="line" smooth="yes"/>
      <point x="206" y="216"/>
      <point x="127" y="160"/>
      <point x="19" y="160" type="curve"/>
    </contour>
    <contour>
      <point x="-7" y="0" type="line"/>
      <point x="765" y="0" type="line" smooth="yes"/>
      <point x="940" y="0"/>
      <point x="1032" y="87"/>
      <point x="1062" y="262" type="curve" smooth="yes"/>
      <point x="1070" y="309" type="line"/>
      <point x="904" y="309" type="line"/>
      <point x="894" y="246" type="line" smooth="yes"/>
      <point x="884" y="184"/>
      <point x="855" y="160"/>
      <point x="793" y="160" type="curve" smooth="yes"/>
      <point x="19" y="160" type="line"/>
    </contour>
    <contour>
      <point x="104" y="672" type="line"/>
      <point x="866" y="672" type="line"/>
      <point x="890" y="818" type="line"/>
      <point x="128" y="818" type="line"/>
    </contour>
  </outline>
</glyph>
<glyph name="currency" format="2">
  <advance width="1416"/>
  <unicode hex="00A4"/>
  <outline>
    <contour>
      <point x="613.279" y="-20" type="curve" smooth="yes"/>
      <point x="942.279" y="-20"/>
      <point x="1254.474" y="253"/>
      <point x="1313.244" y="608" type="curve" smooth="yes"/>
      <point x="1372.014" y="963"/>
      <point x="1149.712" y="1233"/>
      <point x="820.878" y="1234" type="curve" smooth="yes"/>
      <point x="491.712" y="1233"/>
      <point x="183.014" y="963"/>
      <point x="123.244" y="608" type="curve"/>
      <point x="65.474" y="253"/>
      <point x="284.279" y="-20"/>
    </contour>
    <contour>
      <point x="639.767" y="140" type="curve" smooth="yes"/>
      <point x="400.767" y="140"/>
      <point x="241.863" y="352"/>
      <point x="283.244" y="608" type="curve"/>
      <point x="327.121" y="867"/>
      <point x="555.721" y="1076"/>
      <point x="794.721" y="1076" type="curve" smooth="yes"/>
      <point x="1033.721" y="1076"/>
      <point x="1191.121" y="867"/>
      <point x="1147.244" y="608" type="curve" smooth="yes"/>
      <point x="1105.863" y="352"/>
      <point x="878.767" y="140"/>
    </contour>
    <contour>
      <point x="1191.888" y="926" type="line"/>
      <point x="1429.992" y="1132" type="line"/>
      <point x="1330.189" y="1254" type="line"/>
      <point x="1096.085" y="1048" type="line"/>
    </contour>
    <contour>
      <point x="1120.272" y="-14" type="line"/>
      <point x="1260.469" y="108" type="line"/>
      <point x="1090.241" y="312" type="line"/>
      <point x="954.376" y="192" type="line"/>
    </contour>
    <contour>
      <point x="114.272" y="-14" type="line"/>
      <point x="352.376" y="192" type="line"/>
      <point x="252.241" y="312" type="line"/>
      <point x="18.469" y="108" type="line"/>
    </contour>
    <contour>
      <point x="353.888" y="926" type="line"/>
      <point x="494.085" y="1048" type="line"/>
      <point x="324.189" y="1254" type="line"/>
      <point x="187.992" y="1132" type="line"/>
    </contour>
  </outline>
</glyph>
<glyph name="yen" format="2">
  <advance width="1058"/>
  <unicode hex="00A5"/>
  <outline>
    <contour>
      <point x="357.258" y="1490" type="line"/>
      <point x="157.258" y="1490" type="line"/>
      <point x="452.251" y="602" type="line"/>
      <point x="599.852" y="660" type="line"/>
    </contour>
    <contour>
      <point x="501.852" y="660" type="line"/>
      <point x="632.251" y="602" type="line"/>
      <point x="1221.258" y="1490" type="line"/>
      <point x="1021.258" y="1490" type="line"/>
    </contour>
    <contour>
      <point x="662.049" y="782" type="line"/>
      <point x="482.049" y="782" type="line"/>
      <point x="352.59" y="0" type="line"/>
      <point x="532.59" y="0" type="line"/>
    </contour>
    <contour>
      <point x="981.427" y="742" type="line"/>
      <point x="149.427" y="742" type="line"/>
      <point x="127.575" y="610" type="line"/>
      <point x="959.575" y="610" type="line"/>
    </contour>
    <contour>
      <point x="933.749" y="454" type="line"/>
      <point x="101.749" y="454" type="line"/>
      <point x="79.897" y="322" type="line"/>
      <point x="911.897" y="322" type="line"/>
    </contour>
  </outline>
</glyph>
<glyph name="brokenbar" format="2">
  <advance width="480"/>
  <unicode hex="00A6"/>
  <outline>
    <contour>
      <point x="139.141" y="402" type="line"/>
      <point x="26.236" y="-280" type="line"/>
      <point x="186.236" y="-280" type="line"/>
      <point x="299.141" y="402" type="line"/>
    </contour>
    <contour>
      <point x="479.258" y="1490" type="line"/>
      <point x="319.258" y="1490" type="line"/>
      <point x="207.016" y="812" type="line"/>
      <point x="367.016" y="812" type="line"/>
    </contour>
  </outline>
</glyph>
<glyph name="section" format="2">
  <advance width="1100"/>
  <unicode hex="00A7"/>
  <outline>
    <contour>
      <point x="394.004" y="-302" type="curve" smooth="yes"/>
      <point x="628.004" y="-302"/>
      <point x="800" y="-181"/>
      <point x="831" y="8" type="curve" smooth="yes"/>
      <point x="847" y="105"/>
      <point x="821" y="185"/>
      <point x="759" y="249" type="curve"/>
      <point x="759" y="250" type="line"/>
      <point x="883" y="268"/>
      <point x="986" y="389"/>
      <point x="1007" y="512" type="curve" smooth="yes"/>
      <point x="1027" y="633"/>
      <point x="966" y="752"/>
      <point x="847" y="830" type="curve" smooth="yes"/>
      <point x="593" y="996" type="line" smooth="yes"/>
      <point x="530" y="1037"/>
      <point x="451" y="1091"/>
      <point x="467.997" y="1196" type="curve" smooth="yes"/>
      <point x="484" y="1294"/>
      <point x="570" y="1356"/>
      <point x="690" y="1356" type="curve" smooth="yes"/>
      <point x="823" y="1356"/>
      <point x="886" y="1280"/>
      <point x="865" y="1154" type="curve"/>
      <point x="1035" y="1154" type="line"/>
      <point x="1072" y="1375"/>
      <point x="951" y="1510"/>
      <point x="716" y="1510" type="curve" smooth="yes"/>
      <point x="495" y="1510"/>
      <point x="328" y="1391"/>
      <point x="296" y="1199" type="curve" smooth="yes"/>
      <point x="280" y="1097"/>
      <point x="310" y="1032"/>
      <point x="365" y="963" type="curve"/>
      <point x="365" y="962" type="line"/>
      <point x="234" y="946"/>
      <point x="137" y="816"/>
      <point x="118" y="698" type="curve" smooth="yes"/>
      <point x="97" y="574"/>
      <point x="158.994" y="453"/>
      <point x="278" y="376" type="curve" smooth="yes"/>
      <point x="533" y="212" type="line" smooth="yes"/>
      <point x="594" y="173"/>
      <point x="674" y="121"/>
      <point x="656" y="12" type="curve" smooth="yes"/>
      <point x="639" y="-93"/>
      <point x="547" y="-148"/>
      <point x="419" y="-148" type="curve" smooth="yes"/>
      <point x="275" y="-148"/>
      <point x="203" y="-79"/>
      <point x="225" y="52" type="curve"/>
      <point x="53" y="52" type="line"/>
      <point x="16" y="-169"/>
      <point x="148.004" y="-302"/>
    </contour>
    <contour>
      <point x="630" y="350" type="curve" smooth="yes"/>
      <point x="386" y="506" type="line" smooth="yes"/>
      <point x="298" y="562"/>
      <point x="266" y="629"/>
      <point x="279" y="709" type="curve" smooth="yes"/>
      <point x="301" y="839"/>
      <point x="424" y="903"/>
      <point x="483" y="866" type="curve" smooth="yes"/>
      <point x="742" y="702" type="line" smooth="yes"/>
      <point x="823" y="651"/>
      <point x="859" y="586"/>
      <point x="846" y="505" type="curve" smooth="yes"/>
      <point x="824" y="372"/>
      <point x="686" y="314"/>
    </contour>
  </outline>
</glyph>
<glyph name="copyright" format="2">
  <advance width="1812"/>
  <unicode hex="00A9"/>
  <outline>
    <contour>
      <point x="515" y="744" type="curve" smooth="yes"/>
      <point x="476" y="506"/>
      <point x="645" y="312"/>
      <point x="884" y="312" type="curve" smooth="yes"/>
      <point x="1091" y="312"/>
      <point x="1265" y="458"/>
      <point x="1324" y="652" type="curve"/>
      <point x="1148" y="652" type="line"/>
      <point x="1111" y="552"/>
      <point x="1016" y="482"/>
      <point x="904" y="482" type="curve" smooth="yes"/>
      <point x="759" y="482"/>
      <point x="659" y="599"/>
      <point x="683" y="744" type="curve" smooth="yes"/>
      <point x="707" y="890"/>
      <point x="846" y="1008"/>
      <point x="991" y="1008" type="curve" smooth="yes"/>
      <point x="1103" y="1008"/>
      <point x="1191" y="937"/>
      <point x="1195" y="838" type="curve"/>
      <point x="1371" y="838" type="line"/>
      <point x="1375" y="1031"/>
      <point x="1218" y="1176"/>
      <point x="1011" y="1176" type="curve" smooth="yes"/>
      <point x="772" y="1176"/>
      <point x="555" y="983"/>
    </contour>
    <component base="circlewhite"/>
  </outline>
</glyph>
<glyph name="ordfeminine" format="2">
  <advance width="864"/>
  <unicode hex="00AA"/>
  <anchor x="448" y="653" name="bottom"/>
  <anchor x="789" y="653" name="ogonek"/>
  <anchor x="588" y="1498" name="top"/>
  <outline>
    <contour>
      <point x="372" y="640" type="curve" smooth="yes"/>
      <point x="519" y="640"/>
      <point x="598" y="706"/>
      <point x="644" y="773" type="curve"/>
      <point x="648" y="773" type="line"/>
      <point x="628" y="653" type="line"/>
      <point x="789" y="653" type="line"/>
      <point x="885" y="1233" type="line" smooth="yes"/>
      <point x="913" y="1403"/>
      <point x="805" y="1514"/>
      <point x="598" y="1514" type="curve" smooth="yes"/>
      <point x="388" y="1514"/>
      <point x="233" y="1400"/>
      <point x="198" y="1241" type="curve"/>
      <point x="360" y="1241" type="line"/>
      <point x="379" y="1319"/>
      <point x="463" y="1379"/>
      <point x="573" y="1379" type="curve" smooth="yes"/>
      <point x="682" y="1379"/>
      <point x="737" y="1319"/>
      <point x="723" y="1235" type="curve" smooth="yes"/>
      <point x="722" y="1228" type="line" smooth="yes"/>
      <point x="712" y="1165"/>
      <point x="656" y="1168"/>
      <point x="498" y="1149" type="curve" smooth="yes"/>
      <point x="324" y="1128"/>
      <point x="153" y="1088"/>
      <point x="121" y="895" type="curve" smooth="yes"/>
      <point x="93" y="726"/>
      <point x="205" y="640"/>
    </contour>
    <contour>
      <point x="426" y="773" type="curve" smooth="yes"/>
      <point x="327" y="773"/>
      <point x="271" y="817"/>
      <point x="284" y="891" type="curve" smooth="yes"/>
      <point x="298" y="979"/>
      <point x="389" y="1011"/>
      <point x="481" y="1024" type="curve" smooth="yes"/>
      <point x="579" y="1038"/>
      <point x="671" y="1052"/>
      <point x="696" y="1070" type="curve"/>
      <point x="680" y="970" type="line" smooth="yes"/>
      <point x="662" y="865"/>
      <point x="578" y="773"/>
    </contour>
  </outline>
</glyph>
<glyph name="logicalnot" format="2">
  <advance width="1287"/>
  <unicode hex="00AC"/>
  <outline>
    <contour>
      <point x="847" y="315" type="line"/>
      <point x="1009" y="315" type="line"/>
      <point x="1080" y="745" type="line"/>
      <point x="244" y="745" type="line"/>
      <point x="219" y="589" type="line"/>
      <point x="893" y="589" type="line"/>
    </contour>
  </outline>
</glyph>
<glyph name="registered" format="2">
  <advance width="1292"/>
  <unicode hex="00AE"/>
  <outline>
    <contour>
      <point x="615" y="346" type="curve" smooth="yes"/>
      <point x="934" y="346"/>
      <point x="1240" y="608"/>
      <point x="1294" y="928" type="curve" smooth="yes"/>
      <point x="1347" y="1248"/>
      <point x="1128" y="1510"/>
      <point x="808" y="1510" type="curve" smooth="yes"/>
      <point x="488" y="1510"/>
      <point x="183" y="1248"/>
      <point x="130" y="928" type="curve" smooth="yes"/>
      <point x="76" y="608"/>
      <point x="294" y="346"/>
    </contour>
    <contour>
      <point x="638" y="486" type="curve" smooth="yes"/>
      <point x="395" y="486"/>
      <point x="229" y="685"/>
      <point x="270" y="928" type="curve" smooth="yes"/>
      <point x="310" y="1171"/>
      <point x="542" y="1370"/>
      <point x="785" y="1370" type="curve" smooth="yes"/>
      <point x="1028" y="1370"/>
      <point x="1194" y="1171"/>
      <point x="1154" y="928" type="curve" smooth="yes"/>
      <point x="1113" y="685"/>
      <point x="881" y="486"/>
    </contour>
    <contour>
      <point x="771" y="663" type="line"/>
      <point x="917" y="663" type="line"/>
      <point x="828" y="906" type="line"/>
      <point x="685" y="906" type="line"/>
    </contour>
    <contour>
      <point x="454" y="663" type="line"/>
      <point x="588" y="663" type="line"/>
      <point x="658" y="1086" type="line"/>
      <point x="748" y="1086" type="line" smooth="yes"/>
      <point x="802" y="1086"/>
      <point x="832" y="1058"/>
      <point x="825" y="1015" type="curve" smooth="yes"/>
      <point x="818" y="973"/>
      <point x="778" y="945"/>
      <point x="724" y="945" type="curve" smooth="yes"/>
      <point x="584" y="945" type="line"/>
      <point x="566" y="836" type="line"/>
      <point x="708" y="836" type="line" smooth="yes"/>
      <point x="843" y="836"/>
      <point x="942" y="905"/>
      <point x="960" y="1015" type="curve" smooth="yes"/>
      <point x="979" y="1128"/>
      <point x="907" y="1199"/>
      <point x="776" y="1199" type="curve" smooth="yes"/>
      <point x="542" y="1199" type="line"/>
    </contour>
  </outline>
</glyph>
<glyph name="degree" format="2">
  <advance width="866"/>
  <unicode hex="00B0"/>
  <outline>
    <contour>
      <point x="485" y="832" type="curve" smooth="yes"/>
      <point x="669" y="832"/>
      <point x="844" y="982"/>
      <point x="874" y="1166" type="curve" smooth="yes"/>
      <point x="905" y="1351"/>
      <point x="779" y="1501"/>
      <point x="596" y="1502" type="curve" smooth="yes"/>
      <point x="410" y="1501"/>
      <point x="236" y="1351"/>
      <point x="204" y="1166" type="curve" smooth="yes"/>
      <point x="175" y="982"/>
      <point x="300" y="832"/>
    </contour>
    <contour>
      <point x="509" y="978" type="curve" smooth="yes"/>
      <point x="404" y="977"/>
      <point x="333" y="1062"/>
      <point x="350" y="1166" type="curve" smooth="yes"/>
      <point x="367" y="1271"/>
      <point x="466" y="1356"/>
      <point x="571" y="1356" type="curve" smooth="yes"/>
      <point x="675" y="1356"/>
      <point x="746" y="1271"/>
      <point x="728" y="1166" type="curve" smooth="yes"/>
      <point x="712" y="1062"/>
      <point x="613" y="977"/>
    </contour>
  </outline>
</glyph>
<glyph name="plusminus" format="2">
  <advance width="1287"/>
  <unicode hex="00B1"/>
  <outline>
    <contour>
      <point x="98.179" y="70" type="line"/>
      <point x="1036.179" y="70" type="line"/>
      <point x="1062.998" y="232" type="line"/>
      <point x="124.998" y="232" type="line"/>
    </contour>
    <contour>
      <point x="195.521" y="658" type="line"/>
      <point x="1133.521" y="658" type="line"/>
      <point x="1160.34" y="820" type="line"/>
      <point x="222.34" y="820" type="line"/>
    </contour>
    <contour>
      <point x="534.188" y="360" type="line"/>
      <point x="696.188" y="360" type="line"/>
      <point x="821.674" y="1118" type="line"/>
      <point x="659.674" y="1118" type="line"/>
    </contour>
  </outline>
</glyph>
<glyph name="two.sups" format="2">
  <advance width="789"/>
  <unicode hex="00B2"/>
  <anchor x="667.24" y="1218" name="cross"/>
  <anchor x="695.48" y="1686" name="top"/>
  <outline>
    <contour>
      <point x="235.32" y="874" type="line"/>
      <point x="869.3199999999999" y="874" type="line"/>
      <point x="894.52" y="1014" type="line"/>
      <point x="496.52" y="1014" type="line"/>
      <point x="496.7" y="1015" type="line"/>
      <point x="718.8" y="1160" type="line" smooth="yes"/>
      <point x="867.26" y="1257"/>
      <point x="947.76" y="1332"/>
      <point x="968.28" y="1446" type="curve" smooth="yes"/>
      <point x="996.0" y="1600"/>
      <point x="882.8199999999999" y="1699"/>
      <point x="701.8199999999999" y="1699" type="curve" smooth="yes"/>
      <point x="506.82" y="1699"/>
      <point x="360.94" y="1583"/>
      <point x="328.9" y="1405" type="curve"/>
      <point x="488.9" y="1405" type="line"/>
      <point x="506.36" y="1502"/>
      <point x="577.8" y="1560"/>
      <point x="676.8" y="1560" type="curve" smooth="yes"/>
      <point x="766.8" y="1560"/>
      <point x="817.16" y="1512"/>
      <point x="803.66" y="1437" type="curve" smooth="yes"/>
      <point x="790.34" y="1363"/>
      <point x="726.42" y="1319"/>
      <point x="630.72" y="1254" type="curve" smooth="yes"/>
      <point x="258.18" y="1001" type="line"/>
    </contour>
  </outline>
</glyph>
<glyph name="three.sups" format="2">
  <advance width="822"/>
  <unicode hex="00B3"/>
  <anchor x="719.48" y="1686" name="top"/>
  <outline>
    <contour>
      <point x="570.98" y="861" type="curve" smooth="yes"/>
      <point x="767.98" y="861"/>
      <point x="925.34" y="963"/>
      <point x="950.54" y="1103" type="curve" smooth="yes"/>
      <point x="967.64" y="1198"/>
      <point x="911.5799999999999" y="1281"/>
      <point x="788.28" y="1296" type="curve"/>
      <point x="788.64" y="1298" type="line"/>
      <point x="894.88" y="1316"/>
      <point x="973.76" y="1382"/>
      <point x="990.14" y="1473" type="curve" smooth="yes"/>
      <point x="1013.9" y="1605"/>
      <point x="898.8199999999999" y="1699"/>
      <point x="718.8199999999999" y="1699" type="curve" smooth="yes"/>
      <point x="527.8199999999999" y="1699"/>
      <point x="383.2" y="1590"/>
      <point x="356.56" y="1442" type="curve"/>
      <point x="520.56" y="1442" type="line"/>
      <point x="534.24" y="1518"/>
      <point x="603.06" y="1567"/>
      <point x="695.06" y="1567" type="curve" smooth="yes"/>
      <point x="784.06" y="1567"/>
      <point x="835.96" y="1522"/>
      <point x="823.72" y="1454" type="curve" smooth="yes"/>
      <point x="812.38" y="1391"/>
      <point x="741.18" y="1351"/>
      <point x="642.18" y="1351" type="curve" smooth="yes"/>
      <point x="563.18" y="1351" type="line"/>
      <point x="540.5" y="1225" type="line"/>
      <point x="619.5" y="1225" type="line" smooth="yes"/>
      <point x="727.5" y="1225"/>
      <point x="793.5799999999999" y="1181"/>
      <point x="781.34" y="1113" type="curve" smooth="yes"/>
      <point x="768.74" y="1043"/>
      <point x="692.28" y="996"/>
      <point x="593.28" y="996" type="curve" smooth="yes"/>
      <point x="487.28" y="996"/>
      <point x="435.18" y="1051"/>
      <point x="451.74" y="1143" type="curve"/>
      <point x="284.74" y="1143" type="line"/>
      <point x="257.02" y="989"/>
      <point x="352.98" y="861"/>
    </contour>
  </outline>
</glyph>
<glyph name="micro" format="2">
  <advance width="1132"/>
  <unicode hex="00B5"/>
  <outline>
    <contour>
      <point x="-31" y="-418" type="line"/>
      <point x="139" y="-418" type="line"/>
      <point x="266" y="349" type="line"/>
      <point x="226" y="349" type="line"/>
      <point x="177" y="54"/>
      <point x="351" y="-18"/>
      <point x="471" y="-18" type="curve" smooth="yes"/>
      <point x="591" y="-18"/>
      <point x="790" y="54"/>
      <point x="839" y="349" type="curve"/>
      <point x="798" y="349" type="line"/>
      <point x="781" y="248" type="line" smooth="yes"/>
      <point x="754" y="86"/>
      <point x="831" y="0"/>
      <point x="1016" y="0" type="curve" smooth="yes"/>
      <point x="1044" y="0" type="line"/>
      <point x="1069" y="148" type="line"/>
      <point x="1041" y="148" type="line" smooth="yes"/>
      <point x="959" y="148"/>
      <point x="935" y="173"/>
      <point x="947" y="248" type="curve" smooth="yes"/>
      <point x="1081" y="1056" type="line"/>
      <point x="911" y="1056" type="line"/>
      <point x="809" y="438" type="line" smooth="yes"/>
      <point x="773" y="225"/>
      <point x="653" y="136"/>
      <point x="499" y="136" type="curve" smooth="yes"/>
      <point x="345" y="136"/>
      <point x="245" y="225"/>
      <point x="281" y="438" type="curve" smooth="yes"/>
      <point x="383" y="1056" type="line"/>
      <point x="213" y="1056" type="line"/>
    </contour>
  </outline>
</glyph>
<glyph name="paragraph" format="2">
  <advance width="1151"/>
  <unicode hex="00B6"/>
  <outline>
    <contour>
      <point x="1119" y="1330" type="line"/>
      <point x="1146" y="1490" type="line"/>
      <point x="716" y="1490" type="line" smooth="yes"/>
      <point x="399" y="1490"/>
      <point x="191" y="1289"/>
      <point x="146" y="1022" type="curve" smooth="yes"/>
      <point x="102" y="751"/>
      <point x="244" y="552"/>
      <point x="560" y="552" type="curve" smooth="yes"/>
      <point x="644" y="552" type="line"/>
      <point x="773" y="1330" type="line"/>
    </contour>
    <contour>
      <point x="733" y="0" type="line"/>
      <point x="915" y="0" type="line"/>
      <point x="1162" y="1490" type="line"/>
      <point x="980" y="1490" type="line"/>
    </contour>
  </outline>
</glyph>
<glyph name="one.sups" format="2">
  <advance width="534"/>
  <unicode hex="00B9"/>
  <outline>
    <contour>
      <point x="737.48" y="1686" type="line"/>
      <point x="579.48" y="1686" type="line"/>
      <point x="334.62" y="1559" type="line"/>
      <point x="307.26" y="1407" type="line"/>
      <point x="540.86" y="1527" type="line"/>
      <point x="541.86" y="1527" type="line"/>
      <point x="424.32" y="874" type="line"/>
      <point x="591.3199999999999" y="874" type="line"/>
    </contour>
  </outline>
</glyph>
<glyph name="ordmasculine" format="2">
  <advance width="913"/>
  <unicode hex="00BA"/>
  <anchor x="476" y="653" name="bottom"/>
  <anchor x="546" y="1075" name="center"/>
  <anchor x="949" y="1074" name="ogonek"/>
  <anchor x="616" y="1498" name="top"/>
  <anchor x="619" y="1517" name="tophorn"/>
  <outline>
    <contour>
      <point x="473" y="634" type="curve" smooth="yes"/>
      <point x="714" y="634"/>
      <point x="906" y="815"/>
      <point x="949" y="1074" type="curve" smooth="yes"/>
      <point x="992.008" y="1335"/>
      <point x="860" y="1517"/>
      <point x="619" y="1517" type="curve" smooth="yes"/>
      <point x="379" y="1517"/>
      <point x="187.008" y="1335"/>
      <point x="144" y="1074" type="curve" smooth="yes"/>
      <point x="101" y="815"/>
      <point x="233" y="634"/>
    </contour>
    <contour>
      <point x="496" y="776" type="curve" smooth="yes"/>
      <point x="349" y="776"/>
      <point x="279" y="892"/>
      <point x="309" y="1074" type="curve" smooth="yes"/>
      <point x="339" y="1258"/>
      <point x="450" y="1375"/>
      <point x="596" y="1375" type="curve" smooth="yes"/>
      <point x="743" y="1375"/>
      <point x="813" y="1257"/>
      <point x="783" y="1074" type="curve" smooth="yes"/>
      <point x="753" y="893"/>
      <point x="644" y="776"/>
    </contour>
  </outline>
</glyph>
<glyph name="AE" format="2">
  <advance width="1917"/>
  <unicode hex="00C6"/>
  <anchor x="1448" y="1490" name="top"/>
  <outline>
    <contour>
      <point x="-67" y="0" type="line"/>
      <point x="122" y="0" type="line"/>
      <point x="935" y="1330" type="line"/>
      <point x="1075" y="1330" type="line"/>
      <point x="855" y="0" type="line"/>
      <point x="1765" y="0" type="line"/>
      <point x="1791" y="160" type="line"/>
      <point x="1061" y="160" type="line"/>
      <point x="1146" y="672" type="line"/>
      <point x="1818" y="672" type="line"/>
      <point x="1845" y="832" type="line"/>
      <point x="1173" y="832" type="line"/>
      <point x="1255" y="1330" type="line"/>
      <point x="1975" y="1330" type="line"/>
      <point x="2002" y="1490" type="line"/>
      <point x="855" y="1490" type="line"/>
    </contour>
    <contour>
      <point x="339" y="448" type="line"/>
      <point x="1021" y="448" type="line"/>
      <point x="1048" y="608" type="line"/>
      <point x="366" y="608" type="line"/>
    </contour>
  </outline>
</glyph>
<glyph name="multiply" format="2">
  <advance width="1287"/>
  <unicode hex="00D7"/>
  <outline>
    <contour>
      <point x="931" y="112" type="line"/>
      <point x="1057" y="222" type="line"/>
      <point x="373" y="1042" type="line"/>
      <point x="247" y="932" type="line"/>
    </contour>
    <contour>
      <point x="238" y="117" type="line"/>
      <point x="1172" y="913" type="line"/>
      <point x="1065" y="1038" type="line"/>
      <point x="131" y="240" type="line"/>
    </contour>
  </outline>
</glyph>
<glyph name="Thorn" format="2">
  <advance width="1228"/>
  <unicode hex="00DE"/>
  <outline>
    <contour>
      <point x="295.258" y="1490" type="line"/>
      <point x="48.59" y="0" type="line"/>
      <point x="230.59" y="0" type="line"/>
      <point x="477.258" y="1490" type="line"/>
    </contour>
    <contour>
      <point x="330.269" y="1182" type="line"/>
      <point x="303.781" y="1022" type="line"/>
      <point x="687.781" y="1022" type="line" smooth="yes"/>
      <point x="893.616" y="1021"/>
      <point x="989.73" y="919"/>
      <point x="962.752" y="750" type="curve" smooth="yes"/>
      <point x="933.94" y="582"/>
      <point x="805.047" y="486"/>
      <point x="599.047" y="486" type="curve" smooth="yes"/>
      <point x="215.047" y="486" type="line"/>
      <point x="188.559" y="326" type="line"/>
      <point x="572.559" y="326" type="line" smooth="yes"/>
      <point x="888.559" y="326"/>
      <point x="1095.345" y="518"/>
      <point x="1133.414" y="754" type="curve" smooth="yes"/>
      <point x="1173.318" y="989"/>
      <point x="1030.103" y="1181"/>
      <point x="714.269" y="1182" type="curve" smooth="yes"/>
    </contour>
  </outline>
</glyph>
<glyph name="germandbls" format="2">
  <advance width="1180"/>
  <unicode hex="00DF"/>
  <outline>
    <contour>
      <point x="60.59" y="0" type="line"/>
      <point x="232.59" y="0" type="line"/>
      <point x="416.018" y="1108" type="line" smooth="yes"/>
      <point x="439.692" y="1251"/>
      <point x="567.081" y="1350"/>
      <point x="718.081" y="1350" type="curve" smooth="yes"/>
      <point x="878.081" y="1350"/>
      <point x="957.705" y="1239"/>
      <point x="934.694" y="1100" type="curve" smooth="yes"/>
      <point x="912.345" y="965"/>
      <point x="800.32" y="838"/>
      <point x="653.32" y="838" type="curve" smooth="yes"/>
      <point x="561.32" y="838" type="line"/>
      <point x="534.17" y="674" type="line"/>
      <point x="664.17" y="674" type="line" smooth="yes"/>
      <point x="841.17" y="674"/>
      <point x="933.96" y="564"/>
      <point x="908.465" y="410" type="curve" smooth="yes"/>
      <point x="884.295" y="264"/>
      <point x="766.078" y="160"/>
      <point x="609.078" y="160" type="curve" smooth="yes"/>
      <point x="443.078" y="160" type="line"/>
      <point x="416.59" y="0" type="line"/>
      <point x="578.59" y="0" type="line" smooth="yes"/>
      <point x="840.59" y="0"/>
      <point x="1041.561" y="175"/>
      <point x="1080.465" y="410" type="curve" smooth="yes"/>
      <point x="1114.734" y="617"/>
      <point x="1003.58" y="755"/>
      <point x="816.725" y="774" type="curve"/>
      <point x="819.043" y="788" type="line"/>
      <point x="967.155" y="837"/>
      <point x="1082.855" y="956"/>
      <point x="1110.998" y="1126" type="curve" smooth="yes"/>
      <point x="1150.399" y="1364"/>
      <point x="988.569" y="1510"/>
      <point x="740.569" y="1510" type="curve" smooth="yes"/>
      <point x="488.569" y="1510"/>
      <point x="285.24" y="1357"/>
      <point x="244.018" y="1108" type="curve" smooth="yes"/>
    </contour>
  </outline>
</glyph>
<glyph name="ae" format="2">
  <advance width="1762"/>
  <unicode hex="00E6"/>
  <anchor x="944" y="1056" name="top"/>
  <outline>
    <contour>
      <point x="359" y="-16" type="curve" smooth="yes"/>
      <point x="614" y="-16"/>
      <point x="778" y="92"/>
      <point x="861" y="246" type="curve"/>
      <point x="878" y="246" type="line"/>
      <point x="957" y="722" type="line" smooth="yes"/>
      <point x="992" y="931"/>
      <point x="854" y="1076"/>
      <point x="603" y="1076" type="curve" smooth="yes"/>
      <point x="358" y="1076"/>
      <point x="169" y="941"/>
      <point x="128" y="738" type="curve"/>
      <point x="301" y="738" type="line"/>
      <point x="330" y="853"/>
      <point x="438" y="926"/>
      <point x="583" y="926" type="curve" smooth="yes"/>
      <point x="737" y="926"/>
      <point x="812" y="857"/>
      <point x="791" y="734" type="curve" smooth="yes"/>
      <point x="736" y="406" type="line" smooth="yes"/>
      <point x="713" y="268"/>
      <point x="601" y="136"/>
      <point x="387" y="136" type="curve" smooth="yes"/>
      <point x="246" y="136"/>
      <point x="186" y="193"/>
      <point x="204" y="309" type="curve" smooth="yes"/>
      <point x="223" y="428"/>
      <point x="341" y="461"/>
      <point x="488" y="461" type="curve" smooth="yes"/>
      <point x="589" y="461"/>
      <point x="704" y="452"/>
      <point x="810" y="452" type="curve"/>
      <point x="821" y="587" type="line"/>
      <point x="664" y="587"/>
      <point x="589" y="601"/>
      <point x="479" y="601" type="curve" smooth="yes"/>
      <point x="214" y="601"/>
      <point x="67" y="506"/>
      <point x="36" y="315" type="curve" smooth="yes"/>
      <point x="2" y="112"/>
      <point x="127" y="-16"/>
    </contour>
    <contour>
      <point x="1168" y="-24" type="curve" smooth="yes"/>
      <point x="1405" y="-24"/>
      <point x="1582" y="99"/>
      <point x="1661" y="320" type="curve"/>
      <point x="1484" y="320" type="line"/>
      <point x="1434" y="210"/>
      <point x="1313" y="129"/>
      <point x="1157" y="129" type="curve" smooth="yes"/>
      <point x="982" y="129"/>
      <point x="912" y="227"/>
      <point x="912" y="410" type="curve" smooth="yes"/>
      <point x="912" y="454"/>
      <point x="925" y="524"/>
      <point x="932" y="563" type="curve" smooth="yes"/>
      <point x="967" y="783"/>
      <point x="1107" y="926"/>
      <point x="1331" y="926" type="curve" smooth="yes"/>
      <point x="1447" y="926"/>
      <point x="1518" y="891"/>
      <point x="1518" y="802" type="curve" smooth="yes"/>
      <point x="1518" y="644"/>
      <point x="1375" y="581"/>
      <point x="888" y="581" type="curve"/>
      <point x="873" y="449" type="line"/>
      <point x="1419" y="449"/>
      <point x="1689" y="531"/>
      <point x="1689" y="766" type="curve" smooth="yes"/>
      <point x="1689" y="964"/>
      <point x="1540" y="1080"/>
      <point x="1319" y="1080" type="curve" smooth="yes"/>
      <point x="991" y="1080"/>
      <point x="768" y="826"/>
      <point x="768" y="438" type="curve" smooth="yes"/>
      <point x="768" y="118"/>
      <point x="919" y="-24"/>
    </contour>
  </outline>
</glyph>
<glyph name="eth" format="2">
  <advance width="1120"/>
  <unicode hex="00F0"/>
  <outline>
    <contour>
      <point x="1080" y="1416" type="line"/>
      <point x="1048" y="1524" type="line"/>
      <point x="404" y="1236" type="line"/>
      <point x="436" y="1128" type="line"/>
    </contour>
    <contour>
      <point x="470" y="-24" type="curve" smooth="yes"/>
      <point x="763" y="-23"/>
      <point x="992" y="186"/>
      <point x="1052" y="546" type="curve" smooth="yes"/>
      <point x="1136" y="1056"/>
      <point x="847" y="1414"/>
      <point x="549" y="1582" type="curve"/>
      <point x="453" y="1460" type="line"/>
      <point x="770" y="1283"/>
      <point x="875" y="1039"/>
      <point x="910" y="858" type="curve"/>
      <point x="894" y="858" type="line"/>
      <point x="859" y="945"/>
      <point x="772" y="1047"/>
      <point x="603" y="1048" type="curve" smooth="yes"/>
      <point x="356" y="1047"/>
      <point x="122" y="829"/>
      <point x="68" y="512" type="curve" smooth="yes"/>
      <point x="18" y="201"/>
      <point x="170" y="-23"/>
    </contour>
    <contour>
      <point x="495" y="130" type="curve" smooth="yes"/>
      <point x="270" y="131"/>
      <point x="208" y="314"/>
      <point x="240" y="512" type="curve" smooth="yes"/>
      <point x="275" y="721"/>
      <point x="410" y="905"/>
      <point x="623" y="904" type="curve" smooth="yes"/>
      <point x="852" y="905"/>
      <point x="910" y="689"/>
      <point x="878" y="500" type="curve" smooth="yes"/>
      <point x="844" y="294"/>
      <point x="707" y="131"/>
    </contour>
  </outline>
</glyph>
<glyph name="divide" format="2">
  <advance width="1287"/>
  <unicode hex="00F7"/>
  <outline>
    <contour>
      <point x="1130.515" y="664" type="line"/>
      <point x="200.515" y="664" type="line"/>
      <point x="173.365" y="500" type="line"/>
      <point x="1103.365" y="500" type="line"/>
    </contour>
    <contour>
      <point x="567.172" y="76" type="curve" smooth="yes"/>
      <point x="638.172" y="76"/>
      <point x="705.774" y="134"/>
      <point x="716.693" y="206" type="curve" smooth="yes"/>
      <point x="729.282" y="276"/>
      <point x="681.049" y="335"/>
      <point x="609.884" y="334" type="curve" smooth="yes"/>
      <point x="538.049" y="335"/>
      <point x="470.282" y="276"/>
      <point x="458.693" y="206" type="curve" smooth="yes"/>
      <point x="446.774" y="134"/>
      <point x="495.172" y="76"/>
    </contour>
    <contour>
      <point x="691.996" y="830" type="curve" smooth="yes"/>
      <point x="762.83" y="829"/>
      <point x="830.432" y="887"/>
      <point x="841.517" y="960" type="curve" smooth="yes"/>
      <point x="854.106" y="1030"/>
      <point x="805.707" y="1088"/>
      <point x="734.707" y="1088" type="curve" smooth="yes"/>
      <point x="662.707" y="1088"/>
      <point x="595.106" y="1030"/>
      <point x="583.517" y="960" type="curve" smooth="yes"/>
      <point x="571.432" y="887"/>
      <point x="619.83" y="829"/>
    </contour>
  </outline>
</glyph>
<glyph name="thorn" format="2">
  <advance width="1157"/>
  <unicode hex="00FE"/>
  <outline>
    <contour>
      <point x="537" y="-20" type="curve" smooth="yes"/>
      <point x="812" y="-20"/>
      <point x="1032" y="203"/>
      <point x="1086" y="528" type="curve" smooth="yes"/>
      <point x="1140" y="854"/>
      <point x="994" y="1076"/>
      <point x="719" y="1076" type="curve" smooth="yes"/>
      <point x="582" y="1076"/>
      <point x="447" y="1018"/>
      <point x="360" y="900" type="curve"/>
      <point x="358" y="900" type="line"/>
      <point x="455" y="1490" type="line"/>
      <point x="285" y="1490" type="line"/>
      <point x="-31" y="-418" type="line"/>
      <point x="139" y="-418" type="line"/>
      <point x="235" y="160" type="line"/>
      <point x="237" y="160" type="line"/>
      <point x="293" y="38"/>
      <point x="400" y="-20"/>
    </contour>
    <contour>
      <point x="537" y="133" type="curve" smooth="yes"/>
      <point x="341" y="133"/>
      <point x="242" y="289"/>
      <point x="282" y="528" type="curve" smooth="yes"/>
      <point x="322" y="767"/>
      <point x="472" y="924"/>
      <point x="668" y="924" type="curve" smooth="yes"/>
      <point x="851" y="924"/>
      <point x="957" y="787"/>
      <point x="914" y="528" type="curve" smooth="yes"/>
      <point x="871" y="269"/>
      <point x="720" y="133"/>
    </contour>
  </outline>
</glyph>
<glyph name="Hbar" format="2">
  <advance width="1494"/>
  <unicode hex="0126"/>
  <anchor x="660" y="0" name="bottom"/>
  <anchor x="176" y="0" name="cedilla"/>
  <anchor x="1237" y="0" name="cyrtic"/>
  <anchor x="1057" y="0" name="lfthook"/>
  <anchor x="1239" y="0" name="right"/>
  <anchor x="330" y="1490" name="tonos"/>
  <anchor x="907" y="1490" name="top"/>
  <outline>
    <contour>
      <point x="1551" y="1176" type="line"/>
      <point x="157" y="1176" type="line"/>
      <point x="132" y="1024" type="line"/>
      <point x="1526" y="1024" type="line"/>
    </contour>
    <component base="H" xOffset="22"/>
  </outline>
</glyph>
<glyph name="idotless" format="2">
  <advance width="423"/>
  <unicode hex="0131"/>
  <anchor x="124" y="0" name="bottom"/>
  <anchor x="223" y="594" name="cross"/>
  <anchor x="209" y="0" name="ogonek"/>
  <anchor x="299" y="1056" name="top"/>
  <outline>
    <contour>
      <point x="39" y="0" type="line"/>
      <point x="209" y="0" type="line"/>
      <point x="384" y="1056" type="line"/>
      <point x="214" y="1056" type="line"/>
    </contour>
  </outline>
</glyph>
<glyph name="kgreenlandic" format="2">
  <advance width="998"/>
  <unicode hex="0138"/>
  <outline>
    <contour>
      <point x="384" y="1056" type="line"/>
      <point x="214" y="1056" type="line"/>
      <point x="39" y="0" type="line"/>
      <point x="209" y="0" type="line"/>
    </contour>
    <contour>
      <point x="1089" y="1056" type="line"/>
      <point x="882" y="1056" type="line"/>
      <point x="409" y="604" type="line"/>
      <point x="241" y="604" type="line"/>
      <point x="215" y="450" type="line"/>
      <point x="446" y="450" type="line"/>
    </contour>
    <contour>
      <point x="697" y="0" type="line"/>
      <point x="908" y="0" type="line"/>
      <point x="465" y="597" type="line"/>
      <point x="356" y="455" type="line"/>
    </contour>
  </outline>
</glyph>
<glyph name="OE" format="2">
  <advance width="2019"/>
  <unicode hex="0152"/>
  <anchor x="1381" y="0" name="bottom"/>
  <anchor x="1392" y="0" name="cedilla"/>
  <anchor x="1866" y="0" name="ogonek"/>
  <anchor x="1144" y="1490" name="tonos"/>
  <anchor x="1628" y="1490" name="top"/>
  <outline>
    <contour>
      <point x="712.59" y="0" type="curve" smooth="yes"/>
      <point x="974.59" y="0" type="line"/>
      <point x="1001.078" y="160" type="line"/>
      <point x="751.078" y="160" type="line" smooth="yes"/>
      <point x="381.078" y="160"/>
      <point x="241.161" y="384"/>
      <point x="300.421" y="748" type="curve" smooth="yes"/>
      <point x="361.018" y="1108"/>
      <point x="574.77" y="1330"/>
      <point x="924.77" y="1330" type="curve" smooth="yes"/>
      <point x="1202.77" y="1330" type="line"/>
      <point x="1229.258" y="1490" type="line"/>
      <point x="939.258" y="1490" type="line" smooth="yes"/>
      <point x="505.258" y="1490"/>
      <point x="202.904" y="1210"/>
      <point x="126.421" y="748" type="curve" smooth="yes"/>
      <point x="49.275" y="282"/>
      <point x="258.59" y="0"/>
    </contour>
    <component base="E" xOffset="836"/>
  </outline>
</glyph>
<glyph name="tbar" format="2">
  <advance width="637"/>
  <unicode hex="0167"/>
  <anchor x="387.0" y="0" name="bottom"/>
  <anchor x="401.0" y="0" name="cedilla"/>
  <anchor x="587.0" y="0" name="lfthook"/>
  <anchor x="529.92" y="1344" name="top"/>
  <anchor x="767.2" y="1490" name="raccent"/>
  <outline>
    <contour>
      <point x="721.1" y="745" type="line"/>
      <point x="149.1" y="745" type="line"/>
      <point x="122.82" y="599" type="line"/>
      <point x="694.8199999999999" y="599" type="line"/>
    </contour>
    <component base="t" yxScale="0.18"/>
  </outline>
</glyph>
<glyph name="Btopbar" format="2">
  <advance width="1273"/>
  <unicode hex="0182"/>
  <outline>
    <contour>
      <point x="61" y="0" type="line"/>
      <point x="619" y="0" type="line" smooth="yes"/>
      <point x="940" y="0"/>
      <point x="1144" y="180"/>
      <point x="1187" y="440" type="curve" smooth="yes"/>
      <point x="1230" y="698"/>
      <point x="1083" y="864"/>
      <point x="761" y="864" type="curve" smooth="yes"/>
      <point x="383" y="864" type="line"/>
      <point x="461" y="1330" type="line"/>
      <point x="1181" y="1330" type="line"/>
      <point x="1207" y="1490" type="line"/>
      <point x="307" y="1490" type="line"/>
    </contour>
    <contour>
      <point x="267" y="158" type="line"/>
      <point x="357" y="704" type="line"/>
      <point x="735" y="704" type="line" smooth="yes"/>
      <point x="940" y="704"/>
      <point x="1033" y="585"/>
      <point x="1009" y="442" type="curve" smooth="yes"/>
      <point x="985" y="297"/>
      <point x="849" y="157"/>
      <point x="645" y="158" type="curve" smooth="yes"/>
    </contour>
  </outline>
</glyph>
<glyph name="Tonesix" format="2">
  <advance width="1500"/>
  <unicode hex="0184"/>
  <anchor x="651" y="1176" name="cross"/>
  <outline>
    <contour>
      <point x="238" y="958" type="line"/>
      <point x="632" y="1490" type="line"/>
      <point x="436" y="1490" type="line"/>
      <point x="105" y="1042" type="line"/>
    </contour>
    <component base="Softsign-cy" xOffset="233"/>
  </outline>
</glyph>
<glyph name="Dtopbar" format="2">
  <advance width="1228"/>
  <unicode hex="018B"/>
  <outline>
    <contour>
      <point x="1048" y="0" type="line"/>
      <point x="1288" y="1458" type="line"/>
      <point x="392" y="1458" type="line"/>
      <point x="366" y="1288" type="line"/>
      <point x="1056" y="1288" type="line"/>
      <point x="986" y="870" type="line"/>
      <point x="638" y="870" type="line" smooth="yes"/>
      <point x="317" y="870"/>
      <point x="111" y="698"/>
      <point x="66" y="440" type="curve" smooth="yes"/>
      <point x="23" y="180"/>
      <point x="172" y="0"/>
      <point x="492" y="0" type="curve" smooth="yes"/>
    </contour>
    <contour>
      <point x="870" y="166" type="line"/>
      <point x="520" y="166" type="line" smooth="yes"/>
      <point x="314" y="166"/>
      <point x="253" y="297"/>
      <point x="276" y="442" type="curve" smooth="yes"/>
      <point x="300" y="585"/>
      <point x="401" y="701"/>
      <point x="608" y="702" type="curve" smooth="yes"/>
      <point x="958" y="702" type="line"/>
    </contour>
  </outline>
</glyph>
<glyph name="deltaturn" format="2">
  <advance width="1042"/>
  <unicode hex="018D"/>
  <outline>
    <contour>
      <point x="712" y="-376" type="line"/>
      <point x="734" y="-256" type="line"/>
      <point x="655" y="-145"/>
      <point x="538" y="-35"/>
      <point x="440" y="72" type="curve"/>
      <point x="454" y="73"/>
      <point x="454" y="73"/>
      <point x="478" y="76" type="curve" smooth="yes"/>
      <point x="768" y="111"/>
      <point x="972" y="311"/>
      <point x="1006" y="550" type="curve" smooth="yes"/>
      <point x="1010" y="570" type="line" smooth="yes"/>
      <point x="1058" y="902"/>
      <point x="916" y="1132"/>
      <point x="610" y="1132" type="curve" smooth="yes"/>
      <point x="305" y="1132"/>
      <point x="89" y="902"/>
      <point x="40" y="570" type="curve" smooth="yes"/>
      <point x="38" y="550" type="line" smooth="yes"/>
      <point x="4" y="322"/>
      <point x="122" y="151"/>
      <point x="306" y="-34" type="curve" smooth="yes"/>
      <point x="361" y="-87"/>
      <point x="451" y="-189"/>
      <point x="472" y="-222" type="curve"/>
      <point x="30" y="-222" type="line"/>
      <point x="2" y="-376" type="line"/>
    </contour>
    <contour>
      <point x="806" y="550" type="line"/>
      <point x="774" y="364"/>
      <point x="652" y="198"/>
      <point x="442" y="198" type="curve" smooth="yes"/>
      <point x="407" y="198"/>
      <point x="384" y="201"/>
      <point x="358" y="210" type="curve"/>
      <point x="276" y="271"/>
      <point x="212" y="392"/>
      <point x="236" y="550" type="curve" smooth="yes"/>
      <point x="238" y="570" type="line" smooth="yes"/>
      <point x="273" y="800"/>
      <point x="387" y="972"/>
      <point x="584" y="972" type="curve" smooth="yes"/>
      <point x="785" y="972"/>
      <point x="843" y="800"/>
      <point x="808" y="570" type="curve" smooth="yes"/>
    </contour>
  </outline>
</glyph>
<glyph name="Schwa" format="2">
  <advance width="1496"/>
  <unicode hex="018F"/>
  <outline>
    <contour>
      <point x="642" y="-24" type="curve" smooth="yes"/>
      <point x="1038" y="-24"/>
      <point x="1368" y="296"/>
      <point x="1442" y="744" type="curve" smooth="yes"/>
      <point x="1517" y="1195"/>
      <point x="1286" y="1514"/>
      <point x="889" y="1514" type="curve" smooth="yes"/>
      <point x="573" y="1514"/>
      <point x="286" y="1306"/>
      <point x="185" y="1008" type="curve"/>
      <point x="367" y="1008" type="line"/>
      <point x="446" y="1208"/>
      <point x="642" y="1346"/>
      <point x="861" y="1346" type="curve" smooth="yes"/>
      <point x="1159" y="1346"/>
      <point x="1321" y="1100"/>
      <point x="1262" y="744" type="curve" smooth="yes"/>
      <point x="1204" y="390"/>
      <point x="968" y="144"/>
      <point x="670" y="144" type="curve" smooth="yes"/>
      <point x="421" y="144"/>
      <point x="241" y="324"/>
      <point x="284" y="588" type="curve"/>
      <point x="226" y="585" type="line"/>
      <point x="1310" y="585" type="line"/>
      <point x="1336" y="745" type="line"/>
      <point x="132" y="745" type="line"/>
      <point x="106" y="584" type="line" smooth="yes"/>
      <point x="48" y="236"/>
      <point x="287" y="-24"/>
    </contour>
  </outline>
</glyph>
<glyph name="Epsilon1" format="2">
  <advance width="1225"/>
  <unicode hex="0190"/>
  <anchor x="526" y="0" name="bottom"/>
  <anchor x="769" y="1490" name="top"/>
  <outline>
    <contour>
      <point x="522" y="-24" type="curve" smooth="yes"/>
      <point x="830" y="-24"/>
      <point x="1071" y="177"/>
      <point x="1119" y="468" type="curve"/>
      <point x="937" y="468" type="line"/>
      <point x="903" y="257"/>
      <point x="749" y="134"/>
      <point x="536" y="134" type="curve" smooth="yes"/>
      <point x="332" y="134"/>
      <point x="219" y="245"/>
      <point x="248" y="420" type="curve" smooth="yes"/>
      <point x="274" y="579"/>
      <point x="440" y="684"/>
      <point x="659" y="684" type="curve" smooth="yes"/>
      <point x="779" y="684" type="line"/>
      <point x="806" y="844" type="line"/>
      <point x="686" y="844" type="line" smooth="yes"/>
      <point x="494" y="844"/>
      <point x="380" y="940"/>
      <point x="404" y="1086" type="curve" smooth="yes"/>
      <point x="432" y="1254"/>
      <point x="577" y="1356"/>
      <point x="762" y="1356" type="curve" smooth="yes"/>
      <point x="952" y="1356"/>
      <point x="1042" y="1244"/>
      <point x="1011" y="1056" type="curve"/>
      <point x="1185" y="1056" type="line"/>
      <point x="1230" y="1326"/>
      <point x="1054" y="1514"/>
      <point x="772" y="1514" type="curve" smooth="yes"/>
      <point x="498" y="1514"/>
      <point x="270" y="1339"/>
      <point x="229" y="1096" type="curve" smooth="yes"/>
      <point x="204" y="945"/>
      <point x="286" y="821"/>
      <point x="443" y="770" type="curve"/>
      <point x="443" y="767" type="line"/>
      <point x="248" y="735"/>
      <point x="101" y="596"/>
      <point x="72" y="420" type="curve" smooth="yes"/>
      <point x="28" y="159"/>
      <point x="226" y="-24"/>
    </contour>
  </outline>
</glyph>
<glyph name="florin" format="2">
  <advance width="728"/>
  <unicode hex="0192"/>
  <outline>
    <contour>
      <point x="723.714" y="1082" type="line"/>
      <point x="519.714" y="1082" type="line"/>
      <point x="537.924" y="1192" type="line" smooth="yes"/>
      <point x="559.28" y="1321"/>
      <point x="630.875" y="1385"/>
      <point x="747.71" y="1384" type="curve" smooth="yes"/>
      <point x="781.875" y="1385"/>
      <point x="806.882" y="1379"/>
      <point x="826.054" y="1374" type="curve"/>
      <point x="895.88" y="1530" type="line"/>
      <point x="860.363" y="1545"/>
      <point x="784.184" y="1556"/>
      <point x="728.184" y="1556" type="curve" smooth="yes"/>
      <point x="548.184" y="1556"/>
      <point x="395.994" y="1428"/>
      <point x="357.924" y="1192" type="curve" smooth="yes"/>
      <point x="339.714" y="1082" type="line"/>
      <point x="157.714" y="1082" type="line"/>
      <point x="133.213" y="934" type="line"/>
      <point x="315.213" y="934" type="line"/>
      <point x="148.671" y="-72" type="line" smooth="yes"/>
      <point x="128.301" y="-189"/>
      <point x="58.713" y="-259"/>
      <point x="-20.121" y="-258" type="curve" smooth="yes"/>
      <point x="-37.287" y="-259"/>
      <point x="-97.79" y="-256"/>
      <point x="-116.466" y="-248" type="curve"/>
      <point x="-156.292" y="-404" type="line"/>
      <point x="-121.278" y="-416"/>
      <point x="-86.775" y="-419"/>
      <point x="-46.609" y="-418" type="curve" smooth="yes"/>
      <point x="157.225" y="-419"/>
      <point x="291.422" y="-297"/>
      <point x="328.671" y="-72" type="curve" smooth="yes"/>
      <point x="495.213" y="934" type="line"/>
      <point x="699.213" y="934" type="line"/>
    </contour>
  </outline>
</glyph>
<glyph name="Gamma1" format="2">
  <advance width="1228"/>
  <unicode hex="0194"/>
  <outline>
    <contour>
      <point x="147.258" y="1490" type="line"/>
      <point x="515.463" y="114" type="line" smooth="yes"/>
      <point x="562.492" y="-61"/>
      <point x="590.413" y="-140"/>
      <point x="581.811" y="-198" type="curve" smooth="yes"/>
      <point x="573.693" y="-241"/>
      <point x="532.402" y="-279"/>
      <point x="480.236" y="-280" type="curve" smooth="yes"/>
      <point x="427.402" y="-279"/>
      <point x="399.196" y="-244"/>
      <point x="405.811" y="-198" type="curve" smooth="yes"/>
      <point x="416.413" y="-140"/>
      <point x="476.485" y="-55"/>
      <point x="577.463" y="114" type="curve" smooth="yes"/>
      <point x="1399.258" y="1490" type="line"/>
      <point x="1203.258" y="1490" type="line"/>
      <point x="489.275" y="282" type="line" smooth="yes"/>
      <point x="331.073" y="15"/>
      <point x="239.201" y="-99"/>
      <point x="223.811" y="-198" type="curve" smooth="yes"/>
      <point x="196.82" y="-355"/>
      <point x="284.418" y="-442"/>
      <point x="453.418" y="-442" type="curve" smooth="yes"/>
      <point x="622.418" y="-442"/>
      <point x="737.82" y="-355"/>
      <point x="763.811" y="-198" type="curve" smooth="yes"/>
      <point x="779.208" y="-105"/>
      <point x="721.073" y="15"/>
      <point x="651.275" y="282" type="curve" smooth="yes"/>
      <point x="343.258" y="1490" type="line"/>
    </contour>
  </outline>
</glyph>
<glyph name="hv" format="2">
  <advance width="1874"/>
  <unicode hex="0195"/>
  <outline>
    <contour>
      <point x="39" y="0" type="line"/>
      <point x="209" y="0" type="line"/>
      <point x="320" y="672" type="line" smooth="yes"/>
      <point x="353" y="867"/>
      <point x="495" y="977"/>
      <point x="664" y="978" type="curve" smooth="yes"/>
      <point x="826" y="977"/>
      <point x="907" y="876"/>
      <point x="878" y="698" type="curve" smooth="yes"/>
      <point x="855" y="558" type="line"/>
      <point x="1027" y="558" type="line"/>
      <point x="1052" y="710" type="line" smooth="yes"/>
      <point x="1099" y="997"/>
      <point x="968" y="1132"/>
      <point x="740" y="1132" type="curve" smooth="yes"/>
      <point x="564" y="1132"/>
      <point x="452" y="1058"/>
      <point x="381" y="942" type="curve"/>
      <point x="365" y="942" type="line"/>
      <point x="455" y="1490" type="line"/>
      <point x="285" y="1490" type="line"/>
    </contour>
    <contour>
      <point x="1131" y="-20" type="curve" smooth="yes"/>
      <point x="1428" y="-20"/>
      <point x="1705" y="267"/>
      <point x="1821" y="966" type="curve" smooth="yes"/>
      <point x="1846" y="1118" type="line"/>
      <point x="1674" y="1118" type="line"/>
      <point x="1649" y="966" type="line" smooth="yes"/>
      <point x="1547" y="348"/>
      <point x="1349" y="131"/>
      <point x="1168" y="130" type="curve" smooth="yes"/>
      <point x="1081" y="131"/>
      <point x="963" y="180"/>
      <point x="1008" y="442" type="curve" smooth="yes"/>
      <point x="1027" y="558" type="line"/>
      <point x="855" y="558" type="line"/>
      <point x="836" y="442" type="line" smooth="yes"/>
      <point x="781" y="120"/>
      <point x="924" y="-20"/>
    </contour>
  </outline>
</glyph>
<glyph name="Khook" format="2">
  <advance width="1312"/>
  <unicode hex="0198"/>
  <outline>
    <contour>
      <point x="60.59" y="0" type="line"/>
      <point x="240.59" y="0" type="line"/>
      <point x="320.385" y="482" type="line"/>
      <point x="541.15" y="692" type="line"/>
      <point x="944.59" y="0" type="line"/>
      <point x="1162.59" y="0" type="line"/>
      <point x="674.009" y="818" type="line"/>
      <point x="1173.499" y="1274" type="line" smooth="yes"/>
      <point x="1260.743" y="1354"/>
      <point x="1327.571" y="1359"/>
      <point x="1384.784" y="1318" type="curve"/>
      <point x="1478.967" y="1452" type="line"/>
      <point x="1373.873" y="1536"/>
      <point x="1218.88" y="1530"/>
      <point x="1080.69" y="1402" type="curve" smooth="yes"/>
      <point x="382.752" y="750" type="line"/>
      <point x="364.752" y="750" type="line"/>
      <point x="487.258" y="1490" type="line"/>
      <point x="307.258" y="1490" type="line"/>
    </contour>
  </outline>
</glyph>
<glyph name="lambdabar" format="2">
  <advance width="1228"/>
  <unicode hex="019B"/>
  <outline>
    <contour>
      <point x="796" y="1420" type="line"/>
      <point x="272" y="1230" type="line"/>
      <point x="244" y="1062" type="line"/>
      <point x="766" y="1248" type="line"/>
    </contour>
    <contour>
      <point x="622" y="792" type="line"/>
      <point x="724" y="1094" type="line"/>
      <point x="586" y="1102" type="line"/>
      <point x="-16" y="0" type="line"/>
      <point x="206" y="0" type="line"/>
    </contour>
    <contour>
      <point x="468" y="1510" type="curve"/>
      <point x="439" y="1510"/>
      <point x="385" y="1504"/>
      <point x="368" y="1498" type="curve"/>
      <point x="342" y="1346" type="line"/>
      <point x="353" y="1350"/>
      <point x="377" y="1350"/>
      <point x="390" y="1350" type="curve" smooth="yes"/>
      <point x="438" y="1350"/>
      <point x="471" y="1329"/>
      <point x="488" y="1256" type="curve" smooth="yes"/>
      <point x="552" y="978" type="line"/>
      <point x="730" y="184" type="line" smooth="yes"/>
      <point x="770" y="3"/>
      <point x="831" y="-17"/>
      <point x="950" y="-18" type="curve" smooth="yes"/>
      <point x="982" y="-17"/>
      <point x="1015" y="-12"/>
      <point x="1030" y="-6" type="curve"/>
      <point x="1052" y="154" type="line"/>
      <point x="1042" y="154"/>
      <point x="1028" y="154"/>
      <point x="1016" y="154" type="curve" smooth="yes"/>
      <point x="972" y="154"/>
      <point x="951" y="171"/>
      <point x="936" y="236" type="curve" smooth="yes"/>
      <point x="690" y="1344" type="line" smooth="yes"/>
      <point x="668" y="1449"/>
      <point x="616" y="1510"/>
    </contour>
  </outline>
</glyph>
<glyph name="mcapturn" format="2">
  <advance width="1786"/>
  <unicode hex="019C"/>
  <outline>
    <contour>
      <point x="1396" y="212" type="line"/>
      <point x="1370" y="0" type="line"/>
      <point x="1560" y="0" type="line"/>
      <point x="1806" y="1490" type="line"/>
      <point x="1608" y="1490" type="line"/>
    </contour>
    <contour>
      <point x="1460" y="504" type="line"/>
      <point x="1425" y="303"/>
      <point x="1327" y="145"/>
      <point x="1112" y="146" type="curve" smooth="yes"/>
      <point x="1018" y="145"/>
      <point x="934" y="204"/>
      <point x="972" y="442" type="curve"/>
      <point x="1146" y="1490" type="line"/>
      <point x="948" y="1490" type="line"/>
      <point x="774" y="442" type="line"/>
      <point x="719" y="93"/>
      <point x="841" y="-20"/>
      <point x="1054" y="-20" type="curve" smooth="yes"/>
      <point x="1350" y="-20"/>
      <point x="1504" y="204"/>
      <point x="1554" y="506" type="curve"/>
    </contour>
    <contour>
      <point x="802" y="504" type="line"/>
      <point x="768" y="303"/>
      <point x="666" y="145"/>
      <point x="450" y="146" type="curve" smooth="yes"/>
      <point x="358" y="145"/>
      <point x="274" y="204"/>
      <point x="314" y="442" type="curve" smooth="yes"/>
      <point x="488" y="1490" type="line"/>
      <point x="288" y="1490" type="line"/>
      <point x="114" y="442" type="line" smooth="yes"/>
      <point x="56" y="96"/>
      <point x="177" y="-20"/>
      <point x="392" y="-20" type="curve" smooth="yes"/>
      <point x="689" y="-20"/>
      <point x="847" y="204"/>
      <point x="896" y="506" type="curve"/>
    </contour>
  </outline>
</glyph>
<glyph name="Ohorn" format="2">
  <advance width="1534"/>
  <unicode hex="01A0"/>
  <anchor x="680" y="0" name="bottom"/>
  <anchor x="803" y="745" name="center"/>
  <anchor x="1492" y="897" name="ogonek"/>
  <anchor x="384" y="1490" name="tonos"/>
  <anchor x="926" y="1490" name="top"/>
  <anchor x="930" y="1514" name="tophorn"/>
  <outline>
    <contour>
      <point x="905" y="1366" type="line"/>
      <point x="1266" y="1366"/>
      <point x="1295" y="1350"/>
      <point x="1409" y="1350" type="curve" smooth="yes"/>
      <point x="1523" y="1350"/>
      <point x="1589" y="1406"/>
      <point x="1608" y="1520" type="curve" smooth="yes"/>
      <point x="1642" y="1730" type="line"/>
      <point x="1472" y="1730" type="line"/>
      <point x="1436" y="1508" type="line" smooth="yes"/>
      <point x="1434" y="1497"/>
      <point x="1426" y="1490"/>
      <point x="1415" y="1490" type="curve" smooth="yes"/>
      <point x="1116" y="1490"/>
      <point x="1093" y="1514"/>
      <point x="930" y="1514" type="curve"/>
    </contour>
    <component base="O"/>
  </outline>
</glyph>
<glyph name="ohorn" format="2">
  <advance width="1124"/>
  <unicode hex="01A1"/>
  <anchor x="475" y="0" name="bottom"/>
  <anchor x="562" y="528" name="center"/>
  <anchor x="1052" y="526" name="ogonek"/>
  <anchor x="649" y="1056" name="top"/>
  <anchor x="653" y="1080" name="tophorn"/>
  <outline>
    <contour>
      <point x="630" y="944" type="line"/>
      <point x="744" y="944"/>
      <point x="851" y="944"/>
      <point x="965" y="944" type="curve" smooth="yes"/>
      <point x="1079" y="944"/>
      <point x="1143" y="992"/>
      <point x="1162" y="1106" type="curve" smooth="yes"/>
      <point x="1194" y="1296" type="line"/>
      <point x="1034" y="1296" type="line"/>
      <point x="998" y="1082" type="line" smooth="yes"/>
      <point x="996" y="1071"/>
      <point x="988" y="1064"/>
      <point x="977" y="1064" type="curve" smooth="yes"/>
      <point x="751" y="1064"/>
      <point x="783" y="1080"/>
      <point x="653" y="1080" type="curve"/>
    </contour>
    <component base="o"/>
  </outline>
</glyph>
<glyph name="OI" format="2">
  <advance width="1706"/>
  <unicode hex="01A2"/>
  <outline>
    <contour>
      <point x="1246" y="760" type="line" name="hr00"/>
      <point x="1048" y="760" type="line"/>
      <point x="964" y="250" type="line"/>
      <point x="887" y="180"/>
      <point x="774" y="145"/>
      <point x="656" y="146" type="curve" smooth="yes"/>
      <point x="372" y="145"/>
      <point x="261" y="342"/>
      <point x="318" y="678" type="curve" smooth="yes"/>
      <point x="338" y="806" type="line"/>
      <point x="130" y="802" type="line"/>
      <point x="110" y="678" type="line" smooth="yes"/>
      <point x="39" y="249"/>
      <point x="225" y="-20"/>
      <point x="616" y="-20" type="curve" smooth="yes"/>
      <point x="835" y="-20"/>
      <point x="1042" y="60"/>
      <point x="1154" y="198" type="curve"/>
    </contour>
    <contour>
      <point x="1336" y="1292" type="line"/>
      <point x="1271" y="1424"/>
      <point x="1096" y="1510"/>
      <point x="888" y="1510" type="curve" smooth="yes"/>
      <point x="487" y="1510"/>
      <point x="204" y="1249"/>
      <point x="132" y="812" type="curve" smooth="yes"/>
      <point x="114" y="696" type="line"/>
      <point x="320" y="696" type="line"/>
      <point x="338" y="812" type="line" smooth="yes"/>
      <point x="396" y="1159"/>
      <point x="574" y="1341"/>
      <point x="856" y="1342" type="curve" smooth="yes"/>
      <point x="980" y="1341"/>
      <point x="1081" y="1301"/>
      <point x="1128" y="1236" type="curve"/>
      <point x="1046" y="742" type="line"/>
      <point x="1244" y="742" type="line"/>
    </contour>
    <contour>
      <point x="1710" y="1490" type="line"/>
      <point x="1556" y="1490" type="line"/>
      <point x="1258" y="1376" type="line"/>
      <point x="1230" y="1208" type="line"/>
      <point x="1478" y="1292" type="line"/>
      <point x="1194" y="-418" type="line"/>
      <point x="1394" y="-418" type="line"/>
    </contour>
  </outline>
</glyph>
<glyph name="oi" format="2">
  <advance width="1228"/>
  <unicode hex="01A3"/>
  <outline>
    <contour>
      <point x="454" y="140" type="curve" smooth="yes"/>
      <point x="279" y="140"/>
      <point x="198" y="279"/>
      <point x="232" y="520" type="curve" smooth="yes"/>
      <point x="238" y="562" type="line" smooth="yes"/>
      <point x="269" y="775"/>
      <point x="368" y="972"/>
      <point x="586" y="972" type="curve" smooth="yes"/>
      <point x="650" y="972"/>
      <point x="697" y="954"/>
      <point x="730" y="926" type="curve"/>
      <point x="660" y="510" type="line"/>
      <point x="862" y="510" type="line"/>
      <point x="940" y="978" type="line"/>
      <point x="879" y="1073"/>
      <point x="769" y="1132"/>
      <point x="618" y="1132" type="curve" smooth="yes"/>
      <point x="289" y="1132"/>
      <point x="84" y="880"/>
      <point x="38" y="562" type="curve" smooth="yes"/>
      <point x="32" y="520" type="line" smooth="yes"/>
      <point x="-9" y="232"/>
      <point x="105" y="-20"/>
      <point x="418" y="-20" type="curve" smooth="yes"/>
      <point x="576" y="-20"/>
      <point x="705" y="44"/>
      <point x="800" y="136" type="curve"/>
      <point x="866" y="544" type="line"/>
      <point x="666" y="544" type="line"/>
      <point x="606" y="184" type="line"/>
      <point x="561" y="157"/>
      <point x="515" y="140"/>
    </contour>
    <contour>
      <point x="1282" y="1118" type="line"/>
      <point x="1124" y="1118" type="line"/>
      <point x="844" y="984" type="line"/>
      <point x="802" y="730" type="line"/>
      <point x="1042" y="858" type="line"/>
      <point x="832" y="-418" type="line"/>
      <point x="1030" y="-418" type="line"/>
    </contour>
  </outline>
</glyph>
<glyph name="YR" format="2">
  <advance width="1414"/>
  <unicode hex="01A6"/>
  <outline>
    <contour>
      <point x="216" y="1390" type="line" name="hr00"/>
      <point x="426" y="1390" type="line"/>
      <point x="460" y="1592" type="line"/>
      <point x="250" y="1592" type="line"/>
    </contour>
    <contour>
      <point x="234" y="1490" type="line"/>
      <point x="-14" y="0" type="line"/>
      <point x="196" y="0" type="line"/>
      <point x="414" y="1322" type="line"/>
      <point x="690" y="1322" type="line" smooth="yes"/>
      <point x="910" y="1322"/>
      <point x="979" y="1215"/>
      <point x="952" y="1052" type="curve" smooth="yes"/>
      <point x="929" y="903"/>
      <point x="807" y="787"/>
      <point x="602" y="786" type="curve" smooth="yes"/>
      <point x="280" y="786" type="line"/>
      <point x="254" y="622" type="line"/>
      <point x="696" y="622" type="line"/>
      <point x="754" y="642" type="line"/>
      <point x="975" y="700"/>
      <point x="1125" y="851"/>
      <point x="1160" y="1052" type="curve" smooth="yes"/>
      <point x="1208" y="1337"/>
      <point x="1051" y="1491"/>
      <point x="720" y="1490" type="curve" smooth="yes"/>
    </contour>
    <contour>
      <point x="962" y="-360" type="line"/>
      <point x="1184" y="-360" type="line"/>
      <point x="1186" y="-350" type="line"/>
      <point x="806" y="664" type="line"/>
      <point x="588" y="664" type="line"/>
    </contour>
  </outline>
</glyph>
<glyph name="Tonetwo" format="2">
  <advance width="1259"/>
  <unicode hex="01A7"/>
  <anchor x="538" y="0" name="bottom"/>
  <anchor x="538" y="0" name="cedilla"/>
  <anchor x="794" y="1490" name="top"/>
  <outline>
    <contour>
      <point x="535" y="-24" type="curve" smooth="yes"/>
      <point x="879" y="-24"/>
      <point x="1121" y="170"/>
      <point x="1172" y="480" type="curve"/>
      <point x="988" y="480" type="line"/>
      <point x="953" y="267"/>
      <point x="785" y="140"/>
      <point x="546" y="140" type="curve" smooth="yes"/>
      <point x="329" y="140"/>
      <point x="211" y="242"/>
      <point x="238" y="402" type="curve" smooth="yes"/>
      <point x="258" y="526"/>
      <point x="350" y="598"/>
      <point x="574" y="651" type="curve" smooth="yes"/>
      <point x="748" y="692" type="line" smooth="yes"/>
      <point x="1064" y="766"/>
      <point x="1210" y="885"/>
      <point x="1243" y="1088" type="curve" smooth="yes"/>
      <point x="1286" y="1345"/>
      <point x="1103" y="1514"/>
      <point x="792" y="1514" type="curve" smooth="yes"/>
      <point x="482" y="1514"/>
      <point x="262" y="1336"/>
      <point x="207" y="1050" type="curve"/>
      <point x="385" y="1050" type="line"/>
      <point x="427" y="1236"/>
      <point x="584" y="1349"/>
      <point x="786" y="1349" type="curve" smooth="yes"/>
      <point x="979" y="1349"/>
      <point x="1091" y="1245"/>
      <point x="1067" y="1097" type="curve" smooth="yes"/>
      <point x="1047" y="981"/>
      <point x="953" y="914"/>
      <point x="728" y="860" type="curve" smooth="yes"/>
      <point x="552" y="818" type="line" smooth="yes"/>
      <point x="250" y="746"/>
      <point x="93" y="618"/>
      <point x="59" y="410" type="curve" smooth="yes"/>
      <point x="16" y="151"/>
      <point x="211" y="-24"/>
    </contour>
  </outline>
</glyph>
<glyph name="tonetwo" format="2">
  <advance width="970"/>
  <unicode hex="01A8"/>
  <anchor x="409" y="0" name="bottom"/>
  <anchor x="411" y="0" name="cedilla"/>
  <anchor x="578" y="1056" name="top"/>
  <outline>
    <contour>
      <point x="132" y="740" type="curve"/>
      <point x="298" y="740" type="line"/>
      <point x="318" y="852"/>
      <point x="416" y="924"/>
      <point x="552" y="924" type="curve" smooth="yes"/>
      <point x="682" y="924"/>
      <point x="760" y="862"/>
      <point x="745" y="772" type="curve" smooth="yes"/>
      <point x="732" y="692"/>
      <point x="658" y="644"/>
      <point x="552" y="620" type="curve" smooth="yes"/>
      <point x="375" y="580" type="line" smooth="yes"/>
      <point x="165" y="532"/>
      <point x="59" y="432"/>
      <point x="35" y="288" type="curve" smooth="yes"/>
      <point x="2" y="92"/>
      <point x="156" y="-20"/>
      <point x="386" y="-20" type="curve" smooth="yes"/>
      <point x="612" y="-20"/>
      <point x="807" y="86"/>
      <point x="859" y="316" type="curve"/>
      <point x="691" y="316" type="line"/>
      <point x="658" y="190"/>
      <point x="563" y="132"/>
      <point x="415" y="132" type="curve" smooth="yes"/>
      <point x="269" y="132"/>
      <point x="188" y="190"/>
      <point x="204" y="284" type="curve" smooth="yes"/>
      <point x="217" y="364"/>
      <point x="288" y="406"/>
      <point x="386" y="428" type="curve" smooth="yes"/>
      <point x="562" y="468" type="line" smooth="yes"/>
      <point x="766" y="514"/>
      <point x="885" y="618"/>
      <point x="911" y="772" type="curve" smooth="yes"/>
      <point x="941" y="952"/>
      <point x="803" y="1076"/>
      <point x="577" y="1076" type="curve" smooth="yes"/>
      <point x="357" y="1076"/>
      <point x="172" y="950"/>
    </contour>
  </outline>
</glyph>
<glyph name="eshlooprev" format="2">
  <advance width="1042"/>
  <unicode hex="01AA"/>
  <outline>
    <contour>
      <point x="658" y="1134" type="line" name="hr00"/>
      <point x="456" y="-70" type="line" smooth="yes"/>
      <point x="419" y="-297"/>
      <point x="492" y="-419"/>
      <point x="680" y="-418" type="curve" smooth="yes"/>
      <point x="716" y="-419"/>
      <point x="768" y="-413"/>
      <point x="800" y="-402" type="curve"/>
      <point x="826" y="-244" type="line"/>
      <point x="806" y="-250"/>
      <point x="777" y="-253"/>
      <point x="760" y="-254" type="curve" smooth="yes"/>
      <point x="672" y="-253"/>
      <point x="635" y="-207"/>
      <point x="658" y="-70" type="curve" smooth="yes"/>
      <point x="872" y="1218" type="line"/>
    </contour>
    <contour>
      <point x="192" y="1218" type="curve" smooth="yes"/>
      <point x="160" y="1033"/>
      <point x="285" y="879"/>
      <point x="474" y="878" type="curve" smooth="yes"/>
      <point x="660" y="879"/>
      <point x="841" y="1033"/>
      <point x="872" y="1218" type="curve" smooth="yes"/>
      <point x="902" y="1408"/>
      <point x="774" y="1558"/>
      <point x="588" y="1558" type="curve" smooth="yes"/>
      <point x="399" y="1558"/>
      <point x="221" y="1408"/>
    </contour>
    <contour>
      <point x="506" y="1062" type="curve" smooth="yes"/>
      <point x="419" y="1062"/>
      <point x="361" y="1114"/>
      <point x="378" y="1222" type="curve" smooth="yes"/>
      <point x="396" y="1327"/>
      <point x="471" y="1382"/>
      <point x="558" y="1382" type="curve" smooth="yes"/>
      <point x="643" y="1382"/>
      <point x="701" y="1327"/>
      <point x="684" y="1222" type="curve" smooth="yes"/>
      <point x="666" y="1114"/>
      <point x="591" y="1062"/>
    </contour>
  </outline>
</glyph>
<glyph name="thook" format="2">
  <advance width="626"/>
  <unicode hex="01AD"/>
  <anchor x="443" y="1056" name="_topr"/>
  <anchor x="282" y="0" name="bottom"/>
  <anchor x="433" y="1490" name="top"/>
  <anchor x="443" y="1056" name="topr"/>
  <outline>
    <contour>
      <point x="376" y="0" type="curve" smooth="yes"/>
      <point x="411" y="0"/>
      <point x="447" y="0"/>
      <point x="482" y="0" type="curve"/>
      <point x="506" y="146" type="line"/>
      <point x="476" y="146"/>
      <point x="446" y="146"/>
      <point x="416" y="146" type="curve" smooth="yes"/>
      <point x="326" y="146"/>
      <point x="298" y="181"/>
      <point x="313" y="272" type="curve" smooth="yes"/>
      <point x="431" y="984" type="line"/>
      <point x="261" y="984" type="line"/>
      <point x="139" y="246" type="line" smooth="yes"/>
      <point x="114" y="95"/>
      <point x="205" y="0"/>
    </contour>
    <contour>
      <point x="95" y="910" type="line"/>
      <point x="633" y="910" type="line"/>
      <point x="657" y="1056" type="line"/>
      <point x="119" y="1056" type="line"/>
    </contour>
    <component base="_part.top_r_hook" xOffset="63"/>
  </outline>
</glyph>
<glyph name="Trthook" format="2">
  <advance width="1251"/>
  <unicode hex="01AE"/>
  <anchor x="539" y="0" name="bottom"/>
  <anchor x="629" y="0" name="bottomr"/>
  <anchor x="539" y="0" name="cedilla"/>
  <anchor x="666" y="768" name="cross"/>
  <anchor x="629" y="0" name="cyrtic"/>
  <anchor x="579" y="0" name="right"/>
  <anchor x="786" y="1490" name="top"/>
  <outline>
    <contour>
      <point x="628.59" y="0" type="line"/>
      <point x="448.59" y="0" type="line"/>
      <point x="428.393" y="-122" type="line" smooth="yes"/>
      <point x="395.608" y="-314"/>
      <point x="527.225" y="-419"/>
      <point x="689.391" y="-418" type="curve"/>
      <point x="789.391" y="-418" type="line"/>
      <point x="815.879" y="-258" type="line"/>
      <point x="759.879" y="-258" type="line"/>
      <point x="666.713" y="-259"/>
      <point x="589.521" y="-236"/>
      <point x="608.724" y="-120" type="curve" smooth="yes"/>
    </contour>
    <component base="T"/>
  </outline>
</glyph>
<glyph name="Uhorn" format="2">
  <advance width="1440"/>
  <unicode hex="01AF"/>
  <anchor x="633" y="0" name="bottom"/>
  <anchor x="1295" y="500" name="ogonek"/>
  <anchor x="717" y="0" name="right"/>
  <anchor x="1279" y="1490" name="rtophorn"/>
  <anchor x="879" y="1490" name="top"/>
  <outline>
    <contour>
      <point x="1255" y="1350" type="line"/>
      <point x="1447" y="1350" type="line" smooth="yes"/>
      <point x="1561" y="1350"/>
      <point x="1627" y="1406"/>
      <point x="1646" y="1520" type="curve" smooth="yes"/>
      <point x="1680" y="1730" type="line"/>
      <point x="1510" y="1730" type="line"/>
      <point x="1474" y="1508" type="line" smooth="yes"/>
      <point x="1472" y="1497"/>
      <point x="1464" y="1490"/>
      <point x="1453" y="1490" type="curve" smooth="yes"/>
      <point x="1279" y="1490" type="line"/>
    </contour>
    <component base="U"/>
  </outline>
</glyph>
<glyph name="uhorn" format="2">
  <advance width="1220"/>
  <unicode hex="01B0"/>
  <anchor x="481" y="0" name="bottom"/>
  <anchor x="907" y="0" name="ogonek"/>
  <anchor x="912" y="1056" name="rtophorn"/>
  <anchor x="648" y="1056" name="top"/>
  <outline>
    <contour>
      <point x="989" y="936" type="line"/>
      <point x="1067" y="936" type="line" smooth="yes"/>
      <point x="1181" y="936"/>
      <point x="1246" y="992"/>
      <point x="1265" y="1106" type="curve" smooth="yes"/>
      <point x="1297" y="1296" type="line"/>
      <point x="1137" y="1296" type="line"/>
      <point x="1102" y="1090" type="line" smooth="yes"/>
      <point x="1098" y="1066"/>
      <point x="1087" y="1056"/>
      <point x="1063" y="1056" type="curve" smooth="yes"/>
      <point x="1009" y="1056" type="line"/>
    </contour>
    <component base="u"/>
  </outline>
</glyph>
<glyph name="Upsilon2" format="2">
  <advance width="1496"/>
  <unicode hex="01B1"/>
  <outline>
    <contour>
      <point x="119.137" y="704" type="curve" smooth="yes"/>
      <point x="48.778" y="279"/>
      <point x="273.279" y="-20"/>
      <point x="657.279" y="-20" type="curve" smooth="yes"/>
      <point x="1041.279" y="-20"/>
      <point x="1363.778" y="279"/>
      <point x="1435.137" y="704" type="curve" smooth="yes"/>
      <point x="1480.821" y="986"/>
      <point x="1396.587" y="1196"/>
      <point x="1224.784" y="1318" type="curve"/>
      <point x="1226.77" y="1330" type="line"/>
      <point x="1538.77" y="1330" type="line"/>
      <point x="1565.258" y="1490" type="line"/>
      <point x="1035.258" y="1490" type="line"/>
      <point x="1001.486" y="1286" type="line"/>
      <point x="1179.911" y="1204"/>
      <point x="1306.325" y="983"/>
      <point x="1259.137" y="704" type="curve" smooth="yes"/>
      <point x="1208.651" y="393"/>
      <point x="967.091" y="148"/>
      <point x="685.091" y="148" type="curve" smooth="yes"/>
      <point x="402.091" y="148"/>
      <point x="242.651" y="393"/>
      <point x="293.137" y="704" type="curve" smooth="yes"/>
      <point x="340.325" y="983"/>
      <point x="539.911" y="1204"/>
      <point x="745.486" y="1286" type="curve"/>
      <point x="779.258" y="1490" type="line"/>
      <point x="249.258" y="1490" type="line"/>
      <point x="222.77" y="1330" type="line"/>
      <point x="534.77" y="1330" type="line"/>
      <point x="532.784" y="1318" type="line"/>
      <point x="319.09" y="1193"/>
      <point x="165.821" y="986"/>
    </contour>
  </outline>
</glyph>
<glyph name="Vcursive" format="2">
  <advance width="1228"/>
  <unicode hex="01B2"/>
  <outline>
    <contour>
      <point x="518" y="-20" type="curve" smooth="yes"/>
      <point x="800" y="-20"/>
      <point x="1077" y="142"/>
      <point x="1132" y="472" type="curve" smooth="yes"/>
      <point x="1246" y="1160" type="line" smooth="yes"/>
      <point x="1282" y="1385"/>
      <point x="1162" y="1510"/>
      <point x="984" y="1510" type="curve" smooth="yes"/>
      <point x="938" y="1510"/>
      <point x="893" y="1501"/>
      <point x="862" y="1492" type="curve"/>
      <point x="834" y="1332" type="line"/>
      <point x="855" y="1336"/>
      <point x="883" y="1338"/>
      <point x="904" y="1338" type="curve" smooth="yes"/>
      <point x="1008" y="1338"/>
      <point x="1057" y="1292"/>
      <point x="1036" y="1160" type="curve" smooth="yes"/>
      <point x="922" y="472" type="line" smooth="yes"/>
      <point x="885" y="247"/>
      <point x="739" y="145"/>
      <point x="544" y="146" type="curve" smooth="yes"/>
      <point x="349" y="145"/>
      <point x="239" y="247"/>
      <point x="276" y="472" type="curve" smooth="yes"/>
      <point x="446" y="1490" type="line"/>
      <point x="238" y="1490" type="line"/>
      <point x="70" y="472" type="line" smooth="yes"/>
      <point x="15" y="143"/>
      <point x="218" y="-20"/>
    </contour>
  </outline>
</glyph>
<glyph name="Yhook" format="2">
  <advance width="1382"/>
  <unicode hex="01B3"/>
  <outline>
    <contour>
      <point x="672.407" y="760" type="line"/>
      <point x="708.407" y="760" type="line"/>
      <point x="714.036" y="794" type="line"/>
      <point x="678.036" y="794" type="line"/>
    </contour>
    <contour>
      <point x="183.258" y="1490" type="line"/>
      <point x="576.237" y="614" type="line"/>
      <point x="474.59" y="0" type="line"/>
      <point x="654.59" y="0" type="line"/>
      <point x="756.237" y="614" type="line"/>
      <point x="1262.175" y="1266" type="line" smooth="yes"/>
      <point x="1329.247" y="1351"/>
      <point x="1394.902" y="1361"/>
      <point x="1459.101" y="1332" type="curve"/>
      <point x="1531.271" y="1478" type="line"/>
      <point x="1399.363" y="1545"/>
      <point x="1243.41" y="1503"/>
      <point x="1120.757" y="1342" type="curve" smooth="yes"/>
      <point x="693.718" y="780" type="line"/>
      <point x="389.258" y="1490" type="line"/>
    </contour>
  </outline>
</glyph>
<glyph name="yhook" format="2">
  <advance width="1344"/>
  <unicode hex="01B4"/>
  <anchor x="709" y="0" name="bottom"/>
  <anchor x="517" y="0" name="ogonek"/>
  <anchor x="603" y="1056" name="top"/>
  <outline>
    <contour>
      <point x="923" y="1056" type="line"/>
      <point x="1107" y="1056" type="line"/>
      <point x="1197" y="1214" type="line" smooth="yes"/>
      <point x="1245" y="1298"/>
      <point x="1272" y="1342"/>
      <point x="1354" y="1342" type="curve" smooth="yes"/>
      <point x="1369" y="1342"/>
      <point x="1418" y="1342"/>
      <point x="1439" y="1342" type="curve"/>
      <point x="1463" y="1490" type="line"/>
      <point x="1435" y="1490"/>
      <point x="1403" y="1490"/>
      <point x="1352" y="1490" type="curve" smooth="yes"/>
      <point x="1173" y="1490"/>
      <point x="1107" y="1400"/>
      <point x="1025" y="1247" type="curve" smooth="yes"/>
    </contour>
    <component base="y"/>
  </outline>
</glyph>
<glyph name="Ezh" format="2">
  <advance width="1311"/>
  <unicode hex="01B7"/>
  <anchor x="839" y="1676" name="top"/>
  <outline>
    <contour>
      <point x="-27" y="64" type="line"/>
      <point x="-61" y="-235"/>
      <point x="156" y="-441"/>
      <point x="475" y="-440" type="curve" smooth="yes"/>
      <point x="831" y="-441"/>
      <point x="1113" y="-180"/>
      <point x="1173" y="180" type="curve" smooth="yes"/>
      <point x="1231" y="531"/>
      <point x="1038" y="780"/>
      <point x="709" y="794" type="curve"/>
      <point x="711" y="808" type="line"/>
      <point x="1329" y="1358" type="line"/>
      <point x="1351" y="1490" type="line"/>
      <point x="293" y="1490" type="line"/>
      <point x="265" y="1326" type="line"/>
      <point x="1073" y="1326" type="line"/>
      <point x="1073" y="1314" type="line"/>
      <point x="491" y="802" type="line"/>
      <point x="465" y="652" type="line"/>
      <point x="575" y="652" type="line" smooth="yes"/>
      <point x="867" y="652"/>
      <point x="1042" y="468"/>
      <point x="995" y="178" type="curve" smooth="yes"/>
      <point x="953" y="-80"/>
      <point x="759" y="-278"/>
      <point x="507" y="-278" type="curve" smooth="yes"/>
      <point x="292" y="-278"/>
      <point x="135" y="-139"/>
      <point x="155" y="64" type="curve"/>
    </contour>
  </outline>
</glyph>
<glyph name="Ezhreversed" format="2">
  <advance width="1311"/>
  <unicode hex="01B8"/>
  <anchor x="850" y="1676" name="top"/>
  <outline>
    <contour>
      <point x="1184" y="64" type="curve"/>
      <point x="1000" y="64" type="line"/>
      <point x="953" y="-139"/>
      <point x="751" y="-278"/>
      <point x="536" y="-278" type="curve" smooth="yes"/>
      <point x="284" y="-278"/>
      <point x="156" y="-80"/>
      <point x="200" y="178" type="curve" smooth="yes"/>
      <point x="247" y="468"/>
      <point x="483" y="652"/>
      <point x="776" y="652" type="curve" smooth="yes"/>
      <point x="886" y="652" type="line"/>
      <point x="910" y="802" type="line"/>
      <point x="498" y="1314" type="line"/>
      <point x="498" y="1326" type="line"/>
      <point x="1308" y="1326" type="line"/>
      <point x="1336" y="1490" type="line"/>
      <point x="276" y="1490" type="line"/>
      <point x="254" y="1358" type="line"/>
      <point x="690" y="808" type="line"/>
      <point x="688" y="794" type="line"/>
      <point x="354" y="780"/>
      <point x="80" y="531"/>
      <point x="22" y="180" type="curve" smooth="yes"/>
      <point x="-38" y="-180"/>
      <point x="157" y="-441"/>
      <point x="512" y="-440" type="curve" smooth="yes"/>
      <point x="832" y="-441"/>
      <point x="1117" y="-235"/>
    </contour>
  </outline>
</glyph>
<glyph name="ezhreversed" format="2">
  <advance width="1227"/>
  <unicode hex="01B9"/>
  <anchor x="678" y="1056" name="top"/>
  <outline>
    <contour>
      <point x="443" y="-458" type="curve" smooth="yes"/>
      <point x="753" y="-458"/>
      <point x="1000" y="-257"/>
      <point x="1049" y="34" type="curve"/>
      <point x="867" y="34" type="line"/>
      <point x="832" y="-175"/>
      <point x="685" y="-300"/>
      <point x="473" y="-300" type="curve" smooth="yes"/>
      <point x="266" y="-300"/>
      <point x="149" y="-183"/>
      <point x="178" y="-6" type="curve" smooth="yes"/>
      <point x="209" y="184"/>
      <point x="362" y="290"/>
      <point x="603" y="290" type="curve" smooth="yes"/>
      <point x="721" y="290" type="line"/>
      <point x="745" y="436" type="line"/>
      <point x="441" y="894" type="line"/>
      <point x="441" y="896" type="line"/>
      <point x="1091" y="896" type="line"/>
      <point x="1118" y="1056" type="line"/>
      <point x="236" y="1056" type="line"/>
      <point x="214" y="924" type="line"/>
      <point x="542" y="432" type="line"/>
      <point x="541" y="430" type="line"/>
      <point x="269" y="415"/>
      <point x="43" y="244"/>
      <point x="2" y="-6" type="curve" smooth="yes"/>
      <point x="-41" y="-268"/>
      <point x="143" y="-458"/>
    </contour>
  </outline>
</glyph>
<glyph name="ezhtail" format="2">
  <advance width="1043"/>
  <unicode hex="01BA"/>
  <outline>
    <contour>
      <point x="202" y="1056" type="line" name="hr00"/>
      <point x="175" y="896" type="line"/>
      <point x="755" y="896" type="line"/>
      <point x="325" y="604" type="line"/>
      <point x="304" y="478" type="line"/>
      <point x="408" y="478" type="line"/>
      <point x="1051" y="932" type="line"/>
      <point x="1072" y="1056" type="line"/>
    </contour>
    <contour>
      <point x="149" y="-133" type="curve" smooth="yes"/>
      <point x="161" y="-61"/>
      <point x="219" y="6"/>
      <point x="413" y="46" type="curve" smooth="yes"/>
      <point x="658" y="97"/>
      <point x="836" y="175"/>
      <point x="866" y="359" type="curve" smooth="yes"/>
      <point x="897" y="542"/>
      <point x="751" y="638"/>
      <point x="505" y="638" type="curve" smooth="yes"/>
      <point x="441" y="638" type="line"/>
      <point x="402" y="478" type="line"/>
      <point x="478" y="478" type="line" smooth="yes"/>
      <point x="629" y="478"/>
      <point x="677" y="432"/>
      <point x="664" y="356" type="curve" smooth="yes"/>
      <point x="647" y="255"/>
      <point x="550" y="240"/>
      <point x="414" y="210" type="curve" smooth="yes"/>
      <point x="238" y="171"/>
      <point x="-7" y="106"/>
      <point x="-45" y="-121" type="curve" smooth="yes"/>
      <point x="-77" y="-313"/>
      <point x="68" y="-444"/>
      <point x="319" y="-444" type="curve" smooth="yes"/>
      <point x="611" y="-444"/>
      <point x="797" y="-266"/>
      <point x="827" y="-86" type="curve"/>
      <point x="629" y="-86" type="line"/>
      <point x="595" y="-237"/>
      <point x="461" y="-284"/>
      <point x="340" y="-284" type="curve" smooth="yes"/>
      <point x="206" y="-284"/>
      <point x="133" y="-227"/>
    </contour>
  </outline>
</glyph>
<glyph name="Tonefive" format="2">
  <advance width="1261"/>
  <unicode hex="01BC"/>
  <outline>
    <contour>
      <point x="486" y="1490" type="line" name="hr00"/>
      <point x="210" y="1490" type="line"/>
      <point x="183" y="1330" type="line"/>
      <point x="459" y="1330" type="line"/>
    </contour>
    <component base="five" xOffset="81"/>
  </outline>
</glyph>
<glyph name="tonefive" format="2">
  <advance width="1042"/>
  <unicode hex="01BD"/>
  <outline>
    <contour>
      <point x="334" y="472" type="line" name="hr00"/>
      <point x="381" y="527"/>
      <point x="448" y="576"/>
      <point x="562" y="576" type="curve" smooth="yes"/>
      <point x="710" y="576"/>
      <point x="771" y="489"/>
      <point x="750" y="360" type="curve" smooth="yes"/>
      <point x="730" y="236"/>
      <point x="643" y="145"/>
      <point x="482" y="146" type="curve" smooth="yes"/>
      <point x="352" y="145"/>
      <point x="271" y="215"/>
      <point x="290" y="322" type="curve"/>
      <point x="96" y="306" type="line"/>
      <point x="58" y="87"/>
      <point x="271" y="-17"/>
      <point x="456" y="-18" type="curve" smooth="yes"/>
      <point x="762" y="-17"/>
      <point x="913" y="148"/>
      <point x="948" y="360" type="curve" smooth="yes"/>
      <point x="986" y="602"/>
      <point x="867" y="742"/>
      <point x="626" y="736" type="curve"/>
      <point x="550" y="733"/>
      <point x="454" y="704"/>
      <point x="408" y="674" type="curve"/>
      <point x="474" y="910" type="line"/>
      <point x="984" y="910" type="line"/>
      <point x="1012" y="1082" type="line"/>
      <point x="334" y="1082" type="line"/>
      <point x="166" y="486" type="line"/>
    </contour>
    <contour>
      <point x="450" y="1082" type="line"/>
      <point x="148" y="1082" type="line"/>
      <point x="120" y="910" type="line"/>
      <point x="422" y="910" type="line"/>
    </contour>
  </outline>
</glyph>
<glyph name="glottalstopbarinv" format="2">
  <advance width="1042"/>
  <unicode hex="01BE"/>
  <outline>
    <contour>
      <point x="712" y="288" type="curve" smooth="yes"/>
      <point x="698" y="204"/>
      <point x="608" y="140"/>
      <point x="466" y="140" type="curve" smooth="yes"/>
      <point x="352" y="140"/>
      <point x="233" y="189"/>
      <point x="254" y="340" type="curve"/>
      <point x="52" y="340" type="line"/>
      <point x="20" y="157"/>
      <point x="148" y="-20"/>
      <point x="440" y="-20" type="curve" smooth="yes"/>
      <point x="692" y="-20"/>
      <point x="884" y="113"/>
      <point x="916" y="306" type="curve" smooth="yes"/>
      <point x="966" y="605"/>
      <point x="591" y="541"/>
      <point x="632" y="788" type="curve" smooth="yes"/>
      <point x="724" y="1342" type="line"/>
      <point x="524" y="1342" type="line"/>
      <point x="430" y="782" type="line" smooth="yes"/>
      <point x="375" y="454"/>
      <point x="745" y="486"/>
    </contour>
    <contour>
      <point x="878" y="1082" type="line"/>
      <point x="286" y="1082" type="line"/>
      <point x="258" y="934" type="line"/>
      <point x="852" y="934" type="line"/>
    </contour>
  </outline>
</glyph>
<glyph name="wynn" format="2">
  <advance width="1228"/>
  <unicode hex="01BF"/>
  <outline>
    <contour>
      <point x="404" y="910" type="line"/>
      <point x="418" y="1118" type="line"/>
      <point x="234" y="1118" type="line"/>
      <point x="8" y="-416" type="line"/>
      <point x="208" y="-416" type="line"/>
    </contour>
    <contour>
      <point x="318" y="684" type="line"/>
      <point x="372" y="832"/>
      <point x="476" y="966"/>
      <point x="652" y="966" type="curve" smooth="yes"/>
      <point x="849" y="966"/>
      <point x="909" y="788"/>
      <point x="878" y="578" type="curve" smooth="yes"/>
      <point x="872" y="530" type="line" smooth="yes"/>
      <point x="824" y="207"/>
      <point x="553" y="61"/>
      <point x="204" y="-20" type="curve"/>
      <point x="178" y="-180" type="line"/>
      <point x="685" y="-44"/>
      <point x="1011" y="113"/>
      <point x="1072" y="530" type="curve" smooth="yes"/>
      <point x="1080" y="578" type="line" smooth="yes"/>
      <point x="1127" y="908"/>
      <point x="1013" y="1132"/>
      <point x="738" y="1132" type="curve" smooth="yes"/>
      <point x="460" y="1132"/>
      <point x="291" y="931"/>
      <point x="210" y="602" type="curve"/>
    </contour>
  </outline>
</glyph>
<glyph name="uni01F6" format="2">
  <advance width="2122"/>
  <unicode hex="01F6"/>
  <outline>
    <contour>
      <point x="1479" y="-20" type="curve" smooth="yes"/>
      <point x="1741" y="-20"/>
      <point x="1931" y="136"/>
      <point x="1974" y="394" type="curve" smooth="yes"/>
      <point x="2083" y="1056" type="line"/>
      <point x="1913" y="1056" type="line"/>
      <point x="1807" y="414" type="line" smooth="yes"/>
      <point x="1778" y="240"/>
      <point x="1658" y="136"/>
      <point x="1484" y="136" type="curve" smooth="yes"/>
      <point x="1320" y="136"/>
      <point x="1252" y="228"/>
      <point x="1281" y="402" type="curve" smooth="yes"/>
      <point x="1461" y="1490" type="line"/>
      <point x="1281" y="1490" type="line"/>
      <point x="1174" y="843" type="line"/>
      <point x="380" y="843" type="line"/>
      <point x="487" y="1490" type="line"/>
      <point x="307" y="1490" type="line"/>
      <point x="61" y="0" type="line"/>
      <point x="241" y="0" type="line"/>
      <point x="354" y="683" type="line"/>
      <point x="1148" y="683" type="line"/>
      <point x="1102" y="406" type="line" smooth="yes"/>
      <point x="1059" y="148"/>
      <point x="1207" y="-20"/>
    </contour>
  </outline>
</glyph>
<glyph name="uni01F7" format="2">
  <advance width="1228"/>
  <unicode hex="01F7"/>
  <outline>
    <contour>
      <point x="442" y="1490" type="line"/>
      <point x="232" y="1490" type="line"/>
      <point x="-78" y="-418" type="line"/>
      <point x="130" y="-418" type="line"/>
    </contour>
    <contour>
      <point x="58" y="-180" type="line"/>
      <point x="620" y="-116"/>
      <point x="1113" y="313"/>
      <point x="1192" y="832" type="curve" smooth="yes"/>
      <point x="1202" y="898" type="line" smooth="yes"/>
      <point x="1263" y="1293"/>
      <point x="1082" y="1510"/>
      <point x="718" y="1510" type="curve" smooth="yes"/>
      <point x="569" y="1510"/>
      <point x="459" y="1476"/>
      <point x="360" y="1408" type="curve"/>
      <point x="294" y="1016" type="line"/>
      <point x="367" y="1241"/>
      <point x="482" y="1341"/>
      <point x="694" y="1342" type="curve" smooth="yes"/>
      <point x="941" y="1341"/>
      <point x="1047" y="1203"/>
      <point x="996" y="902" type="curve" smooth="yes"/>
      <point x="984" y="832" type="line" smooth="yes"/>
      <point x="913" y="400"/>
      <point x="538" y="55"/>
      <point x="84" y="-14" type="curve"/>
    </contour>
  </outline>
</glyph>
<glyph name="uni021C" format="2">
  <advance width="1228"/>
  <unicode hex="021C"/>
  <outline>
    <contour>
      <point x="156" y="338" type="line"/>
      <point x="698" y="451"/>
      <point x="1139" y="720"/>
      <point x="1198" y="1084" type="curve" smooth="yes"/>
      <point x="1244" y="1357"/>
      <point x="1053" y="1510"/>
      <point x="766" y="1510" type="curve" smooth="yes"/>
      <point x="468" y="1510"/>
      <point x="234" y="1353"/>
      <point x="194" y="1106" type="curve"/>
      <point x="400" y="1106" type="line"/>
      <point x="423" y="1245"/>
      <point x="552" y="1341"/>
      <point x="738" y="1342" type="curve" smooth="yes"/>
      <point x="924" y="1341"/>
      <point x="1018" y="1241"/>
      <point x="990" y="1064" type="curve" smooth="yes"/>
      <point x="943" y="784"/>
      <point x="660" y="625"/>
      <point x="182" y="488" type="curve"/>
    </contour>
    <contour>
      <point x="786" y="648" type="line"/>
      <point x="890" y="605"/>
      <point x="918" y="509"/>
      <point x="890" y="340" type="curve" smooth="yes"/>
      <point x="828" y="-35"/>
      <point x="533" y="-177"/>
      <point x="56" y="-270" type="curve"/>
      <point x="28" y="-436" type="line"/>
      <point x="591" y="-326"/>
      <point x="1018" y="-148"/>
      <point x="1096" y="326" type="curve" smooth="yes"/>
      <point x="1137" y="567"/>
      <point x="1063" y="701"/>
      <point x="908" y="762" type="curve"/>
    </contour>
  </outline>
</glyph>
<glyph name="uni021D" format="2">
  <advance width="1042"/>
  <unicode hex="021D"/>
  <outline>
    <contour>
      <point x="126" y="210" type="line"/>
      <point x="588" y="293"/>
      <point x="915" y="523"/>
      <point x="960" y="794" type="curve" smooth="yes"/>
      <point x="994" y="1001"/>
      <point x="849" y="1132"/>
      <point x="608" y="1132" type="curve" smooth="yes"/>
      <point x="347" y="1132"/>
      <point x="172" y="994"/>
      <point x="136" y="780" type="curve"/>
      <point x="334" y="780" type="line"/>
      <point x="354" y="897"/>
      <point x="448" y="972"/>
      <point x="584" y="972" type="curve" smooth="yes"/>
      <point x="713" y="972"/>
      <point x="777" y="905"/>
      <point x="758" y="784" type="curve" smooth="yes"/>
      <point x="727" y="592"/>
      <point x="509" y="440"/>
      <point x="152" y="358" type="curve"/>
    </contour>
    <contour>
      <point x="594" y="454" type="line"/>
      <point x="670" y="417"/>
      <point x="701" y="320"/>
      <point x="680" y="190" type="curve" smooth="yes"/>
      <point x="638" y="-58"/>
      <point x="457" y="-192"/>
      <point x="46" y="-280" type="curve"/>
      <point x="20" y="-436" type="line"/>
      <point x="537" y="-370"/>
      <point x="821" y="-167"/>
      <point x="878" y="178" type="curve" smooth="yes"/>
      <point x="910" y="365"/>
      <point x="856" y="494"/>
      <point x="722" y="556" type="curve"/>
    </contour>
  </outline>
</glyph>
<glyph name="uni0220" format="2">
  <advance width="1228"/>
  <unicode hex="0220"/>
  <outline>
    <contour>
      <point x="984" y="-416" type="line"/>
      <point x="1218" y="1018" type="line" smooth="yes"/>
      <point x="1273" y="1347"/>
      <point x="1047" y="1510"/>
      <point x="770" y="1510" type="curve" smooth="yes"/>
      <point x="617" y="1510"/>
      <point x="474" y="1460"/>
      <point x="376" y="1400" type="curve"/>
      <point x="350" y="1240" type="line"/>
      <point x="454" y="1303"/>
      <point x="586" y="1344"/>
      <point x="726" y="1344" type="curve" smooth="yes"/>
      <point x="950" y="1344"/>
      <point x="1055" y="1245"/>
      <point x="1018" y="1018" type="curve" smooth="yes"/>
      <point x="782" y="-416" type="line"/>
    </contour>
    <contour>
      <point x="440" y="1490" type="line"/>
      <point x="242" y="1490" type="line"/>
      <point x="-6" y="0" type="line"/>
      <point x="192" y="0" type="line"/>
    </contour>
  </outline>
</glyph>
<glyph name="uni0222" format="2">
  <advance width="1228"/>
  <unicode hex="0222"/>
  <outline>
    <contour>
      <point x="656" y="882" type="line" name="hr00"/>
      <point x="344" y="881"/>
      <point x="78" y="730"/>
      <point x="30" y="434" type="curve" smooth="yes"/>
      <point x="-21" y="128"/>
      <point x="195" y="-20"/>
      <point x="506" y="-20" type="curve" smooth="yes"/>
      <point x="530" y="-20" type="line" smooth="yes"/>
      <point x="841" y="-20"/>
      <point x="1107" y="128"/>
      <point x="1158" y="436" type="curve" smooth="yes"/>
      <point x="1207" y="730"/>
      <point x="990" y="881"/>
      <point x="680" y="882" type="curve" smooth="yes"/>
    </contour>
    <contour>
      <point x="654" y="724" type="line"/>
      <point x="862" y="724"/>
      <point x="983" y="631"/>
      <point x="952" y="436" type="curve" smooth="yes"/>
      <point x="919" y="236"/>
      <point x="767" y="151"/>
      <point x="558" y="152" type="curve" smooth="yes"/>
      <point x="534" y="152" type="line" smooth="yes"/>
      <point x="325" y="151"/>
      <point x="202" y="236"/>
      <point x="236" y="434" type="curve" smooth="yes"/>
      <point x="269" y="631"/>
      <point x="420" y="724"/>
      <point x="630" y="724" type="curve" smooth="yes"/>
    </contour>
    <contour>
      <point x="648" y="896" type="line"/>
      <point x="468" y="896"/>
      <point x="316" y="925"/>
      <point x="350" y="1128" type="curve" smooth="yes"/>
      <point x="372" y="1257"/>
      <point x="446" y="1321"/>
      <point x="576" y="1352" type="curve"/>
      <point x="602" y="1510" type="line"/>
      <point x="383" y="1498"/>
      <point x="185" y="1379"/>
      <point x="144" y="1128" type="curve" smooth="yes"/>
      <point x="95" y="826"/>
      <point x="335" y="739"/>
      <point x="622" y="738" type="curve" smooth="yes"/>
      <point x="664" y="738" type="line" smooth="yes"/>
      <point x="952" y="739"/>
      <point x="1223" y="826"/>
      <point x="1272" y="1128" type="curve" smooth="yes"/>
      <point x="1314" y="1379"/>
      <point x="1159" y="1498"/>
      <point x="940" y="1510" type="curve"/>
      <point x="914" y="1352" type="line"/>
      <point x="1033" y="1321"/>
      <point x="1087" y="1257"/>
      <point x="1066" y="1128" type="curve" smooth="yes"/>
      <point x="1033" y="925"/>
      <point x="873" y="896"/>
      <point x="690" y="896" type="curve" smooth="yes"/>
    </contour>
  </outline>
</glyph>
<glyph name="uni0223" format="2">
  <advance width="1228"/>
  <unicode hex="0223"/>
  <outline>
    <contour>
      <point x="654" y="878" type="line"/>
      <point x="343" y="879"/>
      <point x="81" y="730"/>
      <point x="32" y="434" type="curve" smooth="yes"/>
      <point x="-20" y="128"/>
      <point x="195" y="-20"/>
      <point x="506" y="-20" type="curve" smooth="yes"/>
      <point x="530" y="-20" type="line" smooth="yes"/>
      <point x="841" y="-20"/>
      <point x="1103" y="128"/>
      <point x="1154" y="436" type="curve" smooth="yes"/>
      <point x="1204" y="730"/>
      <point x="989" y="879"/>
      <point x="678" y="878" type="curve" smooth="yes"/>
    </contour>
    <contour>
      <point x="654" y="728" type="line"/>
      <point x="861" y="727"/>
      <point x="986" y="631"/>
      <point x="954" y="436" type="curve" smooth="yes"/>
      <point x="922" y="236"/>
      <point x="762" y="140"/>
      <point x="556" y="140" type="curve" smooth="yes"/>
      <point x="532" y="140" type="line" smooth="yes"/>
      <point x="323" y="140"/>
      <point x="201" y="236"/>
      <point x="232" y="434" type="curve" smooth="yes"/>
      <point x="265" y="631"/>
      <point x="422" y="727"/>
      <point x="632" y="728" type="curve" smooth="yes"/>
    </contour>
    <contour>
      <point x="690" y="888" type="curve"/>
      <point x="648" y="888" type="line" smooth="yes"/>
      <point x="468" y="887"/>
      <point x="317" y="940"/>
      <point x="350" y="1144" type="curve" smooth="yes"/>
      <point x="375" y="1289"/>
      <point x="454" y="1359"/>
      <point x="584" y="1408" type="curve"/>
      <point x="610" y="1556" type="line"/>
      <point x="390" y="1548"/>
      <point x="192" y="1402"/>
      <point x="148" y="1144" type="curve" smooth="yes"/>
      <point x="99" y="844"/>
      <point x="335" y="739"/>
      <point x="622" y="738" type="curve" smooth="yes"/>
      <point x="664" y="738" type="line" smooth="yes"/>
      <point x="951" y="739"/>
      <point x="1222" y="844"/>
      <point x="1272" y="1144" type="curve" smooth="yes"/>
      <point x="1315" y="1402"/>
      <point x="1164" y="1548"/>
      <point x="948" y="1556" type="curve"/>
      <point x="922" y="1408" type="line"/>
      <point x="1041" y="1359"/>
      <point x="1097" y="1289"/>
      <point x="1070" y="1144" type="curve" smooth="yes"/>
      <point x="1039" y="940"/>
      <point x="873" y="887"/>
    </contour>
  </outline>
</glyph>
<glyph name="zhook" format="2">
  <advance width="980"/>
  <unicode hex="0225"/>
  <outline>
    <contour>
      <point x="723" y="-208" type="line"/>
      <point x="879" y="-208" type="line"/>
      <point x="891" y="-134" type="line" smooth="yes"/>
      <point x="918" y="32"/>
      <point x="829" y="152"/>
      <point x="640" y="152" type="curve" smooth="yes"/>
      <point x="248" y="152" type="line"/>
      <point x="249" y="156" type="line"/>
      <point x="947" y="920" type="line"/>
      <point x="970" y="1056" type="line"/>
      <point x="182" y="1056" type="line"/>
      <point x="157" y="904" type="line"/>
      <point x="735" y="904" type="line"/>
      <point x="734" y="900" type="line"/>
      <point x="29" y="130" type="line"/>
      <point x="7" y="0" type="line"/>
      <point x="615" y="0" type="line" smooth="yes"/>
      <point x="732" y="0"/>
      <point x="743" y="-84"/>
      <point x="728" y="-178" type="curve" smooth="yes"/>
    </contour>
  </outline>
</glyph>
